SplineFontDB: 3.0
FontName: ElaineSans-BlackItalic
FullName: Elaine Sans Black Italic
FamilyName: Elaine Sans Black
Weight: Black
Copyright: Copyright (c) 2015 by Wei Huang. All rights reserved.
Version: 1.030;PS 001.030;hotconv 1.0.70;makeotf.lib2.5.58329
ItalicAngle: -13
UnderlinePosition: -250
UnderlineWidth: 50
Ascent: 760
Descent: 240
InvalidEm: 0
sfntRevision: 0x000107ae
LayerCount: 2
Layer: 0 1 "Back" 1
Layer: 1 1 "Fore" 0
XUID: [1021 288 1899785369 2235]
StyleMap: 0x0001
FSType: 4
OS2Version: 3
OS2_WeightWidthSlopeOnly: 0
OS2_UseTypoMetrics: 0
CreationTime: 1436215496
ModificationTime: 1543787067
PfmFamily: 81
TTFWeight: 900
TTFWidth: 5
LineGap: 0
VLineGap: 0
Panose: 0 0 10 0 0 0 0 0 0 0
OS2TypoAscent: 760
OS2TypoAOffset: 0
OS2TypoDescent: -240
OS2TypoDOffset: 0
OS2TypoLinegap: 173
OS2WinAscent: 930
OS2WinAOffset: 0
OS2WinDescent: 243
OS2WinDOffset: 0
HheadAscent: 930
HheadAOffset: 0
HheadDescent: -243
HheadDOffset: 0
OS2SubXSize: 650
OS2SubYSize: 600
OS2SubXOff: 0
OS2SubYOff: 75
OS2SupXSize: 650
OS2SupYSize: 600
OS2SupXOff: 0
OS2SupYOff: 350
OS2StrikeYSize: 50
OS2StrikeYPos: 300
OS2CapHeight: 660
OS2XHeight: 500
OS2Vendor: 'UKWN'
OS2CodePages: 20000093.00000000
OS2UnicodeRanges: 00000007.00000001.00000000.00000000
Lookup: 1 0 0 "'aalt' Access All Alternates lookup 0" { "'aalt' Access All Alternates lookup 0 subtable"  } ['aalt' ('DFLT' <'dflt' > 'grek' <'dflt' > 'latn' <'CAT ' 'MOL ' 'NLD ' 'ROM ' 'TRK ' 'dflt' > ) ]
Lookup: 3 0 0 "'aalt' Access All Alternates lookup 1" { "'aalt' Access All Alternates lookup 1 subtable"  } ['aalt' ('DFLT' <'dflt' > 'grek' <'dflt' > 'latn' <'CAT ' 'MOL ' 'NLD ' 'ROM ' 'TRK ' 'dflt' > ) ]
Lookup: 1 0 0 "'locl' Localized Forms in Latin lookup 2" { "'locl' Localized Forms in Latin lookup 2 subtable"  } ['locl' ('latn' <'TRK ' > ) ]
Lookup: 1 0 0 "'locl' Localized Forms in Latin lookup 3" { "'locl' Localized Forms in Latin lookup 3 subtable"  } ['locl' ('latn' <'TAT ' > ) ]

StartChar: .notdef
Encoding: 65536 -1 0
Width: 500
Flags: W
LayerCount: 2
Fore
SplineSet
-14 0 m 1,0,-1
 138.373046875 660 l 1,1,-1
 538.373046875 660 l 1,2,-1
 386 0 l 1,3,-1
 -14 0 l 1,0,-1
84.4697265625 80 m 1,4,-1
 324.469726562 80 l 1,5,-1
 439.903320312 580 l 1,6,-1
 199.903320312 580 l 1,7,-1
 84.4697265625 80 l 1,4,-1
EndSplineSet
EndChar

StartChar: exclam
Encoding: 33 33 4
Width: 321
GlyphClass: 2
Flags: W
LayerCount: 2
Fore
SplineSet
368.373046875 660 m 1,0,-1
 330.510742188 496 l 1,1,-1
 242.791015625 220 l 1,2,-1
 50.791015625 220 l 1,3,-1
 90.5107421875 496 l 1,4,-1
 128.373046875 660 l 1,5,-1
 368.373046875 660 l 1,0,-1
138.7109375 185 m 128,-1,7
 194.7109375 185 194.7109375 185 219.438476562 160 c 128,-1,8
 244.166992188 135 244.166992188 135 233.546875 89 c 128,-1,9
 222.927734375 43 222.927734375 43 186.655273438 18 c 128,-1,10
 150.383789062 -7 150.383789062 -7 94.3837890625 -7 c 128,-1,11
 38.3837890625 -7 38.3837890625 -7 13.6552734375 18 c 128,-1,12
 -11.072265625 43 -11.072265625 43 -0.453125 89 c 128,-1,13
 10.1669921875 135 10.1669921875 135 46.4384765625 160 c 128,-1,6
 82.7109375 185 82.7109375 185 138.7109375 185 c 128,-1,7
EndSplineSet
Substitution2: "'smcp' Lowercase to Small Capitals lookup 12 subtable" exclam.sc
Substitution2: "'c2sc' Capitals to Small Capitals lookup 11 subtable" exclam.sc
Substitution2: "'aalt' Access All Alternates lookup 0 subtable" exclam.sc
EndChar

StartChar: quotedbl
Encoding: 34 34 5
Width: 477
GlyphClass: 2
Flags: W
LayerCount: 2
Fore
SplineSet
319.681640625 670 m 1,0,-1
 219.114257812 373 l 1,1,-1
 72.1142578125 373 l 1,2,-1
 140.681640625 670 l 1,3,-1
 319.681640625 670 l 1,0,-1
536.681640625 670 m 1,4,-1
 436.114257812 373 l 1,5,-1
 289.114257812 373 l 1,6,-1
 357.681640625 670 l 1,7,-1
 536.681640625 670 l 1,4,-1
EndSplineSet
Substitution2: "'smcp' Lowercase to Small Capitals lookup 12 subtable" quotedbl.sc
Substitution2: "'c2sc' Capitals to Small Capitals lookup 11 subtable" quotedbl.sc
Substitution2: "'aalt' Access All Alternates lookup 0 subtable" quotedbl.sc
EndChar

StartChar: numbersign
Encoding: 35 35 6
Width: 604
GlyphClass: 2
Flags: W
LayerCount: 2
Fore
SplineSet
617.807617188 389 m 1,0,-1
 516.807617188 389 l 1,1,-1
 471.565429688 271 l 1,2,-1
 568.565429688 271 l 1,3,-1
 538.783203125 142 l 1,4,-1
 420.783203125 142 l 1,5,-1
 366 0 l 1,6,-1
 248 0 l 1,7,-1
 302.783203125 142 l 1,8,-1
 182.783203125 142 l 1,9,-1
 128 0 l 1,10,-1
 10 0 l 1,11,-1
 64.783203125 142 l 1,12,-1
 -20.216796875 142 l 1,13,-1
 9.5654296875 271 l 1,14,-1
 115.565429688 271 l 1,15,-1
 160.807617188 389 l 1,16,-1
 58.8076171875 389 l 1,17,-1
 88.58984375 518 l 1,18,-1
 211.58984375 518 l 1,19,-1
 266.373046875 660 l 1,20,-1
 384.373046875 660 l 1,21,-1
 329.58984375 518 l 1,22,-1
 449.58984375 518 l 1,23,-1
 504.373046875 660 l 1,24,-1
 622.373046875 660 l 1,25,-1
 567.58984375 518 l 1,26,-1
 647.58984375 518 l 1,27,-1
 617.807617188 389 l 1,0,-1
353.565429688 271 m 1,28,-1
 398.807617188 389 l 1,29,-1
 278.807617188 389 l 1,30,-1
 233.565429688 271 l 1,31,-1
 353.565429688 271 l 1,28,-1
EndSplineSet
Substitution2: "'tnum' Tabular Numbers lookup 26 subtable" numbersign.tf
Substitution2: "'aalt' Access All Alternates lookup 0 subtable" numbersign.tf
EndChar

StartChar: dollar
Encoding: 36 36 7
Width: 604
GlyphClass: 2
Flags: W
LayerCount: 2
Fore
SplineSet
368.962890625 407 m 1,0,1
 407.116210938 399 407.116210938 399 431.5 392 c 128,-1,2
 455.883789062 385 455.883789062 385 488.190429688 369 c 128,-1,3
 520.49609375 353 520.49609375 353 537.263671875 332.5 c 128,-1,4
 554.03125 312 554.03125 312 561.950195312 277 c 128,-1,5
 569.870117188 242 569.870117188 242 559.481445312 197 c 0,6,7
 539.625976562 111 539.625976562 111 461.236328125 59.5 c 128,-1,8
 382.846679688 8 382.846679688 8 275.23046875 1 c 1,9,-1
 256.530273438 -80 l 1,10,-1
 198.530273438 -80 l 1,11,-1
 217 0 l 1,12,13
 122.692382812 3 122.692382812 3 67.1181640625 26.5 c 128,-1,14
 11.54296875 50 11.54296875 50 -29.8369140625 96 c 1,15,-1
 105.25390625 235 l 1,16,17
 119.481445312 197 119.481445312 197 160.40234375 175 c 128,-1,18
 201.323242188 153 201.323242188 153 251.399414062 149 c 1,19,-1
 273.793945312 246 l 1,20,21
 245.178710938 252 245.178710938 252 229.102539062 256 c 128,-1,22
 213.025390625 260 213.025390625 260 185.98828125 268.5 c 128,-1,23
 158.950195312 277 158.950195312 277 143.143554688 286.5 c 128,-1,24
 127.336914062 296 127.336914062 296 109.415039062 311.5 c 128,-1,25
 91.494140625 327 91.494140625 327 83.880859375 346 c 128,-1,26
 76.2666015625 365 76.2666015625 365 73.884765625 391.5 c 128,-1,27
 71.5029296875 418 71.5029296875 418 78.890625 450 c 0,28,29
 99.20703125 538 99.20703125 538 176.366210938 595 c 128,-1,30
 253.526367188 652 253.526367188 652 369.142578125 659 c 1,31,-1
 387.842773438 740 l 1,32,-1
 445.842773438 740 l 1,33,-1
 427.373046875 660 l 1,34,35
 487.680664062 657 487.680664062 657 532.255859375 640 c 128,-1,36
 576.831054688 623 576.831054688 623 597.021484375 606.5 c 128,-1,37
 617.211914062 590 617.211914062 590 654.439453125 552 c 1,38,-1
 524.119140625 425 l 1,39,40
 498.357421875 504 498.357421875 504 392.973632812 511 c 1,41,-1
 368.962890625 407 l 1,0,1
262.123046875 464 m 0,42,43
 255.427734375 435 255.427734375 435 313.96484375 420 c 1,44,-1
 334.743164062 510 l 1,45,46
 270.434570312 500 270.434570312 500 262.123046875 464 c 0,42,43
309.629882812 150 m 1,47,48
 370.784179688 155 370.784179688 155 378.403320312 188 c 0,49,50
 385.329101562 218 385.329101562 218 328.791992188 233 c 1,51,-1
 309.629882812 150 l 1,47,48
EndSplineSet
Substitution2: "'tnum' Tabular Numbers lookup 26 subtable" dollar.tf
Substitution2: "'aalt' Access All Alternates lookup 0 subtable" dollar.tf
EndChar

StartChar: percent
Encoding: 37 37 8
Width: 992
GlyphClass: 2
Flags: W
LayerCount: 2
Fore
SplineSet
318.681640625 670 m 128,-1,1
 410.681640625 670 410.681640625 670 454.561523438 617.5 c 128,-1,2
 498.440429688 565 498.440429688 565 478.35546875 478 c 128,-1,3
 458.26953125 391 458.26953125 391 390.1484375 338.5 c 128,-1,4
 322.028320312 286 322.028320312 286 230.028320312 286 c 128,-1,5
 138.028320312 286 138.028320312 286 94.1484375 338.5 c 128,-1,6
 50.26953125 391 50.26953125 391 70.35546875 478 c 128,-1,7
 90.4404296875 565 90.4404296875 565 158.561523438 617.5 c 128,-1,0
 226.681640625 670 226.681640625 670 318.681640625 670 c 128,-1,1
107 0 m 1,8,-1
 745.603515625 661 l 1,9,-1
 911.603515625 661 l 1,10,-1
 273 0 l 1,11,-1
 107 0 l 1,8,-1
284.513671875 522 m 128,-1,13
 243.513671875 522 243.513671875 522 233.35546875 478 c 128,-1,14
 223.197265625 434 223.197265625 434 264.197265625 434 c 128,-1,15
 305.197265625 434 305.197265625 434 315.35546875 478 c 128,-1,12
 325.513671875 522 325.513671875 522 284.513671875 522 c 128,-1,13
786.344726562 374 m 128,-1,17
 878.344726562 374 878.344726562 374 922.224609375 321.5 c 128,-1,18
 966.103515625 269 966.103515625 269 946.017578125 182 c 128,-1,19
 925.932617188 95 925.932617188 95 857.811523438 42.5 c 128,-1,20
 789.69140625 -10 789.69140625 -10 697.69140625 -10 c 128,-1,21
 605.69140625 -10 605.69140625 -10 561.811523438 42.5 c 128,-1,22
 517.932617188 95 517.932617188 95 538.017578125 182 c 128,-1,23
 558.103515625 269 558.103515625 269 626.224609375 321.5 c 128,-1,16
 694.344726562 374 694.344726562 374 786.344726562 374 c 128,-1,17
752.17578125 226 m 128,-1,25
 711.17578125 226 711.17578125 226 701.017578125 182 c 128,-1,26
 690.859375 138 690.859375 138 731.859375 138 c 128,-1,27
 772.859375 138 772.859375 138 783.017578125 182 c 128,-1,24
 793.17578125 226 793.17578125 226 752.17578125 226 c 128,-1,25
EndSplineSet
EndChar

StartChar: ampersand
Encoding: 38 38 9
Width: 662
GlyphClass: 2
Flags: W
LayerCount: 2
Fore
SplineSet
622.399414062 149 m 1,0,-1
 573.69140625 -10 l 1,1,2
 507.69140625 -10 507.69140625 -10 467.615234375 0.5 c 128,-1,3
 427.5390625 11 427.5390625 11 387.927734375 43 c 1,4,5
 305.69140625 -10 305.69140625 -10 190.69140625 -10 c 0,6,7
 77.69140625 -10 77.69140625 -10 21.8115234375 36 c 128,-1,8
 -34.068359375 82 -34.068359375 82 -13.59765625 175 c 0,9,10
 -3.5166015625 223 -3.5166015625 223 33.603515625 269 c 128,-1,11
 70.7236328125 315 70.7236328125 315 139.264648438 339 c 1,12,13
 114.19140625 382 114.19140625 382 109.963867188 413.5 c 128,-1,14
 105.736328125 445 105.736328125 445 115.432617188 487 c 0,15,16
 132.748046875 562 132.748046875 562 204.21484375 616 c 128,-1,17
 275.681640625 670 275.681640625 670 389.681640625 670 c 0,18,19
 505.681640625 670 505.681640625 670 549.022460938 619.5 c 128,-1,20
 592.364257812 569 592.364257812 569 576.434570312 500 c 0,21,22
 562.3515625 439 562.3515625 439 513.884765625 391.5 c 128,-1,23
 465.418945312 344 465.418945312 344 389.877929688 320 c 1,24,-1
 412.413085938 292 l 2,25,26
 420.3359375 283 420.3359375 283 434.564453125 264.5 c 128,-1,27
 448.793945312 246 448.793945312 246 455.946289062 238 c 1,28,29
 478.412109375 279 478.412109375 279 489.956054688 329 c 1,30,-1
 635.956054688 329 l 1,31,32
 606.71484375 224 606.71484375 224 536.477539062 158 c 1,33,34
 571.090820312 139 571.090820312 139 622.399414062 149 c 1,0,-1
363.12890625 529 m 0,35,36
 317.12890625 529 317.12890625 529 305.124023438 477 c 0,37,38
 298.428710938 448 298.428710938 448 330.34765625 400 c 1,39,40
 385.3515625 439 385.3515625 439 396.202148438 486 c 0,41,42
 400.819335938 506 400.819335938 506 391.474609375 517.5 c 128,-1,43
 382.12890625 529 382.12890625 529 363.12890625 529 c 0,35,36
253.705078125 133 m 0,44,45
 274.705078125 133 274.705078125 133 295.3984375 136 c 1,46,-1
 279.015625 156 l 2,47,48
 225.791015625 220 225.791015625 220 209.639648438 241 c 1,49,50
 190.252929688 222 190.252929688 222 183.095703125 191 c 0,51,52
 176.862304688 164 176.862304688 164 195.284179688 148.5 c 128,-1,53
 213.705078125 133 213.705078125 133 253.705078125 133 c 0,44,45
EndSplineSet
Substitution2: "'smcp' Lowercase to Small Capitals lookup 12 subtable" ampersand.sc
Substitution2: "'c2sc' Capitals to Small Capitals lookup 11 subtable" ampersand.sc
Substitution2: "'aalt' Access All Alternates lookup 0 subtable" ampersand.sc
EndChar

StartChar: quotesingle
Encoding: 39 39 10
Width: 260
GlyphClass: 2
Flags: W
LayerCount: 2
Fore
SplineSet
319.681640625 670 m 1,0,-1
 219.114257812 373 l 1,1,-1
 72.1142578125 373 l 1,2,-1
 140.681640625 670 l 1,3,-1
 319.681640625 670 l 1,0,-1
EndSplineSet
Substitution2: "'smcp' Lowercase to Small Capitals lookup 12 subtable" quotesingle.sc
Substitution2: "'c2sc' Capitals to Small Capitals lookup 11 subtable" quotesingle.sc
Substitution2: "'aalt' Access All Alternates lookup 0 subtable" quotesingle.sc
EndChar

StartChar: parenleft
Encoding: 40 40 11
Width: 418
GlyphClass: 2
Flags: W
LayerCount: 2
Fore
SplineSet
421.610351562 726 m 1,0,-1
 501.5234375 626 l 1,1,2
 407.59375 557 407.59375 557 353.046875 474.5 c 128,-1,3
 298.5 392 298.5 392 269.641601562 267 c 0,4,5
 240.552734375 141 240.552734375 141 257.005859375 58.5 c 128,-1,6
 273.458984375 -24 273.458984375 -24 335.529296875 -93 c 1,7,-1
 209.442382812 -193 l 1,8,9
 -5.466796875 -54 -5.466796875 -54 68.6416015625 267 c 0,10,11
 142.981445312 589 142.981445312 589 421.610351562 726 c 1,0,-1
EndSplineSet
Substitution2: "'case' Case-Sensitive Forms lookup 29 subtable" parenleft.case
Substitution2: "'sups' Superscript lookup 15 subtable" uni207D
Substitution2: "'subs' Subscript lookup 14 subtable" uni208D
Substitution2: "'sinf' Scientific Inferiors lookup 13 subtable" uni208D
AlternateSubs2: "'aalt' Access All Alternates lookup 1 subtable" uni208D uni207D parenleft.case
EndChar

StartChar: parenright
Encoding: 41 41 12
Width: 418
GlyphClass: 2
Flags: W
LayerCount: 2
Fore
SplineSet
203.610351562 726 m 1,0,1
 418.981445312 589 418.981445312 589 344.641601562 267 c 0,2,3
 270.533203125 -54 270.533203125 -54 -8.5576171875 -193 c 1,4,-1
 -88.470703125 -93 l 1,5,6
 5.458984375 -24 5.458984375 -24 60.005859375 58.5 c 128,-1,7
 114.552734375 141 114.552734375 141 143.641601562 267 c 0,8,9
 172.5 392 172.5 392 156.046875 474.5 c 128,-1,10
 139.59375 557 139.59375 557 77.5234375 626 c 1,11,-1
 203.610351562 726 l 1,0,1
EndSplineSet
Substitution2: "'case' Case-Sensitive Forms lookup 29 subtable" parenright.case
Substitution2: "'sups' Superscript lookup 15 subtable" uni207E
Substitution2: "'subs' Subscript lookup 14 subtable" uni208E
Substitution2: "'sinf' Scientific Inferiors lookup 13 subtable" uni208E
AlternateSubs2: "'aalt' Access All Alternates lookup 1 subtable" uni208E uni207E parenright.case
EndChar

StartChar: asterisk
Encoding: 42 42 13
Width: 599
GlyphClass: 2
Flags: W
LayerCount: 2
Fore
SplineSet
448.427734375 435 m 1,0,-1
 458.119140625 425 l 1,1,-1
 522.337890625 309 l 1,2,-1
 372.8671875 216 l 1,3,-1
 319.264648438 339 l 1,4,-1
 316.727539062 354 l 1,5,-1
 307.264648438 339 l 1,6,-1
 196.8671875 216 l 1,7,-1
 90.337890625 309 l 1,8,-1
 209.119140625 425 l 1,9,-1
 223.427734375 435 l 1,10,-1
 207.658203125 436 l 1,11,-1
 74.8935546875 476 l 1,12,-1
 158.75390625 627 l 1,13,-1
 284.749023438 575 l 1,14,-1
 296.671875 566 l 1,15,-1
 296.595703125 583 l 1,16,-1
 324.534179688 730 l 1,17,-1
 482.534179688 730 l 1,18,-1
 442.595703125 583 l 1,19,-1
 434.671875 566 l 1,20,-1
 450.749023438 575 l 1,21,-1
 601.75390625 627 l 1,22,-1
 615.893554688 476 l 1,23,-1
 463.658203125 436 l 1,24,-1
 448.427734375 435 l 1,0,-1
EndSplineSet
EndChar

StartChar: plus
Encoding: 43 43 14
Width: 604
GlyphClass: 2
Flags: W
LayerCount: 2
Fore
SplineSet
588.962890625 407 m 1,0,-1
 553.640625 254 l 1,1,-1
 384.640625 254 l 1,2,-1
 338.697265625 55 l 1,3,-1
 163.697265625 55 l 1,4,-1
 209.640625 254 l 1,5,-1
 39.640625 254 l 1,6,-1
 74.962890625 407 l 1,7,-1
 244.962890625 407 l 1,8,-1
 290.90625 606 l 1,9,-1
 465.90625 606 l 1,10,-1
 419.962890625 407 l 1,11,-1
 588.962890625 407 l 1,0,-1
EndSplineSet
Substitution2: "'sups' Superscript lookup 15 subtable" uni207A
Substitution2: "'subs' Subscript lookup 14 subtable" uni208A
Substitution2: "'sinf' Scientific Inferiors lookup 13 subtable" uni208A
AlternateSubs2: "'aalt' Access All Alternates lookup 1 subtable" uni208A uni207A
EndChar

StartChar: comma
Encoding: 44 44 15
Width: 306
GlyphClass: 2
Flags: W
LayerCount: 2
Fore
SplineSet
134.55859375 206 m 0,0,1
 199.55859375 206 199.55859375 206 222.362304688 164 c 128,-1,2
 245.166015625 122 245.166015625 122 230.159179688 57 c 0,3,4
 213.075195312 -17 213.075195312 -17 158.454101562 -76 c 128,-1,5
 103.833007812 -135 103.833007812 -135 19.67578125 -166 c 1,6,-1
 -63.0107421875 -104 l 1,7,8
 61.8408203125 -57 61.8408203125 -57 104.384765625 6 c 1,9,-1
 100.30859375 10 l 1,10,11
 84.076171875 -4 84.076171875 -4 65.076171875 -4 c 0,12,13
 24.076171875 -4 24.076171875 -4 -0.5361328125 21.5 c 128,-1,14
 -25.1494140625 47 -25.1494140625 47 -14.0673828125 95 c 0,15,16
 -1.138671875 151 -1.138671875 151 37.7099609375 178.5 c 128,-1,17
 76.55859375 206 76.55859375 206 134.55859375 206 c 0,0,1
EndSplineSet
Substitution2: "'tnum' Tabular Numbers lookup 26 subtable" comma.tf
Substitution2: "'sups' Superscript lookup 15 subtable" commasuperior
Substitution2: "'subs' Subscript lookup 14 subtable" commainferior
Substitution2: "'sinf' Scientific Inferiors lookup 13 subtable" commainferior
AlternateSubs2: "'aalt' Access All Alternates lookup 1 subtable" commainferior commasuperior comma.tf
EndChar

StartChar: hyphen
Encoding: 45 45 16
Width: 540
GlyphClass: 2
Flags: W
LayerCount: 2
Fore
SplineSet
483.881835938 359 m 1,0,-1
 443.479492188 184 l 1,1,-1
 53.4794921875 184 l 1,2,-1
 93.8818359375 359 l 1,3,-1
 483.881835938 359 l 1,0,-1
EndSplineSet
Substitution2: "'case' Case-Sensitive Forms lookup 29 subtable" hyphen.case
Substitution2: "'sups' Superscript lookup 15 subtable" hyphensuperior
Substitution2: "'subs' Subscript lookup 14 subtable" hypheninferior
Substitution2: "'sinf' Scientific Inferiors lookup 13 subtable" hypheninferior
AlternateSubs2: "'aalt' Access All Alternates lookup 1 subtable" hypheninferior hyphensuperior hyphen.case
EndChar

StartChar: period
Encoding: 46 46 17
Width: 302
GlyphClass: 2
Flags: W
LayerCount: 2
Fore
SplineSet
134.55859375 206 m 128,-1,1
 193.55859375 206 193.55859375 206 219.094726562 178 c 128,-1,2
 244.629882812 150 244.629882812 150 232.85546875 99 c 128,-1,3
 221.08203125 48 221.08203125 48 182.6171875 20 c 128,-1,4
 144.153320312 -8 144.153320312 -8 85.1533203125 -8 c 128,-1,5
 26.1533203125 -8 26.1533203125 -8 0.6171875 20 c 128,-1,6
 -24.91796875 48 -24.91796875 48 -13.14453125 99 c 128,-1,7
 -1.3701171875 150 -1.3701171875 150 37.0947265625 178 c 128,-1,0
 75.55859375 206 75.55859375 206 134.55859375 206 c 128,-1,1
EndSplineSet
Substitution2: "'tnum' Tabular Numbers lookup 26 subtable" period.tf
Substitution2: "'sups' Superscript lookup 15 subtable" periodsuperior
Substitution2: "'subs' Subscript lookup 14 subtable" periodinferior
Substitution2: "'sinf' Scientific Inferiors lookup 13 subtable" periodinferior
AlternateSubs2: "'aalt' Access All Alternates lookup 1 subtable" periodinferior periodsuperior period.tf
EndChar

StartChar: slash
Encoding: 47 47 18
Width: 488
GlyphClass: 2
Flags: W
LayerCount: 2
Fore
SplineSet
579.607421875 700 m 1,0,-1
 138.838867188 -70 l 1,1,-1
 -74.1611328125 -70 l 1,2,-1
 366.607421875 700 l 1,3,-1
 579.607421875 700 l 1,0,-1
EndSplineSet
Substitution2: "'frac' Diagonal Fractions lookup 18 subtable" fraction
Substitution2: "'aalt' Access All Alternates lookup 0 subtable" fraction
EndChar

StartChar: zero
Encoding: 48 48 19
Width: 604
GlyphClass: 2
Flags: W
LayerCount: 2
Fore
SplineSet
235.69140625 -10 m 128,-1,1
 -42.30859375 -10 -42.30859375 -10 36.1865234375 330 c 128,-1,2
 114.681640625 670 114.681640625 670 392.681640625 670 c 128,-1,3
 670.681640625 670 670.681640625 670 592.186523438 330 c 128,-1,0
 513.69140625 -10 513.69140625 -10 235.69140625 -10 c 128,-1,1
276.092773438 165 m 128,-1,5
 308.092773438 165 308.092773438 165 326.711914062 198 c 128,-1,6
 345.330078125 231 345.330078125 231 368.186523438 330 c 128,-1,7
 391.041992188 429 391.041992188 429 387.661132812 462 c 128,-1,8
 384.279296875 495 384.279296875 495 352.279296875 495 c 128,-1,9
 320.279296875 495 320.279296875 495 301.661132812 462 c 128,-1,10
 283.041992188 429 283.041992188 429 260.186523438 330 c 128,-1,11
 237.330078125 231 237.330078125 231 240.711914062 198 c 128,-1,4
 244.092773438 165 244.092773438 165 276.092773438 165 c 128,-1,5
EndSplineSet
Substitution2: "'zero' Slashed Zero lookup 28 subtable" zero.zero
Substitution2: "'onum' Oldstyle Figures lookup 27 subtable" zero.osf
Substitution2: "'tnum' Tabular Numbers lookup 26 subtable" zero.tf
Substitution2: "'frac' Diagonal Fractions lookup 19 subtable" zero.numr
Substitution2: "'dnom' Denominators lookup 17 subtable" zero.dnom
Substitution2: "'numr' Numerators lookup 16 subtable" zero.numr
Substitution2: "'sups' Superscript lookup 15 subtable" uni2070
Substitution2: "'subs' Subscript lookup 14 subtable" uni2080
Substitution2: "'sinf' Scientific Inferiors lookup 13 subtable" uni2080
Substitution2: "'smcp' Lowercase to Small Capitals lookup 12 subtable" zero.sc
Substitution2: "'c2sc' Capitals to Small Capitals lookup 11 subtable" zero.sc
AlternateSubs2: "'aalt' Access All Alternates lookup 1 subtable" zero.sc uni2080 uni2070 zero.numr zero.dnom zero.tf zero.osf zero.zero
EndChar

StartChar: one
Encoding: 49 49 20
Width: 604
GlyphClass: 2
Flags: W
LayerCount: 2
Fore
SplineSet
408.016601562 169 m 1,0,-1
 549.016601562 169 l 1,1,-1
 510 0 l 1,2,-1
 -6 0 l 1,3,-1
 33.0166015625 169 l 1,4,-1
 198.016601562 169 l 1,5,-1
 263.814453125 454 l 1,6,7
 170.883789062 385 170.883789062 385 90.7294921875 380 c 1,8,-1
 117.901367188 554 l 1,9,10
 181.286132812 560 181.286132812 560 244.05859375 591.5 c 128,-1,11
 306.831054688 623 306.831054688 623 340.373046875 660 c 1,12,-1
 521.373046875 660 l 1,13,-1
 408.016601562 169 l 1,0,-1
EndSplineSet
Substitution2: "'onum' Oldstyle Figures lookup 27 subtable" one.osf
Substitution2: "'tnum' Tabular Numbers lookup 26 subtable" one.tf
Substitution2: "'nalt' Alternate Annotation Forms lookup 23 subtable" uni2780
Substitution2: "'frac' Diagonal Fractions lookup 19 subtable" one.numr
Substitution2: "'dnom' Denominators lookup 17 subtable" one.dnom
Substitution2: "'numr' Numerators lookup 16 subtable" one.numr
Substitution2: "'sups' Superscript lookup 15 subtable" uni00B9
Substitution2: "'subs' Subscript lookup 14 subtable" uni2081
Substitution2: "'sinf' Scientific Inferiors lookup 13 subtable" uni2081
Substitution2: "'smcp' Lowercase to Small Capitals lookup 12 subtable" one.sc
Substitution2: "'c2sc' Capitals to Small Capitals lookup 11 subtable" one.sc
AlternateSubs2: "'aalt' Access All Alternates lookup 1 subtable" one.sc uni2081 uni00B9 one.numr one.dnom uni2780 one.tf one.osf
EndChar

StartChar: two
Encoding: 50 50 21
Width: 604
GlyphClass: 2
Flags: W
LayerCount: 2
Fore
SplineSet
-23 0 m 1,0,-1
 9.3212890625 140 l 1,1,2
 170.8671875 216 170.8671875 216 264.606445312 295 c 128,-1,3
 358.344726562 374 358.344726562 374 372.427734375 435 c 0,4,5
 386.279296875 495 386.279296875 495 332.279296875 495 c 0,6,7
 264.279296875 495 264.279296875 495 241.268554688 378 c 1,8,-1
 53.349609375 426 l 1,9,10
 70.0498046875 507 70.0498046875 507 120.478515625 563 c 128,-1,11
 170.907226562 619 170.907226562 619 239.294921875 644.5 c 128,-1,12
 307.681640625 670 307.681640625 670 388.681640625 670 c 0,13,14
 460.681640625 670 460.681640625 670 509.94921875 649.5 c 128,-1,15
 559.215820312 629 559.215820312 629 581.09765625 596 c 128,-1,16
 602.978515625 563 602.978515625 563 608.66796875 527 c 128,-1,17
 614.356445312 491 614.356445312 491 606.044921875 455 c 0,18,19
 567.028320312 286 567.028320312 286 283.092773438 165 c 1,20,-1
 282.631835938 163 l 1,21,22
 346.016601562 169 346.016601562 169 441.016601562 169 c 2,23,-1
 544.016601562 169 l 1,24,-1
 505 0 l 1,25,-1
 -23 0 l 1,0,-1
EndSplineSet
Substitution2: "'onum' Oldstyle Figures lookup 27 subtable" two.osf
Substitution2: "'tnum' Tabular Numbers lookup 26 subtable" two.tf
Substitution2: "'nalt' Alternate Annotation Forms lookup 23 subtable" uni2781
Substitution2: "'frac' Diagonal Fractions lookup 19 subtable" two.numr
Substitution2: "'dnom' Denominators lookup 17 subtable" two.dnom
Substitution2: "'numr' Numerators lookup 16 subtable" two.numr
Substitution2: "'sups' Superscript lookup 15 subtable" uni00B2
Substitution2: "'subs' Subscript lookup 14 subtable" uni2082
Substitution2: "'sinf' Scientific Inferiors lookup 13 subtable" uni2082
Substitution2: "'smcp' Lowercase to Small Capitals lookup 12 subtable" two.sc
Substitution2: "'c2sc' Capitals to Small Capitals lookup 11 subtable" two.sc
AlternateSubs2: "'aalt' Access All Alternates lookup 1 subtable" two.sc uni2082 uni00B2 two.numr two.dnom uni2781 two.tf two.osf
EndChar

StartChar: three
Encoding: 51 51 22
Width: 604
GlyphClass: 2
Flags: W
LayerCount: 2
Fore
SplineSet
399.681640625 670 m 0,0,1
 518.681640625 670 518.681640625 670 572.638671875 620 c 128,-1,2
 626.594726562 570 626.594726562 570 604.893554688 476 c 0,3,4
 595.197265625 434 595.197265625 434 572.040039062 403 c 128,-1,5
 548.8828125 372 548.8828125 372 522.150390625 358 c 128,-1,6
 495.418945312 344 495.418945312 344 477.033203125 338 c 128,-1,7
 458.6484375 332 458.6484375 332 447.6484375 332 c 1,8,-1
 446.724609375 328 l 1,9,10
 456.724609375 328 456.724609375 328 468.87890625 326.5 c 128,-1,11
 481.032226562 325 481.032226562 325 500.569335938 316.5 c 128,-1,12
 520.107421875 308 520.107421875 308 533.259765625 293.5 c 128,-1,13
 546.412109375 279 546.412109375 279 552.216796875 250 c 128,-1,14
 558.021484375 221 558.021484375 221 549.017578125 182 c 0,15,16
 528.932617188 95 528.932617188 95 440.811523438 42.5 c 128,-1,17
 352.69140625 -10 352.69140625 -10 237.69140625 -10 c 0,18,19
 116.69140625 -10 116.69140625 -10 57.580078125 28.5 c 128,-1,20
 -1.5322265625 67 -1.5322265625 67 -5.5224609375 158 c 1,21,-1
 219.100585938 243 l 1,22,23
 205.788085938 194 205.788085938 194 219.979492188 177.5 c 128,-1,24
 234.169921875 161 234.169921875 161 266.169921875 161 c 0,25,26
 290.169921875 161 290.169921875 161 309.90234375 175 c 128,-1,27
 329.633789062 189 329.633789062 189 334.63671875 215 c 0,28,29
 344.025390625 260 344.025390625 260 287.025390625 260 c 2,30,-1
 243.025390625 260 l 1,31,-1
 273.5 392 l 1,32,-1
 305.5 392 l 2,33,34
 362.5 392 362.5 392 374.966796875 446 c 0,35,36
 380.5078125 470 380.5078125 470 370.35546875 484.5 c 128,-1,37
 360.203125 499 360.203125 499 340.203125 499 c 0,38,39
 275.203125 499 275.203125 499 261.272460938 417 c 1,40,-1
 77.5859375 479 l 1,41,42
 142.681640625 670 142.681640625 670 399.681640625 670 c 0,0,1
EndSplineSet
Substitution2: "'onum' Oldstyle Figures lookup 27 subtable" three.osf
Substitution2: "'tnum' Tabular Numbers lookup 26 subtable" three.tf
Substitution2: "'nalt' Alternate Annotation Forms lookup 23 subtable" uni2782
Substitution2: "'frac' Diagonal Fractions lookup 19 subtable" three.numr
Substitution2: "'dnom' Denominators lookup 17 subtable" three.dnom
Substitution2: "'numr' Numerators lookup 16 subtable" three.numr
Substitution2: "'sups' Superscript lookup 15 subtable" uni00B3
Substitution2: "'subs' Subscript lookup 14 subtable" uni2083
Substitution2: "'sinf' Scientific Inferiors lookup 13 subtable" uni2083
Substitution2: "'smcp' Lowercase to Small Capitals lookup 12 subtable" three.sc
Substitution2: "'c2sc' Capitals to Small Capitals lookup 11 subtable" three.sc
AlternateSubs2: "'aalt' Access All Alternates lookup 1 subtable" three.sc uni2083 uni00B3 three.numr three.dnom uni2782 three.tf three.osf
EndChar

StartChar: four
Encoding: 52 52 23
Width: 604
GlyphClass: 2
Flags: W
LayerCount: 2
Fore
SplineSet
240 0 m 1,0,-1
 269.08984375 126 l 1,1,-1
 -9.91015625 126 l 1,2,-1
 12.2529296875 222 l 1,3,-1
 328.373046875 660 l 1,4,-1
 592.373046875 660 l 1,5,-1
 503.950195312 277 l 1,6,-1
 594.950195312 277 l 1,7,-1
 560.08984375 126 l 1,8,-1
 469.08984375 126 l 1,9,-1
 440 0 l 1,10,-1
 240 0 l 1,0,-1
210.950195312 277 m 1,11,-1
 312.950195312 277 l 1,12,-1
 327.033203125 338 l 2,13,14
 340.885742188 398 340.885742188 398 371.666015625 514 c 1,15,-1
 368.666015625 514 l 1,16,17
 357.586914062 492 357.586914062 492 326.505859375 444 c 2,18,-1
 210.950195312 277 l 1,11,-1
EndSplineSet
Substitution2: "'onum' Oldstyle Figures lookup 27 subtable" four.osf
Substitution2: "'tnum' Tabular Numbers lookup 26 subtable" four.tf
Substitution2: "'nalt' Alternate Annotation Forms lookup 23 subtable" uni2783
Substitution2: "'frac' Diagonal Fractions lookup 19 subtable" four.numr
Substitution2: "'dnom' Denominators lookup 17 subtable" four.dnom
Substitution2: "'numr' Numerators lookup 16 subtable" four.numr
Substitution2: "'sups' Superscript lookup 15 subtable" uni2074
Substitution2: "'subs' Subscript lookup 14 subtable" uni2084
Substitution2: "'sinf' Scientific Inferiors lookup 13 subtable" uni2084
Substitution2: "'smcp' Lowercase to Small Capitals lookup 12 subtable" four.sc
Substitution2: "'c2sc' Capitals to Small Capitals lookup 11 subtable" four.sc
AlternateSubs2: "'aalt' Access All Alternates lookup 1 subtable" four.sc uni2084 uni2074 four.numr four.dnom uni2783 four.tf four.osf
EndChar

StartChar: five
Encoding: 53 53 24
Width: 604
GlyphClass: 2
Flags: W
LayerCount: 2
Fore
SplineSet
400.811523438 428 m 0,0,1
 497.811523438 428 497.811523438 428 539.959960938 374.5 c 128,-1,2
 582.108398438 321 582.108398438 321 562.485351562 236 c 128,-1,3
 542.861328125 151 542.861328125 151 488.701171875 94 c 128,-1,4
 434.541992188 37 434.541992188 37 368.6171875 13.5 c 128,-1,5
 302.69140625 -10 302.69140625 -10 228.69140625 -10 c 0,6,7
 134.69140625 -10 134.69140625 -10 74.078125 15.5 c 128,-1,8
 13.4658203125 41 13.4658203125 41 -20.8349609375 109 c 1,9,-1
 205.9453125 225 l 1,10,11
 202.633789062 189 202.633789062 189 215.825195312 172.5 c 128,-1,12
 229.015625 156 229.015625 156 270.015625 156 c 0,13,14
 341.015625 156 341.015625 156 355.791015625 220 c 0,15,16
 369.643554688 280 369.643554688 280 295.643554688 280 c 0,17,18
 244.643554688 280 244.643554688 280 213.333007812 257 c 1,19,-1
 50.720703125 289 l 1,20,-1
 180.373046875 660 l 1,21,-1
 619.373046875 660 l 1,22,-1
 579.89453125 489 l 1,23,-1
 303.89453125 489 l 1,24,-1
 279.1953125 421 l 2,25,26
 273.501953125 405 273.501953125 405 264.115234375 386 c 1,27,-1
 265.115234375 386 l 1,28,29
 309.811523438 428 309.811523438 428 400.811523438 428 c 0,0,1
EndSplineSet
Substitution2: "'onum' Oldstyle Figures lookup 27 subtable" five.osf
Substitution2: "'tnum' Tabular Numbers lookup 26 subtable" five.tf
Substitution2: "'nalt' Alternate Annotation Forms lookup 23 subtable" uni2784
Substitution2: "'frac' Diagonal Fractions lookup 19 subtable" five.numr
Substitution2: "'dnom' Denominators lookup 17 subtable" five.dnom
Substitution2: "'numr' Numerators lookup 16 subtable" five.numr
Substitution2: "'sups' Superscript lookup 15 subtable" uni2075
Substitution2: "'subs' Subscript lookup 14 subtable" uni2085
Substitution2: "'sinf' Scientific Inferiors lookup 13 subtable" uni2085
Substitution2: "'smcp' Lowercase to Small Capitals lookup 12 subtable" five.sc
Substitution2: "'c2sc' Capitals to Small Capitals lookup 11 subtable" five.sc
AlternateSubs2: "'aalt' Access All Alternates lookup 1 subtable" five.sc uni2085 uni2075 five.numr five.dnom uni2784 five.tf five.osf
EndChar

StartChar: six
Encoding: 54 54 25
Width: 604
GlyphClass: 2
Flags: W
LayerCount: 2
Fore
SplineSet
424.681640625 670 m 0,0,1
 616.681640625 670 616.681640625 670 634.8203125 519 c 1,2,-1
 428.735351562 432 l 1,3,4
 431.818359375 493 431.818359375 493 370.818359375 493 c 0,5,6
 334.818359375 493 334.818359375 493 306.19921875 460 c 128,-1,7
 277.581054688 427 277.581054688 427 261.881835938 359 c 2,8,-1
 257.95703125 342 l 1,9,-1
 259.95703125 342 l 1,10,11
 307.732421875 406 307.732421875 406 420.732421875 406 c 0,12,13
 506.732421875 406 506.732421875 406 548.150390625 351.5 c 128,-1,14
 589.567382812 297 589.567382812 297 568.790039062 207 c 0,15,16
 545.703125 107 545.703125 107 464.197265625 48.5 c 128,-1,17
 382.69140625 -10 382.69140625 -10 263.69140625 -10 c 0,18,19
 119.69140625 -10 119.69140625 -10 64.3154296875 75 c 128,-1,20
 8.9384765625 160 8.9384765625 160 48.1865234375 330 c 0,21,22
 88.357421875 504 88.357421875 504 188.51953125 587 c 128,-1,23
 288.681640625 670 288.681640625 670 424.681640625 670 c 0,0,1
322.1796875 265 m 128,-1,25
 266.1796875 265 266.1796875 265 253.250976562 209 c 128,-1,26
 240.323242188 153 240.323242188 153 296.323242188 153 c 128,-1,27
 352.323242188 153 352.323242188 153 365.250976562 209 c 128,-1,24
 378.1796875 265 378.1796875 265 322.1796875 265 c 128,-1,25
EndSplineSet
Substitution2: "'onum' Oldstyle Figures lookup 27 subtable" six.osf
Substitution2: "'tnum' Tabular Numbers lookup 26 subtable" six.tf
Substitution2: "'nalt' Alternate Annotation Forms lookup 23 subtable" uni2785
Substitution2: "'frac' Diagonal Fractions lookup 19 subtable" six.numr
Substitution2: "'dnom' Denominators lookup 17 subtable" six.dnom
Substitution2: "'numr' Numerators lookup 16 subtable" six.numr
Substitution2: "'sups' Superscript lookup 15 subtable" uni2076
Substitution2: "'subs' Subscript lookup 14 subtable" uni2086
Substitution2: "'sinf' Scientific Inferiors lookup 13 subtable" uni2086
Substitution2: "'smcp' Lowercase to Small Capitals lookup 12 subtable" six.sc
Substitution2: "'c2sc' Capitals to Small Capitals lookup 11 subtable" six.sc
AlternateSubs2: "'aalt' Access All Alternates lookup 1 subtable" six.sc uni2086 uni2076 six.numr six.dnom uni2785 six.tf six.osf
EndChar

StartChar: seven
Encoding: 55 55 26
Width: 604
GlyphClass: 2
Flags: W
LayerCount: 2
Fore
SplineSet
116.373046875 660 m 1,0,-1
 661.373046875 660 l 1,1,-1
 625.819335938 506 l 1,2,3
 487.345703125 387 487.345703125 387 428.143554688 286.5 c 128,-1,4
 368.94140625 186 368.94140625 186 326 0 c 1,5,-1
 95 0 l 1,6,7
 130.784179688 155 130.784179688 155 205.873046875 268 c 128,-1,8
 280.9609375 381 280.9609375 381 410.970703125 485 c 1,9,-1
 75.970703125 485 l 1,10,-1
 116.373046875 660 l 1,0,-1
EndSplineSet
Substitution2: "'onum' Oldstyle Figures lookup 27 subtable" seven.osf
Substitution2: "'tnum' Tabular Numbers lookup 26 subtable" seven.tf
Substitution2: "'nalt' Alternate Annotation Forms lookup 23 subtable" uni2786
Substitution2: "'frac' Diagonal Fractions lookup 19 subtable" seven.numr
Substitution2: "'dnom' Denominators lookup 17 subtable" seven.dnom
Substitution2: "'numr' Numerators lookup 16 subtable" seven.numr
Substitution2: "'sups' Superscript lookup 15 subtable" uni2077
Substitution2: "'subs' Subscript lookup 14 subtable" uni2087
Substitution2: "'sinf' Scientific Inferiors lookup 13 subtable" uni2087
Substitution2: "'smcp' Lowercase to Small Capitals lookup 12 subtable" seven.sc
Substitution2: "'c2sc' Capitals to Small Capitals lookup 11 subtable" seven.sc
AlternateSubs2: "'aalt' Access All Alternates lookup 1 subtable" seven.sc uni2087 uni2077 seven.numr seven.dnom uni2786 seven.tf seven.osf
EndChar

StartChar: eight
Encoding: 56 56 27
Width: 604
GlyphClass: 2
Flags: W
LayerCount: 2
Fore
SplineSet
391.989257812 667 m 128,-1,1
 512.989257812 667 512.989257812 667 570.099609375 615.5 c 128,-1,2
 627.209960938 564 627.209960938 564 606.431640625 474 c 0,3,4
 583.114257812 373 583.114257812 373 466.416992188 331 c 1,5,-1
 466.186523438 330 l 1,6,7
 575.952148438 290 575.952148438 290 551.249023438 183 c 0,8,9
 530.008789062 91 530.008789062 91 447.350585938 40.5 c 128,-1,10
 364.69140625 -10 364.69140625 -10 235.69140625 -10 c 128,-1,11
 106.69140625 -10 106.69140625 -10 47.3505859375 40.5 c 128,-1,12
 -11.9912109375 91 -11.9912109375 91 9.2490234375 183 c 0,13,14
 33.9521484375 290 33.9521484375 290 162.186523438 330 c 1,15,-1
 162.416992188 331 l 1,16,17
 116.803710938 350 116.803710938 350 96.845703125 387 c 128,-1,18
 76.8876953125 424 76.8876953125 424 88.431640625 474 c 0,19,20
 109.209960938 564 109.209960938 564 190.099609375 615.5 c 128,-1,0
 270.989257812 667 270.989257812 667 391.989257812 667 c 128,-1,1
355.973632812 511 m 128,-1,22
 295.973632812 511 295.973632812 511 283.044921875 455 c 128,-1,23
 270.116210938 399 270.116210938 399 330.116210938 399 c 128,-1,24
 390.116210938 399 390.116210938 399 403.044921875 455 c 128,-1,21
 415.973632812 511 415.973632812 511 355.973632812 511 c 128,-1,22
272.70703125 146 m 128,-1,26
 332.70703125 146 332.70703125 146 345.635742188 202 c 128,-1,27
 358.564453125 258 358.564453125 258 298.564453125 258 c 128,-1,28
 238.564453125 258 238.564453125 258 225.635742188 202 c 128,-1,25
 212.70703125 146 212.70703125 146 272.70703125 146 c 128,-1,26
EndSplineSet
Substitution2: "'onum' Oldstyle Figures lookup 27 subtable" eight.osf
Substitution2: "'tnum' Tabular Numbers lookup 26 subtable" eight.tf
Substitution2: "'nalt' Alternate Annotation Forms lookup 23 subtable" uni2787
Substitution2: "'frac' Diagonal Fractions lookup 19 subtable" eight.numr
Substitution2: "'dnom' Denominators lookup 17 subtable" eight.dnom
Substitution2: "'numr' Numerators lookup 16 subtable" eight.numr
Substitution2: "'sups' Superscript lookup 15 subtable" uni2078
Substitution2: "'subs' Subscript lookup 14 subtable" uni2088
Substitution2: "'sinf' Scientific Inferiors lookup 13 subtable" uni2088
Substitution2: "'smcp' Lowercase to Small Capitals lookup 12 subtable" eight.sc
Substitution2: "'c2sc' Capitals to Small Capitals lookup 11 subtable" eight.sc
AlternateSubs2: "'aalt' Access All Alternates lookup 1 subtable" eight.sc uni2088 uni2078 eight.numr eight.dnom uni2787 eight.tf eight.osf
EndChar

StartChar: nine
Encoding: 57 57 28
Width: 604
GlyphClass: 2
Flags: W
LayerCount: 2
Fore
SplineSet
382.681640625 670 m 0,0,1
 664.681640625 670 664.681640625 670 584.801757812 324 c 0,2,3
 543.475585938 145 543.475585938 145 453.583984375 67.5 c 128,-1,4
 363.69140625 -10 363.69140625 -10 219.69140625 -10 c 0,5,6
 24.69140625 -10 24.69140625 -10 -0.755859375 131 c 1,7,-1
 224.096679688 204 l 1,8,9
 221.24609375 157 221.24609375 157 270.24609375 157 c 0,10,11
 341.24609375 157 341.24609375 157 368.2578125 274 c 2,12,-1
 373.106445312 295 l 1,13,-1
 370.106445312 295 l 1,14,15
 326.485351562 236 326.485351562 236 223.561523438 232 c 0,16,17
 130.637695312 228 130.637695312 228 84.56640625 284 c 128,-1,18
 38.4951171875 340 38.4951171875 340 61.58203125 440 c 0,19,20
 86.28515625 547 86.28515625 547 170.983398438 608.5 c 128,-1,21
 255.681640625 670 255.681640625 670 382.681640625 670 c 0,0,1
337.741210938 497 m 128,-1,23
 281.741210938 497 281.741210938 497 268.8125 441 c 128,-1,24
 255.883789062 385 255.883789062 385 311.883789062 385 c 128,-1,25
 367.883789062 385 367.883789062 385 380.8125 441 c 128,-1,22
 393.741210938 497 393.741210938 497 337.741210938 497 c 128,-1,23
EndSplineSet
Substitution2: "'onum' Oldstyle Figures lookup 27 subtable" nine.osf
Substitution2: "'tnum' Tabular Numbers lookup 26 subtable" nine.tf
Substitution2: "'nalt' Alternate Annotation Forms lookup 23 subtable" uni2788
Substitution2: "'frac' Diagonal Fractions lookup 19 subtable" nine.numr
Substitution2: "'dnom' Denominators lookup 17 subtable" nine.dnom
Substitution2: "'numr' Numerators lookup 16 subtable" nine.numr
Substitution2: "'sups' Superscript lookup 15 subtable" uni2079
Substitution2: "'subs' Subscript lookup 14 subtable" uni2089
Substitution2: "'sinf' Scientific Inferiors lookup 13 subtable" uni2089
Substitution2: "'smcp' Lowercase to Small Capitals lookup 12 subtable" nine.sc
Substitution2: "'c2sc' Capitals to Small Capitals lookup 11 subtable" nine.sc
AlternateSubs2: "'aalt' Access All Alternates lookup 1 subtable" nine.sc uni2089 uni2079 nine.numr nine.dnom uni2788 nine.tf nine.osf
EndChar

StartChar: colon
Encoding: 58 58 29
Width: 302
GlyphClass: 2
Flags: W
LayerCount: 2
Fore
SplineSet
204.743164062 510 m 128,-1,1
 263.743164062 510 263.743164062 510 289.278320312 482 c 128,-1,2
 314.814453125 454 314.814453125 454 303.040039062 403 c 128,-1,3
 291.265625 352 291.265625 352 252.801757812 324 c 128,-1,4
 214.336914062 296 214.336914062 296 155.336914062 296 c 128,-1,5
 96.3369140625 296 96.3369140625 296 70.8017578125 324 c 128,-1,6
 45.265625 352 45.265625 352 57.0400390625 403 c 128,-1,7
 68.814453125 454 68.814453125 454 107.278320312 482 c 128,-1,0
 145.743164062 510 145.743164062 510 204.743164062 510 c 128,-1,1
134.55859375 206 m 128,-1,9
 193.55859375 206 193.55859375 206 219.094726562 178 c 128,-1,10
 244.629882812 150 244.629882812 150 232.85546875 99 c 128,-1,11
 221.08203125 48 221.08203125 48 182.6171875 20 c 128,-1,12
 144.153320312 -8 144.153320312 -8 85.1533203125 -8 c 128,-1,13
 26.1533203125 -8 26.1533203125 -8 0.6171875 20 c 128,-1,14
 -24.91796875 48 -24.91796875 48 -13.14453125 99 c 128,-1,15
 -1.3701171875 150 -1.3701171875 150 37.0947265625 178 c 128,-1,8
 75.55859375 206 75.55859375 206 134.55859375 206 c 128,-1,9
EndSplineSet
Substitution2: "'tnum' Tabular Numbers lookup 26 subtable" colon.tf
Substitution2: "'sups' Superscript lookup 15 subtable" colonsuperior
Substitution2: "'subs' Subscript lookup 14 subtable" coloninferior
Substitution2: "'sinf' Scientific Inferiors lookup 13 subtable" coloninferior
AlternateSubs2: "'aalt' Access All Alternates lookup 1 subtable" coloninferior colonsuperior colon.tf
EndChar

StartChar: semicolon
Encoding: 59 59 30
Width: 302
GlyphClass: 2
Flags: W
LayerCount: 2
Fore
SplineSet
156.336914062 296 m 128,-1,1
 97.3369140625 296 97.3369140625 296 71.8017578125 324 c 128,-1,2
 46.265625 352 46.265625 352 58.0400390625 403 c 128,-1,3
 69.814453125 454 69.814453125 454 108.278320312 482 c 128,-1,4
 146.743164062 510 146.743164062 510 205.743164062 510 c 128,-1,5
 264.743164062 510 264.743164062 510 290.278320312 482 c 128,-1,6
 315.814453125 454 315.814453125 454 304.040039062 403 c 128,-1,7
 292.265625 352 292.265625 352 253.801757812 324 c 128,-1,0
 215.336914062 296 215.336914062 296 156.336914062 296 c 128,-1,1
132.55859375 206 m 0,8,9
 197.55859375 206 197.55859375 206 220.362304688 164 c 128,-1,10
 243.166015625 122 243.166015625 122 228.159179688 57 c 0,11,12
 211.075195312 -17 211.075195312 -17 156.454101562 -76 c 128,-1,13
 101.833007812 -135 101.833007812 -135 17.67578125 -166 c 1,14,-1
 -65.0107421875 -104 l 1,15,16
 59.8408203125 -57 59.8408203125 -57 102.384765625 6 c 1,17,-1
 98.30859375 10 l 1,18,19
 82.076171875 -4 82.076171875 -4 63.076171875 -4 c 0,20,21
 22.076171875 -4 22.076171875 -4 -2.5361328125 21.5 c 128,-1,22
 -27.1494140625 47 -27.1494140625 47 -16.0673828125 95 c 0,23,24
 -3.138671875 151 -3.138671875 151 35.7099609375 178.5 c 128,-1,25
 74.55859375 206 74.55859375 206 132.55859375 206 c 0,8,9
EndSplineSet
Substitution2: "'tnum' Tabular Numbers lookup 26 subtable" semicolon.tf
Substitution2: "'aalt' Access All Alternates lookup 0 subtable" semicolon.tf
EndChar

StartChar: less
Encoding: 60 60 31
Width: 604
GlyphClass: 2
Flags: W
LayerCount: 2
Fore
SplineSet
631.290039062 599 m 1,0,-1
 582.115234375 386 l 1,1,-1
 239.106445312 295 l 1,2,-1
 539.866210938 203 l 1,3,-1
 490.69140625 -10 l 1,4,-1
 39.8662109375 203 l 1,5,-1
 82.115234375 386 l 1,6,-1
 631.290039062 599 l 1,0,-1
EndSplineSet
EndChar

StartChar: equal
Encoding: 61 61 32
Width: 604
GlyphClass: 2
Flags: W
LayerCount: 2
Fore
SplineSet
592.973632812 511 m 1,0,-1
 559.498046875 366 l 1,1,-1
 85.498046875 366 l 1,2,-1
 118.973632812 511 l 1,3,-1
 592.973632812 511 l 1,0,-1
540.56640625 284 m 1,4,-1
 507.090820312 139 l 1,5,-1
 33.0908203125 139 l 1,6,-1
 66.56640625 284 l 1,7,-1
 540.56640625 284 l 1,4,-1
EndSplineSet
Substitution2: "'sups' Superscript lookup 15 subtable" uni207C
Substitution2: "'subs' Subscript lookup 14 subtable" uni208C
Substitution2: "'sinf' Scientific Inferiors lookup 13 subtable" uni208C
AlternateSubs2: "'aalt' Access All Alternates lookup 1 subtable" uni208C uni207C
EndChar

StartChar: greater
Encoding: 62 62 33
Width: 604
GlyphClass: 2
Flags: W
LayerCount: 2
Fore
SplineSet
121.290039062 599 m 1,0,-1
 572.115234375 386 l 1,1,-1
 529.866210938 203 l 1,2,-1
 -19.30859375 -10 l 1,3,-1
 29.8662109375 203 l 1,4,-1
 373.106445312 295 l 1,5,-1
 72.115234375 386 l 1,6,-1
 121.290039062 599 l 1,0,-1
EndSplineSet
EndChar

StartChar: question
Encoding: 63 63 34
Width: 651
GlyphClass: 2
Flags: W
LayerCount: 2
Fore
SplineSet
421.681640625 670 m 0,0,1
 704.681640625 670 704.681640625 670 661.047851562 481 c 0,2,3
 639.345703125 387 639.345703125 387 578.803710938 343.5 c 128,-1,4
 518.260742188 300 518.260742188 300 424.952148438 290 c 1,5,-1
 391.329101562 218 l 1,6,-1
 204.329101562 218 l 1,7,-1
 223.8828125 372 l 1,8,9
 386.806640625 376 386.806640625 376 402.736328125 445 c 0,10,11
 413.125 490 413.125 490 365.125 490 c 0,12,13
 304.125 490 304.125 490 285.348632812 413 c 1,14,-1
 77.125 490 l 1,15,16
 102.826171875 571 102.826171875 571 186.25390625 620.5 c 128,-1,17
 269.681640625 670 269.681640625 670 421.681640625 670 c 0,0,1
291.7109375 185 m 128,-1,19
 347.7109375 185 347.7109375 185 372.438476562 160 c 128,-1,20
 397.166992188 135 397.166992188 135 386.546875 89 c 128,-1,21
 375.927734375 43 375.927734375 43 339.655273438 18 c 128,-1,22
 303.383789062 -7 303.383789062 -7 247.383789062 -7 c 128,-1,23
 191.383789062 -7 191.383789062 -7 166.655273438 18 c 128,-1,24
 141.927734375 43 141.927734375 43 152.546875 89 c 128,-1,25
 163.166992188 135 163.166992188 135 199.438476562 160 c 128,-1,18
 235.7109375 185 235.7109375 185 291.7109375 185 c 128,-1,19
EndSplineSet
Substitution2: "'smcp' Lowercase to Small Capitals lookup 12 subtable" question.sc
Substitution2: "'c2sc' Capitals to Small Capitals lookup 11 subtable" question.sc
Substitution2: "'aalt' Access All Alternates lookup 0 subtable" question.sc
EndChar

StartChar: at
Encoding: 64 64 35
Width: 920
GlyphClass: 2
Flags: W
LayerCount: 2
Fore
SplineSet
572.373046875 660 m 0,0,1
 750.373046875 660 750.373046875 660 836.208984375 557.5 c 128,-1,2
 922.044921875 455 922.044921875 455 877.025390625 260 c 0,3,4
 861.095703125 191 861.095703125 191 829.090820312 139 c 128,-1,5
 797.0859375 87 797.0859375 87 756.62109375 59 c 128,-1,6
 716.157226562 31 716.157226562 31 675.040039062 17.5 c 128,-1,7
 633.923828125 4 633.923828125 4 591.923828125 4 c 0,8,9
 479.923828125 4 479.923828125 4 455.392578125 84 c 1,10,11
 384.923828125 4 384.923828125 4 298.923828125 4 c 0,12,13
 224.923828125 4 224.923828125 4 195.58203125 54.5 c 128,-1,14
 166.241210938 105 166.241210938 105 184.249023438 183 c 0,15,16
 216.801757812 324 216.801757812 324 297.0390625 396.5 c 128,-1,17
 377.27734375 469 377.27734375 469 480.27734375 469 c 0,18,19
 521.27734375 469 521.27734375 469 537.466796875 446 c 128,-1,20
 553.657226562 423 553.657226562 423 550.885742188 398 c 1,21,-1
 585.506835938 457 l 1,22,-1
 754.506835938 457 l 1,23,-1
 644.171875 187 l 2,24,25
 627.013671875 143 627.013671875 143 632.58984375 126 c 128,-1,26
 638.165039062 109 638.165039062 109 670.165039062 109 c 0,27,28
 705.165039062 109 705.165039062 109 738.784179688 148.5 c 128,-1,29
 772.403320312 188 772.403320312 188 789.025390625 260 c 0,30,31
 825.733398438 419 825.733398438 419 760.125976562 496.5 c 128,-1,32
 694.518554688 574 694.518554688 574 552.518554688 574 c 0,33,34
 396.518554688 574 396.518554688 574 278.547851562 481 c 128,-1,35
 160.577148438 388 160.577148438 388 122.483398438 223 c 0,36,37
 87.853515625 73 87.853515625 73 159.306640625 -9.5 c 128,-1,38
 230.759765625 -92 230.759765625 -92 354.759765625 -92 c 0,39,40
 429.759765625 -92 429.759765625 -92 474.145507812 -79.5 c 128,-1,41
 518.532226562 -67 518.532226562 -67 558.534179688 -41 c 1,42,-1
 590.604492188 -110 l 1,43,44
 534.754882812 -144 534.754882812 -144 478.061523438 -160 c 128,-1,45
 421.3671875 -176 421.3671875 -176 330.3671875 -176 c 0,46,47
 157.3671875 -176 157.3671875 -176 69.6083984375 -71 c 128,-1,48
 -18.150390625 34 -18.150390625 34 25.4833984375 223 c 0,49,50
 70.96484375 420 70.96484375 420 224.668945312 540 c 128,-1,51
 378.373046875 660 378.373046875 660 572.373046875 660 c 0,0,1
474.032226562 325 m 0,52,53
 451.032226562 325 451.032226562 325 424.259765625 293.5 c 128,-1,54
 397.487304688 262 397.487304688 262 386.40625 214 c 0,55,56
 373.24609375 157 373.24609375 157 406.24609375 157 c 0,57,58
 435.24609375 157 435.24609375 157 445.7109375 185 c 2,59,-1
 484.258789062 287 l 2,60,61
 492.107421875 308 492.107421875 308 489.569335938 316.5 c 128,-1,62
 487.032226562 325 487.032226562 325 474.032226562 325 c 0,52,53
EndSplineSet
Substitution2: "'case' Case-Sensitive Forms lookup 29 subtable" at.case
Substitution2: "'aalt' Access All Alternates lookup 0 subtable" at.case
EndChar

StartChar: A
Encoding: 65 65 36
Width: 689
GlyphClass: 2
Flags: W
LayerCount: 2
Fore
SplineSet
397 0 m 1,0,-1
 396.08984375 126 l 1,1,-1
 218.08984375 126 l 1,2,-1
 158 0 l 1,3,-1
 -74 0 l 1,4,-1
 292.373046875 660 l 1,5,-1
 572.373046875 660 l 1,6,-1
 635 0 l 1,7,-1
 397 0 l 1,0,-1
286.565429688 271 m 1,8,-1
 395.565429688 271 l 1,9,-1
 393.356445312 491 l 1,10,-1
 390.356445312 491 l 1,11,-1
 338.499023438 379 l 1,12,-1
 286.565429688 271 l 1,8,-1
EndSplineSet
Substitution2: "Single Substitution lookup 56 subtable" A.swsh
Substitution2: "Single Substitution lookup 55 subtable" ordfeminine
Substitution2: "'swsh' Swash lookup 32 subtable" A.swsh
Substitution2: "'c2sc' Capitals to Small Capitals lookup 11 subtable" a.sc
AlternateSubs2: "'aalt' Access All Alternates lookup 1 subtable" a.sc ordfeminine A.swsh
EndChar

StartChar: B
Encoding: 66 66 37
Width: 704
GlyphClass: 2
Flags: W
LayerCount: 2
Fore
SplineSet
-14 0 m 1,0,-1
 138.373046875 660 l 1,1,-1
 516.373046875 660 l 2,2,3
 763.142578125 659 763.142578125 659 722.740234375 484 c 0,4,5
 708.657226562 423 708.657226562 423 661.806640625 382.5 c 128,-1,6
 614.95703125 342 614.95703125 342 538.6484375 332 c 1,7,-1
 538.416992188 331 l 1,8,9
 620.33984375 322 620.33984375 322 651.874023438 281 c 128,-1,10
 683.408203125 240 683.408203125 240 668.170898438 174 c 0,11,12
 628 0 628 0 390 0 c 2,13,-1
 -14 0 l 1,0,-1
302.270507812 404 m 1,14,-1
 404.270507812 404 l 2,15,16
 466.270507812 404 466.270507812 404 477.352539062 452 c 128,-1,17
 488.434570312 500 488.434570312 500 426.434570312 500 c 2,18,-1
 324.434570312 500 l 1,19,-1
 302.270507812 404 l 1,14,-1
244.091796875 152 m 1,20,-1
 363.091796875 152 l 2,21,22
 425.091796875 152 425.091796875 152 436.404296875 201 c 0,23,24
 447.254882812 248 447.254882812 248 385.254882812 248 c 2,25,-1
 266.254882812 248 l 1,26,-1
 244.091796875 152 l 1,20,-1
EndSplineSet
Substitution2: "'c2sc' Capitals to Small Capitals lookup 11 subtable" b.sc
Substitution2: "'aalt' Access All Alternates lookup 0 subtable" b.sc
EndChar

StartChar: C
Encoding: 67 67 38
Width: 677
GlyphClass: 2
Flags: W
LayerCount: 2
Fore
SplineSet
652.635742188 202 m 1,0,1
 552.69140625 -10 552.69140625 -10 298.69140625 -10 c 0,2,3
 140.69140625 -10 140.69140625 -10 72.3544921875 79.5 c 128,-1,4
 4.0166015625 169 4.0166015625 169 41.1865234375 330 c 128,-1,5
 78.3564453125 491 78.3564453125 491 188.018554688 580.5 c 128,-1,6
 297.681640625 670 297.681640625 670 455.681640625 670 c 0,7,8
 571.681640625 670 571.681640625 670 642.25390625 620.5 c 128,-1,9
 712.826171875 571 712.826171875 571 709.5078125 470 c 1,10,-1
 491.5 392 l 1,11,12
 497.583007812 453 497.583007812 453 481.431640625 474 c 128,-1,13
 465.279296875 495 465.279296875 495 421.279296875 495 c 0,14,15
 317.279296875 495 317.279296875 495 279.186523438 330 c 0,16,17
 259.5625 245 259.5625 245 275.328125 205 c 128,-1,18
 291.092773438 165 291.092773438 165 343.092773438 165 c 0,19,20
 390.092773438 165 390.092773438 165 415.94140625 186 c 128,-1,21
 441.790039062 207 441.790039062 207 458.87109375 255 c 1,22,-1
 652.635742188 202 l 1,0,1
EndSplineSet
Substitution2: "'c2sc' Capitals to Small Capitals lookup 11 subtable" c.sc
Substitution2: "'aalt' Access All Alternates lookup 0 subtable" c.sc
EndChar

StartChar: D
Encoding: 68 68 39
Width: 716
GlyphClass: 2
Flags: W
LayerCount: 2
Fore
SplineSet
462.373046875 660 m 2,0,1
 616.373046875 660 616.373046875 660 676.133789062 574.5 c 128,-1,2
 735.89453125 489 735.89453125 489 699.186523438 330 c 128,-1,3
 662.478515625 171 662.478515625 171 563.239257812 85.5 c 128,-1,4
 464 0 464 0 310 0 c 2,5,-1
 -14 0 l 1,6,-1
 138.373046875 660 l 1,7,-1
 462.373046875 660 l 2,0,1
315.32421875 166 m 2,8,9
 377.32421875 166 377.32421875 166 409.096679688 204 c 128,-1,10
 440.870117188 242 440.870117188 242 461.186523438 330 c 128,-1,11
 481.502929688 418 481.502929688 418 467.276367188 456 c 128,-1,12
 453.048828125 494 453.048828125 494 391.048828125 494 c 2,13,-1
 333.048828125 494 l 1,14,-1
 257.32421875 166 l 1,15,-1
 315.32421875 166 l 2,8,9
EndSplineSet
Substitution2: "'c2sc' Capitals to Small Capitals lookup 11 subtable" d.sc
Substitution2: "'aalt' Access All Alternates lookup 0 subtable" d.sc
EndChar

StartChar: E
Encoding: 69 69 40
Width: 626
GlyphClass: 2
Flags: W
AnchorPoint: "Anchor-0" 265 0 basechar 0
LayerCount: 2
Fore
SplineSet
258.478515625 171 m 1,0,-1
 585.478515625 171 l 1,1,-1
 546 0 l 1,2,-1
 -14 0 l 1,3,-1
 138.373046875 660 l 1,4,-1
 686.373046875 660 l 1,5,-1
 646.89453125 489 l 1,6,-1
 331.89453125 489 l 1,7,-1
 312.962890625 407 l 1,8,-1
 566.962890625 407 l 1,9,-1
 530.486328125 249 l 1,10,-1
 276.486328125 249 l 1,11,-1
 258.478515625 171 l 1,0,-1
EndSplineSet
Substitution2: "Single Substitution lookup 57 subtable" E.swsh.001
Substitution2: "Single Substitution lookup 56 subtable" E.swsh
AlternateSubs2: "'swsh' Swash lookup 33 subtable" E.swsh E.swsh.001
Substitution2: "'c2sc' Capitals to Small Capitals lookup 11 subtable" e.sc
AlternateSubs2: "'aalt' Access All Alternates lookup 1 subtable" e.sc E.swsh E.swsh.001
EndChar

StartChar: F
Encoding: 70 70 41
Width: 614
GlyphClass: 2
Flags: W
LayerCount: 2
Fore
SplineSet
645.89453125 489 m 1,0,-1
 331.89453125 489 l 1,1,-1
 310.654296875 397 l 1,2,-1
 564.654296875 397 l 1,3,-1
 525.17578125 226 l 1,4,-1
 271.17578125 226 l 1,5,-1
 219 0 l 1,6,-1
 -14 0 l 1,7,-1
 138.373046875 660 l 1,8,-1
 685.373046875 660 l 1,9,-1
 645.89453125 489 l 1,0,-1
EndSplineSet
Substitution2: "Single Substitution lookup 56 subtable" F.swsh
Substitution2: "'swsh' Swash lookup 34 subtable" F.swsh
Substitution2: "'c2sc' Capitals to Small Capitals lookup 11 subtable" f.sc
AlternateSubs2: "'aalt' Access All Alternates lookup 1 subtable" f.sc F.swsh
EndChar

StartChar: G
Encoding: 71 71 42
Width: 722
GlyphClass: 2
Flags: W
AnchorPoint: "Anchor-0" 315 0 basechar 0
LayerCount: 2
Fore
SplineSet
359.869140625 229 m 1,0,-1
 392.8828125 372 l 1,1,-1
 698.8828125 372 l 1,2,-1
 613 0 l 1,3,-1
 459 0 l 1,4,-1
 468.315429688 75 l 1,5,6
 397.69140625 -10 397.69140625 -10 269.69140625 -10 c 0,7,8
 134.69140625 -10 134.69140625 -10 69.0078125 78 c 128,-1,9
 3.32421875 166 3.32421875 166 40.724609375 328 c 128,-1,10
 78.125 490 78.125 490 189.403320312 580 c 128,-1,11
 300.681640625 670 300.681640625 670 461.681640625 670 c 0,12,13
 584.681640625 670 584.681640625 670 647.485351562 628 c 128,-1,14
 710.2890625 586 710.2890625 586 727.89453125 489 c 1,15,-1
 492.88671875 411 l 1,16,17
 499.279296875 495 499.279296875 495 429.279296875 495 c 0,18,19
 371.279296875 495 371.279296875 495 335.16015625 455.5 c 128,-1,20
 299.041015625 416 299.041015625 416 279.186523438 330 c 0,21,22
 257.946289062 238 257.946289062 238 277.827148438 198.5 c 128,-1,23
 297.708007812 159 297.708007812 159 359.708007812 159 c 0,24,25
 403.708007812 159 403.708007812 159 433.248046875 176.5 c 128,-1,26
 462.788085938 194 462.788085938 194 470.637695312 228 c 2,27,-1
 470.869140625 229 l 1,28,-1
 359.869140625 229 l 1,0,-1
EndSplineSet
Substitution2: "'ss04' Style Set 4 lookup 50 subtable" G.ss04
Substitution2: "'salt' Stylistic Alternatives lookup 42 subtable" G.ss04
Substitution2: "'c2sc' Capitals to Small Capitals lookup 11 subtable" g.sc
AlternateSubs2: "'aalt' Access All Alternates lookup 1 subtable" g.sc G.ss04
EndChar

StartChar: H
Encoding: 72 72 43
Width: 747
GlyphClass: 2
Flags: W
LayerCount: 2
Fore
SplineSet
552.373046875 660 m 1,0,-1
 785.373046875 660 l 1,1,-1
 633 0 l 1,2,-1
 400 0 l 1,3,-1
 456.793945312 246 l 1,4,-1
 275.793945312 246 l 1,5,-1
 219 0 l 1,6,-1
 -14 0 l 1,7,-1
 138.373046875 660 l 1,8,-1
 371.373046875 660 l 1,9,-1
 315.272460938 417 l 1,10,-1
 496.272460938 417 l 1,11,-1
 552.373046875 660 l 1,0,-1
EndSplineSet
Substitution2: "'sups' Superscript lookup 15 subtable" Hsuperior
Substitution2: "'subs' Subscript lookup 14 subtable" Hinferior
Substitution2: "'sinf' Scientific Inferiors lookup 13 subtable" Hinferior
Substitution2: "'c2sc' Capitals to Small Capitals lookup 11 subtable" h.sc
AlternateSubs2: "'aalt' Access All Alternates lookup 1 subtable" h.sc Hinferior Hsuperior
EndChar

StartChar: I
Encoding: 73 73 44
Width: 333
GlyphClass: 2
Flags: W
LayerCount: 2
Fore
SplineSet
371.373046875 660 m 1,0,-1
 219 0 l 1,1,-1
 -14 0 l 1,2,-1
 138.373046875 660 l 1,3,-1
 371.373046875 660 l 1,0,-1
EndSplineSet
Substitution2: "'c2sc' Capitals to Small Capitals lookup 11 subtable" i.sc
Substitution2: "'aalt' Access All Alternates lookup 0 subtable" i.sc
EndChar

StartChar: J
Encoding: 74 74 45
Width: 657
GlyphClass: 2
Flags: W
LayerCount: 2
Fore
SplineSet
710.373046875 660 m 1,0,-1
 620.795898438 272 l 2,1,2
 589.62890625 137 589.62890625 137 490.66015625 63.5 c 128,-1,3
 391.69140625 -10 391.69140625 -10 241.69140625 -10 c 0,4,5
 75.69140625 -10 75.69140625 -10 26.1220703125 72 c 128,-1,6
 -23.4462890625 154 -23.4462890625 154 31.9521484375 290 c 1,7,-1
 273.956054688 329 l 1,8,9
 240.946289062 238 240.946289062 238 247.51953125 201.5 c 128,-1,10
 254.092773438 165 254.092773438 165 297.092773438 165 c 0,11,12
 331.092773438 165 331.092773438 165 353.904296875 194.5 c 128,-1,13
 376.71484375 224 376.71484375 224 391.720703125 289 c 2,14,-1
 477.373046875 660 l 1,15,-1
 710.373046875 660 l 1,0,-1
EndSplineSet
Substitution2: "'c2sc' Capitals to Small Capitals lookup 11 subtable" j.sc
Substitution2: "'aalt' Access All Alternates lookup 0 subtable" j.sc
EndChar

StartChar: K
Encoding: 75 75 46
Width: 717
GlyphClass: 2
Flags: W
AnchorPoint: "Anchor-0" 292 0 basechar 0
LayerCount: 2
Fore
SplineSet
396 0 m 1,0,-1
 330.024414062 247 l 1,1,-1
 258.940429688 173 l 1,2,-1
 219 0 l 1,3,-1
 -14 0 l 1,4,-1
 138.373046875 660 l 1,5,-1
 371.373046875 660 l 1,6,-1
 314.579101562 414 l 1,7,-1
 543.373046875 660 l 1,8,-1
 791.373046875 660 l 1,9,-1
 528.885742188 398 l 1,10,-1
 657 0 l 1,11,-1
 396 0 l 1,0,-1
EndSplineSet
Substitution2: "'c2sc' Capitals to Small Capitals lookup 11 subtable" k.sc
Substitution2: "'aalt' Access All Alternates lookup 0 subtable" k.sc
EndChar

StartChar: L
Encoding: 76 76 47
Width: 605
GlyphClass: 2
Flags: W
AnchorPoint: "Anchor-0" 254 0 basechar 0
LayerCount: 2
Fore
SplineSet
258.478515625 171 m 1,0,-1
 557.478515625 171 l 1,1,-1
 518 0 l 1,2,-1
 -14 0 l 1,3,-1
 138.373046875 660 l 1,4,-1
 371.373046875 660 l 1,5,-1
 258.478515625 171 l 1,0,-1
EndSplineSet
Substitution2: "Single Substitution lookup 57 subtable" L.swsh
Substitution2: "'swsh' Swash lookup 34 subtable" L.swsh
Substitution2: "'c2sc' Capitals to Small Capitals lookup 11 subtable" l.sc
AlternateSubs2: "'aalt' Access All Alternates lookup 1 subtable" l.sc L.swsh
Position2: "Single Positioning lookup 6 subtable" dx=0 dy=0 dh=-152 dv=0
EndChar

StartChar: M
Encoding: 77 77 48
Width: 948
GlyphClass: 2
Flags: W
LayerCount: 2
Fore
SplineSet
986.373046875 660 m 1,0,-1
 834 0 l 1,1,-1
 631 0 l 1,2,-1
 683.869140625 229 l 1,3,-1
 738.12109375 451 l 1,4,-1
 735.12109375 451 l 1,5,-1
 503 0 l 1,6,-1
 317 0 l 1,7,-1
 295.12109375 451 l 1,8,-1
 291.12109375 451 l 1,9,-1
 242.869140625 229 l 1,10,-1
 190 0 l 1,11,-1
 -14 0 l 1,12,-1
 138.373046875 660 l 1,13,-1
 464.373046875 660 l 1,14,-1
 472.728515625 367 l 1,15,-1
 473.33203125 244 l 1,16,-1
 475.33203125 244 l 1,17,-1
 532.728515625 367 l 1,18,-1
 676.373046875 660 l 1,19,-1
 986.373046875 660 l 1,0,-1
EndSplineSet
Substitution2: "Single Substitution lookup 56 subtable" M.swsh
AlternateSubs2: "'swsh' Swash lookup 35 subtable" M.swsh M.swsh.001
Substitution2: "'c2sc' Capitals to Small Capitals lookup 11 subtable" m.sc
AlternateSubs2: "'aalt' Access All Alternates lookup 1 subtable" m.sc M.swsh M.swsh.001
EndChar

StartChar: N
Encoding: 78 78 49
Width: 746
GlyphClass: 2
Flags: W
AnchorPoint: "Anchor-0" 310 0 basechar 0
LayerCount: 2
Fore
SplineSet
784.373046875 660 m 1,0,-1
 632 0 l 1,1,-1
 380 0 l 1,2,-1
 291.260742188 300 l 1,3,-1
 273.9609375 381 l 1,4,-1
 271.9609375 381 l 1,5,-1
 244.5625 245 l 1,6,-1
 188 0 l 1,7,-1
 -14 0 l 1,8,-1
 138.373046875 660 l 1,9,-1
 390.373046875 660 l 1,10,-1
 478.881835938 359 l 1,11,-1
 496.412109375 279 l 1,12,-1
 498.412109375 279 l 1,13,-1
 525.810546875 415 l 1,14,-1
 582.373046875 660 l 1,15,-1
 784.373046875 660 l 1,0,-1
EndSplineSet
Substitution2: "Single Substitution lookup 57 subtable" N.swsh
Substitution2: "'swsh' Swash lookup 36 subtable" N.swsh
Substitution2: "'c2sc' Capitals to Small Capitals lookup 11 subtable" n.sc
AlternateSubs2: "'aalt' Access All Alternates lookup 1 subtable" n.sc N.swsh
EndChar

StartChar: O
Encoding: 79 79 50
Width: 729
GlyphClass: 2
Flags: W
LayerCount: 2
Fore
SplineSet
455.681640625 670 m 128,-1,1
 613.681640625 670 613.681640625 670 681.518554688 580.5 c 128,-1,2
 749.356445312 491 749.356445312 491 712.186523438 330 c 128,-1,3
 675.016601562 169 675.016601562 169 565.854492188 79.5 c 128,-1,4
 456.69140625 -10 456.69140625 -10 298.69140625 -10 c 128,-1,5
 140.69140625 -10 140.69140625 -10 72.3544921875 79.5 c 128,-1,6
 4.0166015625 169 4.0166015625 169 41.1865234375 330 c 128,-1,7
 78.3564453125 491 78.3564453125 491 188.018554688 580.5 c 128,-1,0
 297.681640625 670 297.681640625 670 455.681640625 670 c 128,-1,1
415.279296875 495 m 128,-1,9
 364.279296875 495 364.279296875 495 331.66015625 455.5 c 128,-1,10
 299.041015625 416 299.041015625 416 279.186523438 330 c 128,-1,11
 259.33203125 244 259.33203125 244 273.712890625 204.5 c 128,-1,12
 288.092773438 165 288.092773438 165 339.092773438 165 c 128,-1,13
 390.092773438 165 390.092773438 165 422.212890625 204.5 c 128,-1,14
 454.33203125 244 454.33203125 244 474.186523438 330 c 128,-1,15
 494.041015625 416 494.041015625 416 480.16015625 455.5 c 128,-1,8
 466.279296875 495 466.279296875 495 415.279296875 495 c 128,-1,9
EndSplineSet
Substitution2: "Single Substitution lookup 55 subtable" ordmasculine
Substitution2: "'nalt' Alternate Annotation Forms lookup 23 subtable" indexring
Substitution2: "'sups' Superscript lookup 15 subtable" Osuperior
Substitution2: "'subs' Subscript lookup 14 subtable" Oinferior
Substitution2: "'sinf' Scientific Inferiors lookup 13 subtable" Oinferior
Substitution2: "'c2sc' Capitals to Small Capitals lookup 11 subtable" o.sc
AlternateSubs2: "'aalt' Access All Alternates lookup 1 subtable" o.sc Oinferior Osuperior ordmasculine indexring
EndChar

StartChar: P
Encoding: 80 80 51
Width: 706
GlyphClass: 2
Flags: W
LayerCount: 2
Fore
SplineSet
488.373046875 660 m 2,0,1
 765.373046875 660 765.373046875 660 712.041992188 429 c 0,2,3
 687.33984375 322 687.33984375 322 604.411132812 266 c 128,-1,4
 521.482421875 210 521.482421875 210 384.482421875 210 c 2,5,-1
 267.482421875 210 l 1,6,-1
 219 0 l 1,7,-1
 -14 0 l 1,8,-1
 138.373046875 660 l 1,9,-1
 488.373046875 660 l 2,0,1
383.420898438 370 m 2,10,11
 426.420898438 370 426.420898438 370 449.383789062 385 c 128,-1,12
 472.34765625 400 472.34765625 400 479.735351562 432 c 128,-1,13
 487.123046875 464 487.123046875 464 471.0859375 479 c 128,-1,14
 455.048828125 494 455.048828125 494 412.048828125 494 c 2,15,-1
 333.048828125 494 l 1,16,-1
 304.420898438 370 l 1,17,-1
 383.420898438 370 l 2,10,11
EndSplineSet
Substitution2: "'c2sc' Capitals to Small Capitals lookup 11 subtable" p.sc
Substitution2: "'aalt' Access All Alternates lookup 0 subtable" p.sc
EndChar

StartChar: Q
Encoding: 81 81 52
Width: 729
GlyphClass: 2
Flags: W
LayerCount: 2
Fore
SplineSet
448.763671875 -53 m 0,0,1
 527.763671875 -53 527.763671875 -53 580.767578125 -14 c 1,2,-1
 600.215820312 -155 l 1,3,4
 530.749023438 -209 530.749023438 -209 394.749023438 -209 c 0,5,6
 275.749023438 -209 275.749023438 -209 237.138671875 -151 c 128,-1,7
 198.529296875 -93 198.529296875 -93 234.615234375 -6 c 1,8,9
 109.770507812 12 109.770507812 12 58.85546875 99 c 128,-1,10
 7.94140625 186 7.94140625 186 41.1865234375 330 c 0,11,12
 78.3564453125 491 78.3564453125 491 188.018554688 580.5 c 128,-1,13
 297.681640625 670 297.681640625 670 455.681640625 670 c 128,-1,14
 613.681640625 670 613.681640625 670 681.518554688 580.5 c 128,-1,15
 749.356445312 491 749.356445312 491 712.186523438 330 c 0,16,17
 678.479492188 184 678.479492188 184 584.663085938 96 c 128,-1,18
 490.846679688 8 490.846679688 8 354.383789062 -7 c 1,19,20
 348.763671875 -53 348.763671875 -53 448.763671875 -53 c 0,0,1
415.279296875 495 m 128,-1,22
 364.279296875 495 364.279296875 495 331.66015625 455.5 c 128,-1,23
 299.041015625 416 299.041015625 416 279.186523438 330 c 128,-1,24
 259.33203125 244 259.33203125 244 273.712890625 204.5 c 128,-1,25
 288.092773438 165 288.092773438 165 339.092773438 165 c 128,-1,26
 390.092773438 165 390.092773438 165 422.212890625 204.5 c 128,-1,27
 454.33203125 244 454.33203125 244 474.186523438 330 c 128,-1,28
 494.041015625 416 494.041015625 416 480.16015625 455.5 c 128,-1,21
 466.279296875 495 466.279296875 495 415.279296875 495 c 128,-1,22
EndSplineSet
Substitution2: "'c2sc' Capitals to Small Capitals lookup 11 subtable" q.sc
Substitution2: "'aalt' Access All Alternates lookup 0 subtable" q.sc
EndChar

StartChar: R
Encoding: 82 82 53
Width: 705
GlyphClass: 2
Flags: W
AnchorPoint: "Anchor-0" 298 0 basechar 0
LayerCount: 2
Fore
SplineSet
-14 0 m 5,0,-1
 138.373046875 660 l 5,1,-1
 496.373046875 660 l 6,2,3
 628.373046875 660 628.373046875 660 683.40625 606 c 132,-1,4
 738.439453125 552 738.439453125 552 714.66015625 449 c 4,5,6
 684.185546875 317 684.185546875 317 551.412109375 279 c 5,7,-1
 550.950195312 277 l 5,8,9
 623.102539062 256 623.102539062 256 619.40234375 175 c 4,10,11
 618.938476562 160 618.938476562 160 616.743164062 124.5 c 132,-1,12
 614.546875 89 614.546875 89 613.815429688 75 c 132,-1,13
 613.083007812 61 613.083007812 61 614.850585938 40.5 c 132,-1,14
 616.6171875 20 616.6171875 20 622.154296875 5 c 5,15,-1
 621 0 l 5,16,-1
 378 0 l 5,17,18
 373.541015625 24 373.541015625 24 379.430664062 75.5 c 132,-1,19
 385.3203125 127 385.3203125 127 386.323242188 153 c 4,20,21
 386.865234375 190 386.865234375 190 370.712890625 204.5 c 132,-1,22
 354.560546875 219 354.560546875 219 316.560546875 219 c 6,23,-1
 264.560546875 219 l 5,24,-1
 214 0 l 5,25,-1
 -14 0 l 5,0,-1
299.8828125 372 m 5,26,-1
 382.8828125 372 l 6,27,28
 426.8828125 372 426.8828125 372 448.5 385.5 c 132,-1,29
 470.116210938 399 470.116210938 399 477.965820312 433 c 4,30,31
 485.584960938 466 485.584960938 466 470.31640625 480 c 132,-1,32
 455.048828125 494 455.048828125 494 411.048828125 494 c 6,33,-1
 328.048828125 494 l 5,34,-1
 299.8828125 372 l 5,26,-1
EndSplineSet
Substitution2: "Single Substitution lookup 57 subtable" R.swsh.001
Substitution2: "Single Substitution lookup 56 subtable" R.swsh
Substitution2: "'ss03' Style Set 3 lookup 49 subtable" R.ss03
Substitution2: "'salt' Stylistic Alternatives lookup 42 subtable" R.ss03
AlternateSubs2: "'swsh' Swash lookup 37 subtable" R.swsh R.swsh.001
Substitution2: "'c2sc' Capitals to Small Capitals lookup 11 subtable" r.sc
AlternateSubs2: "'aalt' Access All Alternates lookup 1 subtable" r.sc R.swsh R.swsh.001 R.ss03
EndChar

StartChar: S
Encoding: 83 83 54
Width: 646
GlyphClass: 2
Flags: W
AnchorPoint: "Anchor-0" 274 0 basechar 0
LayerCount: 2
Fore
SplineSet
427.681640625 670 m 0,0,1
 525.681640625 670 525.681640625 670 589.372070312 647 c 128,-1,2
 653.061523438 624 653.061523438 624 707.440429688 565 c 1,3,-1
 571.96484375 420 l 1,4,5
 504.203125 499 504.203125 499 395.203125 499 c 0,6,7
 360.203125 499 360.203125 499 336.779296875 488.5 c 128,-1,8
 313.35546875 478 313.35546875 478 309.430664062 461 c 0,9,10
 306.428710938 448 306.428710938 448 325.3515625 439 c 128,-1,11
 344.2734375 430 344.2734375 430 396.1953125 421 c 0,12,13
 531.116210938 399 531.116210938 399 582.341796875 348 c 128,-1,14
 633.567382812 297 633.567382812 297 611.866210938 203 c 0,15,16
 588.548828125 102 588.548828125 102 491.620117188 46 c 128,-1,17
 394.69140625 -10 394.69140625 -10 267.69140625 -10 c 0,18,19
 150.69140625 -10 150.69140625 -10 85.7705078125 12 c 128,-1,20
 20.849609375 34 20.849609375 34 -34.837890625 83 c 1,21,-1
 104.33203125 244 l 1,22,23
 162.169921875 161 162.169921875 161 290.169921875 161 c 0,24,25
 363.169921875 161 363.169921875 161 370.095703125 191 c 0,26,27
 373.328125 205 373.328125 205 353.40625 214 c 128,-1,28
 333.483398438 223 333.483398438 223 277.791992188 233 c 0,29,30
 143.87109375 255 143.87109375 255 94.7998046875 304.5 c 128,-1,31
 45.7275390625 354 45.7275390625 354 66.2744140625 443 c 0,32,33
 90.0537109375 546 90.0537109375 546 185.368164062 608 c 128,-1,34
 280.681640625 670 280.681640625 670 427.681640625 670 c 0,0,1
EndSplineSet
Substitution2: "Single Substitution lookup 57 subtable" S.swsh
Substitution2: "Single Substitution lookup 56 subtable" S.swsh
Substitution2: "'swsh' Swash lookup 38 subtable" S.swsh
Substitution2: "'c2sc' Capitals to Small Capitals lookup 11 subtable" s.sc
AlternateSubs2: "'aalt' Access All Alternates lookup 1 subtable" s.sc S.swsh
EndChar

StartChar: T
Encoding: 84 84 55
Width: 686
GlyphClass: 2
Flags: W
AnchorPoint: "Anchor-0" 262 0 basechar 0
LayerCount: 2
Fore
SplineSet
754.373046875 660 m 1,0,-1
 714.89453125 489 l 1,1,-1
 508.89453125 489 l 1,2,-1
 396 0 l 1,3,-1
 163 0 l 1,4,-1
 275.89453125 489 l 1,5,-1
 68.89453125 489 l 1,6,-1
 108.373046875 660 l 1,7,-1
 754.373046875 660 l 1,0,-1
EndSplineSet
Substitution2: "Single Substitution lookup 56 subtable" T.swsh
Substitution2: "'swsh' Swash lookup 38 subtable" T.swsh
Substitution2: "'c2sc' Capitals to Small Capitals lookup 11 subtable" t.sc
AlternateSubs2: "'aalt' Access All Alternates lookup 1 subtable" t.sc T.swsh
EndChar

StartChar: U
Encoding: 85 85 56
Width: 708
GlyphClass: 2
Flags: W
LayerCount: 2
Fore
SplineSet
761.373046875 660 m 1,0,-1
 674.56640625 284 l 2,1,2
 606.69140625 -10 606.69140625 -10 287.69140625 -10 c 128,-1,3
 -31.30859375 -10 -31.30859375 -10 36.56640625 284 c 2,4,-1
 123.373046875 660 l 1,5,-1
 357.373046875 660 l 1,6,-1
 266.411132812 266 l 2,7,8
 243.092773438 165 243.092773438 165 328.092773438 165 c 0,9,10
 414.092773438 165 414.092773438 165 437.411132812 266 c 2,11,-1
 528.373046875 660 l 1,12,-1
 761.373046875 660 l 1,0,-1
EndSplineSet
Substitution2: "'c2sc' Capitals to Small Capitals lookup 11 subtable" u.sc
Substitution2: "'aalt' Access All Alternates lookup 0 subtable" u.sc
EndChar

StartChar: V
Encoding: 86 86 57
Width: 707
GlyphClass: 2
Flags: W
LayerCount: 2
Fore
SplineSet
803.373046875 660 m 1,0,-1
 428 0 l 1,1,-1
 151 0 l 1,2,-1
 80.373046875 660 l 1,3,-1
 323.373046875 660 l 1,4,-1
 331.029296875 299 l 1,5,-1
 333.248046875 170 l 1,6,-1
 392.567382812 297 l 1,7,-1
 569.373046875 660 l 1,8,-1
 803.373046875 660 l 1,0,-1
EndSplineSet
Substitution2: "'c2sc' Capitals to Small Capitals lookup 11 subtable" v.sc
Substitution2: "'aalt' Access All Alternates lookup 0 subtable" v.sc
EndChar

StartChar: W
Encoding: 87 87 58
Width: 1021
GlyphClass: 2
Flags: W
LayerCount: 2
Fore
SplineSet
479.254882812 248 m 1,0,-1
 371 0 l 1,1,-1
 115 0 l 1,2,-1
 80.373046875 660 l 1,3,-1
 331.373046875 660 l 1,4,-1
 298.249023438 183 l 1,5,-1
 501.373046875 660 l 1,6,-1
 701.373046875 660 l 1,7,-1
 689.94140625 186 l 1,8,-1
 874.373046875 660 l 1,9,-1
 1116.37304688 660 l 1,10,-1
 776 0 l 1,11,-1
 529 0 l 1,12,-1
 534.254882812 248 l 1,13,-1
 547.272460938 417 l 1,14,-1
 544.272460938 417 l 1,15,-1
 479.254882812 248 l 1,0,-1
EndSplineSet
Substitution2: "Single Substitution lookup 56 subtable" W.swsh
Substitution2: "'swsh' Swash lookup 38 subtable" W.swsh
Substitution2: "'c2sc' Capitals to Small Capitals lookup 11 subtable" w.sc
AlternateSubs2: "'aalt' Access All Alternates lookup 1 subtable" w.sc W.swsh
EndChar

StartChar: X
Encoding: 88 88 59
Width: 704
GlyphClass: 2
Flags: W
LayerCount: 2
Fore
SplineSet
649 0 m 1,0,-1
 368 0 l 1,1,-1
 320.478515625 171 l 1,2,-1
 201 0 l 1,3,-1
 -62 0 l 1,4,-1
 232.956054688 329 l 1,5,-1
 98.373046875 660 l 1,6,-1
 373.373046875 660 l 1,7,-1
 412.279296875 495 l 1,8,-1
 528.373046875 660 l 1,9,-1
 782.373046875 660 l 1,10,-1
 497.340820312 335 l 1,11,-1
 649 0 l 1,0,-1
EndSplineSet
Substitution2: "'c2sc' Capitals to Small Capitals lookup 11 subtable" x.sc
Substitution2: "'aalt' Access All Alternates lookup 0 subtable" x.sc
EndChar

StartChar: Y
Encoding: 89 89 60
Width: 713
GlyphClass: 2
Flags: W
LayerCount: 2
Fore
SplineSet
792.373046875 660 m 1,0,-1
 461.869140625 229 l 1,1,-1
 409 0 l 1,2,-1
 176 0 l 1,3,-1
 228.869140625 229 l 1,4,-1
 97.373046875 660 l 1,5,-1
 329.373046875 660 l 1,6,-1
 364.51171875 509 l 1,7,-1
 383.807617188 389 l 1,8,-1
 458.51171875 509 l 1,9,-1
 563.373046875 660 l 1,10,-1
 792.373046875 660 l 1,0,-1
EndSplineSet
Substitution2: "'c2sc' Capitals to Small Capitals lookup 11 subtable" y.sc
Substitution2: "'aalt' Access All Alternates lookup 0 subtable" y.sc
EndChar

StartChar: Z
Encoding: 90 90 61
Width: 637
GlyphClass: 2
Flags: W
LayerCount: 2
Fore
SplineSet
252.32421875 166 m 1,0,-1
 596.32421875 166 l 1,1,-1
 558 0 l 1,2,-1
 -39 0 l 1,3,-1
 -2.2919921875 159 l 1,4,-1
 410.048828125 494 l 1,5,-1
 79.048828125 494 l 1,6,-1
 117.373046875 660 l 1,7,-1
 699.373046875 660 l 1,8,-1
 662.665039062 501 l 1,9,-1
 252.32421875 166 l 1,0,-1
EndSplineSet
Substitution2: "'c2sc' Capitals to Small Capitals lookup 11 subtable" z.sc
Substitution2: "'aalt' Access All Alternates lookup 0 subtable" z.sc
EndChar

StartChar: bracketleft
Encoding: 91 91 62
Width: 420
GlyphClass: 2
Flags: W
LayerCount: 2
Fore
SplineSet
461.977539062 550 m 1,0,-1
 341.977539062 550 l 1,1,-1
 211.075195312 -17 l 1,2,-1
 331.075195312 -17 l 1,3,-1
 296.213867188 -168 l 1,4,-1
 -18.7861328125 -168 l 1,5,-1
 181.838867188 701 l 1,6,-1
 496.838867188 701 l 1,7,-1
 461.977539062 550 l 1,0,-1
EndSplineSet
Substitution2: "'case' Case-Sensitive Forms lookup 29 subtable" bracketleft.case
Substitution2: "'sups' Superscript lookup 15 subtable" bracketleftsuperior
Substitution2: "'subs' Subscript lookup 14 subtable" bracketleftinferior
Substitution2: "'sinf' Scientific Inferiors lookup 13 subtable" bracketleftinferior
AlternateSubs2: "'aalt' Access All Alternates lookup 1 subtable" bracketleftinferior bracketleftsuperior bracketleft.case
EndChar

StartChar: backslash
Encoding: 92 92 63
Width: 488
GlyphClass: 2
Flags: W
LayerCount: 2
Fore
SplineSet
103.607421875 700 m 1,0,-1
 316.607421875 700 l 1,1,-1
 401.838867188 -70 l 1,2,-1
 188.838867188 -70 l 1,3,-1
 103.607421875 700 l 1,0,-1
EndSplineSet
EndChar

StartChar: bracketright
Encoding: 93 93 64
Width: 420
GlyphClass: 2
Flags: W
LayerCount: 2
Fore
SplineSet
433.838867188 701 m 1,0,-1
 233.213867188 -168 l 1,1,-1
 -81.7861328125 -168 l 1,2,-1
 -46.9248046875 -17 l 1,3,-1
 73.0751953125 -17 l 1,4,-1
 203.977539062 550 l 1,5,-1
 83.9775390625 550 l 1,6,-1
 118.838867188 701 l 1,7,-1
 433.838867188 701 l 1,0,-1
EndSplineSet
Substitution2: "'case' Case-Sensitive Forms lookup 29 subtable" bracketright.case
Substitution2: "'sups' Superscript lookup 15 subtable" bracketrightsuperior
Substitution2: "'subs' Subscript lookup 14 subtable" bracketrightinferior
Substitution2: "'sinf' Scientific Inferiors lookup 13 subtable" bracketrightinferior
AlternateSubs2: "'aalt' Access All Alternates lookup 1 subtable" bracketrightinferior bracketrightsuperior bracketright.case
EndChar

StartChar: asciicircum
Encoding: 94 94 65
Width: 647
GlyphClass: 2
Flags: W
LayerCount: 2
Fore
SplineSet
641.958007812 355 m 1,0,-1
 445.958007812 355 l 1,1,-1
 393.44140625 578 l 1,2,-1
 236.958007812 355 l 1,3,-1
 40.9580078125 355 l 1,4,-1
 331.224609375 720 l 1,5,-1
 520.224609375 720 l 1,6,-1
 641.958007812 355 l 1,0,-1
EndSplineSet
EndChar

StartChar: underscore
Encoding: 95 95 66
Width: 539
GlyphClass: 2
Flags: W
LayerCount: 2
Fore
SplineSet
464.611328125 -45 m 1,0,-1
 424.208984375 -220 l 1,1,-1
 -114.791015625 -220 l 1,2,-1
 -74.388671875 -45 l 1,3,-1
 464.611328125 -45 l 1,0,-1
EndSplineSet
EndChar

StartChar: grave
Encoding: 96 96 67
Width: 500
GlyphClass: 2
Flags: W
LayerCount: 2
Fore
SplineSet
377.534179688 730 m 1,0,-1
 396.669921875 553 l 1,1,-1
 234.669921875 553 l 1,2,-1
 172.534179688 730 l 1,3,-1
 377.534179688 730 l 1,0,-1
EndSplineSet
EndChar

StartChar: a
Encoding: 97 97 68
Width: 588
GlyphClass: 2
Flags: W
LayerCount: 2
Fore
SplineSet
536.396484375 123 m 0,0,1
 553.396484375 123 553.396484375 123 562.3203125 127 c 1,2,-1
 517.30859375 10 l 1,3,4
 478.69140625 -10 478.69140625 -10 438.69140625 -10 c 0,5,6
 310.69140625 -10 310.69140625 -10 301.083984375 74 c 1,7,8
 231.69140625 -10 231.69140625 -10 103.69140625 -10 c 0,9,10
 -50.30859375 -10 -50.30859375 -10 -22.8349609375 109 c 0,11,12
 -8.291015625 172 -8.291015625 172 45.3671875 209.5 c 128,-1,13
 99.0244140625 247 99.0244140625 247 209.333984375 270 c 2,14,-1
 313.413085938 292 l 1,15,-1
 318.03125 312 l 2,16,17
 329.34375 361 329.34375 361 284.34375 361 c 0,18,19
 233.34375 361 233.34375 361 217.260742188 300 c 1,20,-1
 33.9560546875 329 l 1,21,22
 61.810546875 415 61.810546875 415 136.776367188 462.5 c 128,-1,23
 211.743164062 510 211.743164062 510 331.743164062 510 c 0,24,25
 464.743164062 510 464.743164062 510 516.46875 459 c 128,-1,26
 568.194335938 408 568.194335938 408 544.18359375 304 c 2,27,-1
 511.862304688 164 l 2,28,29
 502.396484375 123 502.396484375 123 536.396484375 123 c 0,0,1
229.549804688 115 m 0,30,31
 248.549804688 115 248.549804688 115 263.435546875 127.5 c 128,-1,32
 278.321289062 140 278.321289062 140 283.862304688 164 c 2,33,-1
 294.944335938 212 l 1,34,-1
 259.635742188 202 l 2,35,36
 211.633789062 189 211.633789062 189 202.629882812 150 c 0,37,38
 198.705078125 133 198.705078125 133 206.627929688 124 c 128,-1,39
 214.549804688 115 214.549804688 115 229.549804688 115 c 0,30,31
EndSplineSet
Substitution2: "Single Substitution lookup 55 subtable" ordfeminine
Substitution2: "'smcp' Lowercase to Small Capitals lookup 12 subtable" a.sc
AlternateSubs2: "'aalt' Access All Alternates lookup 1 subtable" a.sc ordfeminine
EndChar

StartChar: b
Encoding: 98 98 69
Width: 627
GlyphClass: 2
Flags: W
LayerCount: 2
Fore
SplineSet
463.743164062 510 m 0,0,1
 554.743164062 510 554.743164062 510 589.3125 441 c 128,-1,2
 623.8828125 372 623.8828125 372 595.024414062 247 c 0,3,4
 566.627929688 124 566.627929688 124 501.659179688 57 c 128,-1,5
 436.69140625 -10 436.69140625 -10 344.69140625 -10 c 0,6,7
 284.69140625 -10 284.69140625 -10 250.041015625 24 c 128,-1,8
 215.390625 58 215.390625 58 210.01171875 117 c 1,9,-1
 177 0 l 1,10,-1
 -25 0 l 1,11,-1
 136.607421875 700 l 1,12,-1
 366.607421875 700 l 1,13,-1
 301.041015625 416 l 1,14,15
 363.743164062 510 363.743164062 510 463.743164062 510 c 0,0,1
288.861328125 151 m 0,16,17
 314.861328125 151 314.861328125 151 332.825195312 172.5 c 128,-1,18
 350.788085938 194 350.788085938 194 363.716796875 250 c 128,-1,19
 376.645507812 306 376.645507812 306 368.494140625 327 c 128,-1,20
 360.341796875 348 360.341796875 348 334.341796875 348 c 0,21,22
 285.341796875 348 285.341796875 348 263.640625 254 c 2,23,-1
 261.793945312 246 l 2,24,25
 239.861328125 151 239.861328125 151 288.861328125 151 c 0,16,17
EndSplineSet
Substitution2: "'smcp' Lowercase to Small Capitals lookup 12 subtable" b.sc
Substitution2: "'aalt' Access All Alternates lookup 0 subtable" b.sc
EndChar

StartChar: c
Encoding: 99 99 70
Width: 576
GlyphClass: 2
Flags: W
LayerCount: 2
Fore
SplineSet
350.743164062 510 m 0,0,1
 489.743164062 510 489.743164062 510 539.814453125 460.5 c 128,-1,2
 589.88671875 411 589.88671875 411 575.495117188 340 c 1,3,-1
 349.181640625 278 l 1,4,5
 369.958007812 355 369.958007812 355 326.958007812 355 c 0,6,7
 295.958007812 355 295.958007812 355 277.033203125 331.5 c 128,-1,8
 258.107421875 308 258.107421875 308 244.024414062 247 c 0,9,10
 230.171875 187 230.171875 187 239.82421875 166 c 128,-1,11
 249.475585938 145 249.475585938 145 277.475585938 145 c 0,12,13
 317.475585938 145 317.475585938 145 337.712890625 211 c 1,14,-1
 528.9375 147 l 1,15,16
 513.700195312 81 513.700195312 81 436.696289062 35.5 c 128,-1,17
 359.69140625 -10 359.69140625 -10 242.69140625 -10 c 0,18,19
 100.69140625 -10 100.69140625 -10 42.6591796875 57 c 128,-1,20
 -15.3720703125 124 -15.3720703125 124 13.716796875 250 c 0,21,22
 42.3447265625 374 42.3447265625 374 130.543945312 442 c 128,-1,23
 218.743164062 510 218.743164062 510 350.743164062 510 c 0,0,1
EndSplineSet
Substitution2: "'smcp' Lowercase to Small Capitals lookup 12 subtable" c.sc
Substitution2: "'aalt' Access All Alternates lookup 0 subtable" c.sc
EndChar

StartChar: d
Encoding: 100 100 71
Width: 627
GlyphClass: 2
Flags: W
LayerCount: 2
Fore
SplineSet
455.607421875 700 m 1,0,-1
 685.607421875 700 l 1,1,-1
 524 0 l 1,2,-1
 317 0 l 1,3,-1
 332.85546875 99 l 1,4,5
 261.69140625 -10 261.69140625 -10 149.69140625 -10 c 0,6,7
 57.69140625 -10 57.69140625 -10 23.6591796875 57 c 128,-1,8
 -10.3720703125 124 -10.3720703125 124 18.0244140625 247 c 0,9,10
 46.8828125 372 46.8828125 372 113.3125 441 c 128,-1,11
 179.743164062 510 179.743164062 510 270.743164062 510 c 0,12,13
 370.743164062 510 370.743164062 510 390.041015625 416 c 1,14,-1
 455.607421875 700 l 1,0,-1
279.861328125 151 m 0,15,16
 328.861328125 151 328.861328125 151 350.793945312 246 c 2,17,-1
 352.640625 254 l 2,18,19
 374.341796875 348 374.341796875 348 325.341796875 348 c 0,20,21
 299.341796875 348 299.341796875 348 281.494140625 327 c 128,-1,22
 263.645507812 306 263.645507812 306 250.716796875 250 c 128,-1,23
 237.788085938 194 237.788085938 194 245.825195312 172.5 c 128,-1,24
 253.861328125 151 253.861328125 151 279.861328125 151 c 0,15,16
EndSplineSet
Substitution2: "'smcp' Lowercase to Small Capitals lookup 12 subtable" d.sc
Substitution2: "'aalt' Access All Alternates lookup 0 subtable" d.sc
EndChar

StartChar: e
Encoding: 101 101 72
Width: 583
GlyphClass: 2
Flags: W
AnchorPoint: "Anchor-0" 230 0 basechar 0
LayerCount: 2
Fore
SplineSet
560.411132812 266 m 0,0,1
 551.637695312 228 551.637695312 228 541.55859375 206 c 1,2,-1
 223.55859375 206 l 1,3,4
 220.016601562 169 220.016601562 169 233.015625 156 c 128,-1,5
 246.013671875 143 246.013671875 143 278.013671875 143 c 0,6,7
 327.013671875 143 327.013671875 143 347.94140625 186 c 1,8,-1
 521.3984375 136 l 1,9,10
 487.775390625 64 487.775390625 64 412.733398438 27 c 128,-1,11
 337.69140625 -10 337.69140625 -10 242.69140625 -10 c 0,12,13
 100.69140625 -10 100.69140625 -10 42.6591796875 57 c 128,-1,14
 -15.3720703125 124 -15.3720703125 124 13.716796875 250 c 0,15,16
 42.3447265625 374 42.3447265625 374 130.543945312 442 c 128,-1,17
 218.743164062 510 218.743164062 510 350.743164062 510 c 0,18,19
 479.743164062 510 479.743164062 510 533.005859375 444 c 128,-1,20
 586.268554688 378 586.268554688 378 560.411132812 266 c 0,0,1
316.650390625 358 m 0,21,22
 290.650390625 358 290.650390625 358 273.1875 343 c 128,-1,23
 255.724609375 328 255.724609375 328 243.182617188 291 c 1,24,-1
 351.182617188 291 l 1,25,26
 360.650390625 358 360.650390625 358 316.650390625 358 c 0,21,22
EndSplineSet
Substitution2: "'smcp' Lowercase to Small Capitals lookup 12 subtable" e.sc
Substitution2: "'aalt' Access All Alternates lookup 0 subtable" e.sc
EndChar

StartChar: f
Encoding: 102 102 73
Width: 430
GlyphClass: 2
Flags: W
LayerCount: 2
Fore
SplineSet
337.28125 508 m 2,0,-1
 335.434570312 500 l 1,1,-1
 477.434570312 500 l 1,2,-1
 441.649414062 345 l 1,3,-1
 315.649414062 345 l 1,4,-1
 236 0 l 1,5,-1
 6 0 l 1,6,-1
 85.6494140625 345 l 1,7,-1
 18.6494140625 345 l 1,8,-1
 54.4345703125 500 l 1,9,-1
 121.434570312 500 l 1,10,-1
 126.051757812 520 l 2,11,12
 150.29296875 625 150.29296875 625 226.258789062 672.5 c 128,-1,13
 302.224609375 720 302.224609375 720 400.224609375 720 c 0,14,15
 492.224609375 720 492.224609375 720 527.606445312 687 c 1,16,-1
 481.901367188 554 l 1,17,18
 465.594726562 570 465.594726562 570 428.594726562 570 c 0,19,20
 351.594726562 570 351.594726562 570 337.28125 508 c 2,0,-1
EndSplineSet
Substitution2: "'smcp' Lowercase to Small Capitals lookup 12 subtable" f.sc
Substitution2: "'aalt' Access All Alternates lookup 0 subtable" f.sc
EndChar

StartChar: g
Encoding: 103 103 74
Width: 627
GlyphClass: 2
Flags: W
LayerCount: 2
Fore
SplineSet
431.434570312 500 m 1,0,-1
 639.434570312 500 l 1,1,-1
 533.234375 40 l 2,2,3
 474.36328125 -215 474.36328125 -215 176.36328125 -215 c 0,4,5
 66.36328125 -215 66.36328125 -215 10.328125 -180.5 c 128,-1,6
 -45.70703125 -146 -45.70703125 -146 -37.466796875 -54 c 1,7,-1
 195.076171875 -4 l 1,8,9
 173.837890625 -83 173.837890625 -83 226.837890625 -83 c 0,10,11
 274.837890625 -83 274.837890625 -83 290.537109375 -15 c 2,12,-1
 316.39453125 97 l 1,13,14
 250.309570312 23 250.309570312 23 157.309570312 23 c 0,15,16
 65.3095703125 23 65.3095703125 23 30.3544921875 86 c 128,-1,17
 -4.6005859375 149 -4.6005859375 149 21.94921875 264 c 0,18,19
 48.9609375 381 48.9609375 381 114.3515625 445.5 c 128,-1,20
 179.743164062 510 179.743164062 510 270.743164062 510 c 0,21,22
 335.743164062 510 335.743164062 510 366.31640625 473.5 c 128,-1,23
 396.889648438 437 396.889648438 437 396.114257812 373 c 1,24,-1
 399.344726562 374 l 1,25,-1
 431.434570312 500 l 1,0,-1
287.479492188 184 m 0,26,27
 336.479492188 184 336.479492188 184 354.71875 263 c 2,28,-1
 356.333984375 270 l 2,29,30
 374.341796875 348 374.341796875 348 325.341796875 348 c 0,31,32
 299.341796875 348 299.341796875 348 282.301757812 330.5 c 128,-1,33
 265.26171875 313 265.26171875 313 254.411132812 266 c 128,-1,34
 243.560546875 219 243.560546875 219 252.51953125 201.5 c 128,-1,35
 261.479492188 184 261.479492188 184 287.479492188 184 c 0,26,27
EndSplineSet
Substitution2: "'ss01' Style Set 1 lookup 47 subtable" g.ss01
Substitution2: "'salt' Stylistic Alternatives lookup 42 subtable" g.ss01
Substitution2: "'smcp' Lowercase to Small Capitals lookup 12 subtable" g.sc
AlternateSubs2: "'aalt' Access All Alternates lookup 1 subtable" g.sc g.ss01
EndChar

StartChar: h
Encoding: 104 104 75
Width: 620
GlyphClass: 2
Flags: W
LayerCount: 2
Fore
SplineSet
478.743164062 510 m 0,0,1
 552.743164062 510 552.743164062 510 584.084960938 466 c 128,-1,2
 615.426757812 422 615.426757812 422 596.95703125 342 c 2,3,-1
 518 0 l 1,4,-1
 288 0 l 1,5,-1
 353.104492188 282 l 2,6,7
 360.723632812 315 360.723632812 315 355.724609375 328 c 128,-1,8
 350.725585938 341 350.725585938 341 331.725585938 341 c 0,9,10
 283.725585938 341 283.725585938 341 265.487304688 262 c 2,11,-1
 205 0 l 1,12,-1
 -25 0 l 1,13,-1
 136.607421875 700 l 1,14,-1
 366.607421875 700 l 1,15,-1
 296.885742188 398 l 1,16,17
 364.743164062 510 364.743164062 510 478.743164062 510 c 0,0,1
EndSplineSet
Substitution2: "'smcp' Lowercase to Small Capitals lookup 12 subtable" h.sc
Substitution2: "'aalt' Access All Alternates lookup 0 subtable" h.sc
EndChar

StartChar: i
Encoding: 105 105 76
Width: 308
GlyphClass: 2
Flags: W
LayerCount: 2
Fore
SplineSet
212.822265625 532 m 128,-1,1
 144.822265625 532 144.822265625 532 121.401367188 554 c 128,-1,2
 97.98046875 576 97.98046875 576 109.985351562 628 c 128,-1,3
 121.990234375 680 121.990234375 680 155.569335938 702 c 128,-1,4
 189.1484375 724 189.1484375 724 257.1484375 724 c 128,-1,5
 325.1484375 724 325.1484375 724 348.569335938 702 c 128,-1,6
 371.990234375 680 371.990234375 680 359.985351562 628 c 128,-1,7
 347.98046875 576 347.98046875 576 314.401367188 554 c 128,-1,0
 280.822265625 532 280.822265625 532 212.822265625 532 c 128,-1,1
320.434570312 500 m 1,8,-1
 205 0 l 1,9,-1
 -25 0 l 1,10,-1
 90.4345703125 500 l 1,11,-1
 320.434570312 500 l 1,8,-1
EndSplineSet
Substitution2: "'smcp' Lowercase to Small Capitals lookup 12 subtable" i.sc
Substitution2: "'locl' Localized Forms in Latin lookup 6 subtable" i.loclTRK
Substitution2: "'locl' Localized Forms in Latin lookup 5 subtable" i.loclTRK
Substitution2: "'locl' Localized Forms in Latin lookup 4 subtable" i.loclTRK
Substitution2: "'locl' Localized Forms in Latin lookup 3 subtable" i.loclTRK
Substitution2: "'locl' Localized Forms in Latin lookup 2 subtable" i.loclTRK
Substitution2: "'aalt' Access All Alternates lookup 0 subtable" i.sc
EndChar

StartChar: j
Encoding: 106 106 77
Width: 306
GlyphClass: 2
Flags: W
LayerCount: 2
Fore
SplineSet
256.1484375 724 m 0,0,1
 326.1484375 724 326.1484375 724 349.184570312 702.5 c 128,-1,2
 372.221679688 681 372.221679688 681 359.985351562 628 c 128,-1,3
 347.749023438 575 347.749023438 575 314.78515625 553.5 c 128,-1,4
 281.822265625 532 281.822265625 532 211.822265625 532 c 0,5,6
 143.822265625 532 143.822265625 532 120.78515625 553.5 c 128,-1,7
 97.7490234375 575 97.7490234375 575 109.985351562 628 c 128,-1,8
 122.221679688 681 122.221679688 681 155.184570312 702.5 c 128,-1,9
 188.1484375 724 188.1484375 724 256.1484375 724 c 0,0,1
320.434570312 500 m 1,10,-1
 201.999023438 -13 l 2,11,12
 177.526367188 -119 177.526367188 -119 113.9453125 -167 c 128,-1,13
 50.36328125 -215 50.36328125 -215 -65.63671875 -215 c 0,14,15
 -159.63671875 -215 -159.63671875 -215 -210.479492188 -184 c 1,16,-1
 -151.774414062 -51 l 1,17,18
 -136.775390625 -64 -136.775390625 -64 -103.775390625 -64 c 0,19,20
 -39.775390625 -64 -39.775390625 -64 -23.3837890625 7 c 2,21,-1
 90.4345703125 500 l 1,22,-1
 320.434570312 500 l 1,10,-1
EndSplineSet
Substitution2: "'smcp' Lowercase to Small Capitals lookup 12 subtable" j.sc
Substitution2: "'aalt' Access All Alternates lookup 0 subtable" j.sc
EndChar

StartChar: k
Encoding: 107 107 78
Width: 658
GlyphClass: 2
Flags: W
AnchorPoint: "Anchor-0" 273 0 basechar 0
LayerCount: 2
Fore
SplineSet
359 0 m 1,0,-1
 309.40234375 175 l 1,1,-1
 227.39453125 97 l 1,2,-1
 205 0 l 1,3,-1
 -25 0 l 1,4,-1
 136.607421875 700 l 1,5,-1
 366.607421875 700 l 1,6,-1
 279.5703125 323 l 1,7,-1
 466.434570312 500 l 1,8,-1
 713.434570312 500 l 1,9,-1
 490.18359375 304 l 1,10,-1
 609 0 l 1,11,-1
 359 0 l 1,0,-1
EndSplineSet
Substitution2: "'smcp' Lowercase to Small Capitals lookup 12 subtable" k.sc
Substitution2: "'aalt' Access All Alternates lookup 0 subtable" k.sc
EndChar

StartChar: l
Encoding: 108 108 79
Width: 341
GlyphClass: 2
Flags: W
AnchorPoint: "Anchor-0" 110 0 basechar 0
LayerCount: 2
Fore
SplineSet
366.607421875 700 m 1,0,-1
 250.942382812 199 l 2,1,2
 243.786132812 168 243.786132812 168 249.668945312 154.5 c 128,-1,3
 255.552734375 141 255.552734375 141 278.552734375 141 c 0,4,5
 296.552734375 141 296.552734375 141 315.70703125 146 c 1,6,-1
 277.079101562 22 l 1,7,8
 255.846679688 8 255.846679688 8 217.76953125 -1 c 128,-1,9
 179.69140625 -10 179.69140625 -10 145.69140625 -10 c 0,10,11
 52.69140625 -10 52.69140625 -10 21.92578125 30 c 128,-1,12
 -8.8388671875 70 -8.8388671875 70 12.8623046875 164 c 2,13,-1
 136.607421875 700 l 1,14,-1
 366.607421875 700 l 1,0,-1
EndSplineSet
Substitution2: "'ss02' Style Set 2 lookup 48 subtable" l.ss02
Substitution2: "'salt' Stylistic Alternatives lookup 42 subtable" l.ss02
Substitution2: "'smcp' Lowercase to Small Capitals lookup 12 subtable" l.sc
AlternateSubs2: "'aalt' Access All Alternates lookup 1 subtable" l.sc l.ss02
Position2: "Single Positioning lookup 6 subtable" dx=0 dy=0 dh=-40 dv=0
EndChar

StartChar: m
Encoding: 109 109 80
Width: 933
GlyphClass: 2
Flags: W
LayerCount: 2
Fore
SplineSet
791.743164062 510 m 0,0,1
 865.743164062 510 865.743164062 510 897.084960938 466 c 128,-1,2
 928.426757812 422 928.426757812 422 909.95703125 342 c 2,3,-1
 831 0 l 1,4,-1
 601 0 l 1,5,-1
 666.104492188 282 l 2,6,7
 673.723632812 315 673.723632812 315 668.609375 327.5 c 128,-1,8
 663.495117188 340 663.495117188 340 644.495117188 340 c 0,9,10
 596.495117188 340 596.495117188 340 578.487304688 262 c 2,11,-1
 518 0 l 1,12,-1
 288 0 l 1,13,-1
 353.104492188 282 l 2,14,15
 360.723632812 315 360.723632812 315 355.609375 327.5 c 128,-1,16
 350.495117188 340 350.495117188 340 331.495117188 340 c 0,17,18
 283.495117188 340 283.495117188 340 265.487304688 262 c 2,19,-1
 205 0 l 1,20,-1
 -25 0 l 1,21,-1
 90.4345703125 500 l 1,22,-1
 297.434570312 500 l 1,23,-1
 277.26953125 391 l 1,24,25
 349.743164062 510 349.743164062 510 478.743164062 510 c 0,26,27
 593.743164062 510 593.743164062 510 603.65625 410 c 1,28,29
 674.743164062 510 674.743164062 510 791.743164062 510 c 0,0,1
EndSplineSet
Substitution2: "'smcp' Lowercase to Small Capitals lookup 12 subtable" m.sc
Substitution2: "'aalt' Access All Alternates lookup 0 subtable" m.sc
EndChar

StartChar: n
Encoding: 110 110 81
Width: 620
GlyphClass: 2
Flags: W
AnchorPoint: "Anchor-0" 239 0 basechar 0
LayerCount: 2
Fore
SplineSet
478.743164062 510 m 0,0,1
 552.743164062 510 552.743164062 510 584.084960938 466 c 128,-1,2
 615.426757812 422 615.426757812 422 596.95703125 342 c 2,3,-1
 518 0 l 1,4,-1
 288 0 l 1,5,-1
 353.104492188 282 l 2,6,7
 360.723632812 315 360.723632812 315 355.609375 327.5 c 128,-1,8
 350.495117188 340 350.495117188 340 331.495117188 340 c 0,9,10
 283.495117188 340 283.495117188 340 265.487304688 262 c 2,11,-1
 205 0 l 1,12,-1
 -25 0 l 1,13,-1
 90.4345703125 500 l 1,14,-1
 297.434570312 500 l 1,15,-1
 277.26953125 391 l 1,16,17
 349.743164062 510 349.743164062 510 478.743164062 510 c 0,0,1
EndSplineSet
Substitution2: "Single Substitution lookup 57 subtable" n.swsh
Substitution2: "'swsh' Swash lookup 38 subtable" n.swsh
Substitution2: "'smcp' Lowercase to Small Capitals lookup 12 subtable" n.sc
AlternateSubs2: "'aalt' Access All Alternates lookup 1 subtable" n.sc n.swsh
EndChar

StartChar: o
Encoding: 111 111 82
Width: 598
GlyphClass: 2
Flags: W
LayerCount: 2
Fore
SplineSet
352.743164062 510 m 128,-1,1
 485.743164062 510 485.743164062 510 543.043945312 442 c 128,-1,2
 600.344726562 374 600.344726562 374 571.716796875 250 c 128,-1,3
 543.08984375 126 543.08984375 126 454.390625 58 c 128,-1,4
 365.69140625 -10 365.69140625 -10 232.69140625 -10 c 128,-1,5
 99.69140625 -10 99.69140625 -10 42.390625 58 c 128,-1,6
 -14.91015625 126 -14.91015625 126 13.716796875 250 c 128,-1,7
 42.3447265625 374 42.3447265625 374 131.043945312 442 c 128,-1,0
 219.743164062 510 219.743164062 510 352.743164062 510 c 128,-1,1
316.958007812 355 m 128,-1,9
 287.958007812 355 287.958007812 355 273.610351562 334 c 128,-1,10
 259.26171875 313 259.26171875 313 244.716796875 250 c 128,-1,11
 230.171875 187 230.171875 187 234.82421875 166 c 128,-1,12
 239.475585938 145 239.475585938 145 268.475585938 145 c 128,-1,13
 297.475585938 145 297.475585938 145 311.82421875 166 c 128,-1,14
 326.171875 187 326.171875 187 340.716796875 250 c 128,-1,15
 355.26171875 313 355.26171875 313 350.610351562 334 c 128,-1,8
 345.958007812 355 345.958007812 355 316.958007812 355 c 128,-1,9
EndSplineSet
Substitution2: "Single Substitution lookup 55 subtable" ordmasculine
Substitution2: "'smcp' Lowercase to Small Capitals lookup 12 subtable" o.sc
AlternateSubs2: "'aalt' Access All Alternates lookup 1 subtable" o.sc ordmasculine
EndChar

StartChar: p
Encoding: 112 112 83
Width: 627
GlyphClass: 2
Flags: W
LayerCount: 2
Fore
SplineSet
464.743164062 510 m 0,0,1
 556.743164062 510 556.743164062 510 590.774414062 443 c 128,-1,2
 624.806640625 376 624.806640625 376 596.409179688 253 c 0,3,4
 567.55078125 128 567.55078125 128 501.12109375 59 c 128,-1,5
 434.69140625 -10 434.69140625 -10 343.69140625 -10 c 0,6,7
 243.69140625 -10 243.69140625 -10 224.392578125 84 c 1,8,-1
 156.517578125 -210 l 1,9,-1
 -73.482421875 -210 l 1,10,-1
 90.4345703125 500 l 1,11,-1
 292.434570312 500 l 1,12,-1
 271.422851562 383 l 1,13,14
 304.043945312 442 304.043945312 442 354.393554688 476 c 128,-1,15
 404.743164062 510 404.743164062 510 464.743164062 510 c 0,0,1
289.091796875 152 m 0,16,17
 315.091796875 152 315.091796875 152 332.940429688 173 c 128,-1,18
 350.788085938 194 350.788085938 194 363.716796875 250 c 128,-1,19
 376.645507812 306 376.645507812 306 368.609375 327.5 c 128,-1,20
 360.573242188 349 360.573242188 349 334.573242188 349 c 0,21,22
 285.573242188 349 285.573242188 349 263.640625 254 c 2,23,-1
 261.793945312 246 l 2,24,25
 240.091796875 152 240.091796875 152 289.091796875 152 c 0,16,17
EndSplineSet
Substitution2: "'smcp' Lowercase to Small Capitals lookup 12 subtable" p.sc
Substitution2: "'aalt' Access All Alternates lookup 0 subtable" p.sc
EndChar

StartChar: q
Encoding: 113 113 84
Width: 627
GlyphClass: 2
Flags: W
LayerCount: 2
Fore
SplineSet
437.434570312 500 m 1,0,-1
 639.434570312 500 l 1,1,-1
 475.517578125 -210 l 1,2,-1
 245.517578125 -210 l 1,3,-1
 313.392578125 84 l 1,4,5
 250.69140625 -10 250.69140625 -10 150.69140625 -10 c 0,6,7
 59.69140625 -10 59.69140625 -10 25.12109375 59 c 128,-1,8
 -9.44921875 128 -9.44921875 128 19.4091796875 253 c 0,9,10
 47.806640625 376 47.806640625 376 112.774414062 443 c 128,-1,11
 177.743164062 510 177.743164062 510 269.743164062 510 c 0,12,13
 329.743164062 510 329.743164062 510 364.393554688 476 c 128,-1,14
 399.043945312 442 399.043945312 442 404.422851562 383 c 1,15,-1
 437.434570312 500 l 1,0,-1
280.091796875 152 m 0,16,17
 329.091796875 152 329.091796875 152 350.793945312 246 c 2,18,-1
 352.640625 254 l 2,19,20
 374.573242188 349 374.573242188 349 325.573242188 349 c 0,21,22
 299.573242188 349 299.573242188 349 281.609375 327.5 c 128,-1,23
 263.645507812 306 263.645507812 306 250.716796875 250 c 128,-1,24
 237.788085938 194 237.788085938 194 245.940429688 173 c 128,-1,25
 254.091796875 152 254.091796875 152 280.091796875 152 c 0,16,17
EndSplineSet
Substitution2: "'smcp' Lowercase to Small Capitals lookup 12 subtable" q.sc
Substitution2: "'aalt' Access All Alternates lookup 0 subtable" q.sc
EndChar

StartChar: r
Encoding: 114 114 85
Width: 444
GlyphClass: 2
Flags: W
AnchorPoint: "Anchor-0" 78 0 basechar 0
LayerCount: 2
Fore
SplineSet
451.743164062 510 m 0,0,1
 486.743164062 510 486.743164062 510 500.97265625 498 c 1,2,-1
 438.569335938 310 l 1,3,4
 421.262695312 326 421.262695312 326 379.262695312 326 c 0,5,6
 333.262695312 326 333.262695312 326 301.68359375 304 c 128,-1,7
 270.104492188 282 270.104492188 282 260.408203125 240 c 2,8,-1
 205 0 l 1,9,-1
 -25 0 l 1,10,-1
 90.4345703125 500 l 1,11,-1
 297.434570312 500 l 1,12,-1
 273.575195312 375 l 1,13,14
 340.743164062 510 340.743164062 510 451.743164062 510 c 0,0,1
EndSplineSet
Substitution2: "Single Substitution lookup 57 subtable" r.swsh
Substitution2: "'swsh' Swash lookup 38 subtable" r.swsh
Substitution2: "'smcp' Lowercase to Small Capitals lookup 12 subtable" r.sc
AlternateSubs2: "'aalt' Access All Alternates lookup 1 subtable" r.sc r.swsh
EndChar

StartChar: s
Encoding: 115 115 86
Width: 537
GlyphClass: 2
Flags: W
AnchorPoint: "Anchor-0" 209 0 basechar 0
LayerCount: 2
Fore
SplineSet
204.69140625 -10 m 0,0,1
 21.69140625 -10 21.69140625 -10 -43.224609375 64 c 1,2,-1
 85.94140625 186 l 1,3,4
 137.55078125 128 137.55078125 128 219.55078125 128 c 0,5,6
 263.55078125 128 263.55078125 128 267.013671875 143 c 0,7,8
 270.938476562 160 270.938476562 160 199.40234375 175 c 0,9,10
 96.25 196 96.25 196 55.869140625 235.5 c 128,-1,11
 15.48828125 275 15.48828125 275 29.5712890625 336 c 0,12,13
 45.501953125 405 45.501953125 405 127.122070312 457.5 c 128,-1,14
 208.743164062 510 208.743164062 510 340.743164062 510 c 0,15,16
 502.743164062 510 502.743164062 510 564.889648438 437 c 1,17,-1
 441.5703125 323 l 1,18,19
 410.8828125 372 410.8828125 372 319.8828125 372 c 0,20,21
 268.8828125 372 268.8828125 372 264.727539062 354 c 0,22,23
 261.95703125 342 261.95703125 342 321.110351562 334 c 0,24,25
 432.416015625 318 432.416015625 318 476.296875 278.5 c 128,-1,26
 520.177734375 239 520.177734375 239 504.248046875 170 c 0,27,28
 486.240234375 92 486.240234375 92 410.465820312 41 c 128,-1,29
 334.69140625 -10 334.69140625 -10 204.69140625 -10 c 0,0,1
EndSplineSet
Substitution2: "'hist' Historical Forms lookup 44 subtable" longs
Substitution2: "'smcp' Lowercase to Small Capitals lookup 12 subtable" s.sc
AlternateSubs2: "'aalt' Access All Alternates lookup 1 subtable" s.sc longs
EndChar

StartChar: t
Encoding: 116 116 87
Width: 445
GlyphClass: 2
Flags: W
AnchorPoint: "Anchor-0" 187 0 basechar 0
LayerCount: 2
Fore
SplineSet
402.553710938 154 m 1,0,-1
 382.541015625 24 l 1,1,2
 319.69140625 -10 319.69140625 -10 225.69140625 -10 c 0,3,4
 117.69140625 -10 117.69140625 -10 74.2724609375 31.5 c 128,-1,5
 30.853515625 73 30.853515625 73 52.7861328125 168 c 2,6,-1
 93.6494140625 345 l 1,7,-1
 16.6494140625 345 l 1,8,-1
 52.4345703125 500 l 1,9,-1
 129.434570312 500 l 1,10,-1
 153.90625 606 l 1,11,-1
 398.681640625 670 l 1,12,-1
 359.434570312 500 l 1,13,-1
 485.434570312 500 l 1,14,-1
 449.649414062 345 l 1,15,-1
 323.649414062 345 l 1,16,-1
 291.096679688 204 l 2,17,18
 283.248046875 170 283.248046875 170 294.400390625 155.5 c 128,-1,19
 305.552734375 141 305.552734375 141 336.552734375 141 c 0,20,21
 373.552734375 141 373.552734375 141 402.553710938 154 c 1,0,-1
EndSplineSet
Substitution2: "Single Substitution lookup 57 subtable" t.swsh
Substitution2: "'swsh' Swash lookup 38 subtable" t.swsh
Substitution2: "'smcp' Lowercase to Small Capitals lookup 12 subtable" t.sc
AlternateSubs2: "'aalt' Access All Alternates lookup 1 subtable" t.sc t.swsh
EndChar

StartChar: u
Encoding: 117 117 88
Width: 620
GlyphClass: 2
Flags: W
LayerCount: 2
Fore
SplineSet
402.434570312 500 m 1,0,-1
 632.434570312 500 l 1,1,-1
 517 0 l 1,2,-1
 310 0 l 1,3,-1
 329.471679688 106 l 1,4,5
 258.69140625 -10 258.69140625 -10 133.69140625 -10 c 0,6,7
 -28.30859375 -10 -28.30859375 -10 11.400390625 162 c 2,8,-1
 89.4345703125 500 l 1,9,-1
 319.434570312 500 l 1,10,-1
 254.560546875 219 l 2,11,12
 246.94140625 186 246.94140625 186 252.440429688 173 c 128,-1,13
 257.938476562 160 257.938476562 160 277.938476562 160 c 0,14,15
 323.938476562 160 323.938476562 160 342.177734375 239 c 2,16,-1
 402.434570312 500 l 1,0,-1
EndSplineSet
Substitution2: "'smcp' Lowercase to Small Capitals lookup 12 subtable" u.sc
Substitution2: "'aalt' Access All Alternates lookup 0 subtable" u.sc
EndChar

StartChar: v
Encoding: 118 118 89
Width: 588
GlyphClass: 2
Flags: W
LayerCount: 2
Fore
SplineSet
649.434570312 500 m 1,0,-1
 373 0 l 1,1,-1
 87 0 l 1,2,-1
 41.4345703125 500 l 1,3,-1
 279.434570312 500 l 1,4,-1
 268.640625 254 l 1,5,-1
 259.166992188 135 l 1,6,-1
 263.166992188 135 l 1,7,-1
 308.87109375 255 l 1,8,-1
 411.434570312 500 l 1,9,-1
 649.434570312 500 l 1,0,-1
EndSplineSet
Substitution2: "'smcp' Lowercase to Small Capitals lookup 12 subtable" v.sc
Substitution2: "'aalt' Access All Alternates lookup 0 subtable" v.sc
EndChar

StartChar: w
Encoding: 119 119 90
Width: 942
GlyphClass: 2
Flags: W
LayerCount: 2
Fore
SplineSet
1002.43457031 500 m 1,0,-1
 751 0 l 1,1,-1
 465 0 l 1,2,-1
 464.553710938 154 l 1,3,-1
 472.719726562 276 l 1,4,-1
 468.719726562 276 l 1,5,-1
 421.784179688 155 l 1,6,-1
 349 0 l 1,7,-1
 63 0 l 1,8,-1
 42.4345703125 500 l 1,9,-1
 280.434570312 500 l 1,10,-1
 265.256835938 261 l 1,11,-1
 254.168945312 148 l 1,12,-1
 258.168945312 148 l 1,13,-1
 304.487304688 262 l 1,14,-1
 409.434570312 500 l 1,15,-1
 635.434570312 500 l 1,16,-1
 630.794921875 259 l 1,17,-1
 624.168945312 148 l 1,18,-1
 628.168945312 148 l 1,19,-1
 669.025390625 260 l 1,20,-1
 764.434570312 500 l 1,21,-1
 1002.43457031 500 l 1,0,-1
EndSplineSet
Substitution2: "'smcp' Lowercase to Small Capitals lookup 12 subtable" w.sc
Substitution2: "'aalt' Access All Alternates lookup 0 subtable" w.sc
EndChar

StartChar: x
Encoding: 120 120 91
Width: 627
GlyphClass: 2
Flags: W
LayerCount: 2
Fore
SplineSet
574 0 m 1,0,-1
 320 0 l 1,1,-1
 282.323242188 153 l 1,2,-1
 176 0 l 1,3,-1
 -75 0 l 1,4,-1
 156.640625 254 l 1,5,-1
 44.4345703125 500 l 1,6,-1
 298.434570312 500 l 1,7,-1
 331.958007812 355 l 1,8,-1
 434.434570312 500 l 1,9,-1
 685.434570312 500 l 1,10,-1
 458.716796875 250 l 1,11,-1
 574 0 l 1,0,-1
EndSplineSet
Substitution2: "'smcp' Lowercase to Small Capitals lookup 12 subtable" x.sc
Substitution2: "'aalt' Access All Alternates lookup 0 subtable" x.sc
EndChar

StartChar: y
Encoding: 121 121 92
Width: 594
GlyphClass: 2
Flags: W
LayerCount: 2
Fore
SplineSet
655.434570312 500 m 1,0,-1
 405.928710938 56 l 2,1,2
 321.298828125 -94 321.298828125 -94 238.831054688 -154.5 c 128,-1,3
 156.36328125 -215 156.36328125 -215 35.36328125 -215 c 0,4,5
 -57.63671875 -215 -57.63671875 -215 -111.017578125 -182 c 1,6,-1
 -35.5419921875 -37 l 1,7,8
 -9.466796875 -54 -9.466796875 -54 49.533203125 -54 c 0,9,10
 107.533203125 -54 107.533203125 -54 124.766601562 -27 c 2,11,-1
 129.61328125 -19 l 1,12,-1
 100.55078125 128 l 1,13,-1
 43.4345703125 500 l 1,14,-1
 294.434570312 500 l 1,15,-1
 279.870117188 242 l 1,16,-1
 271.858398438 125 l 1,17,-1
 321.100585938 243 l 1,18,-1
 430.434570312 500 l 1,19,-1
 655.434570312 500 l 1,0,-1
EndSplineSet
Substitution2: "Single Substitution lookup 57 subtable" y.swsh
Substitution2: "'swsh' Swash lookup 38 subtable" y.swsh
Substitution2: "'smcp' Lowercase to Small Capitals lookup 12 subtable" y.sc
AlternateSubs2: "'aalt' Access All Alternates lookup 1 subtable" y.sc y.swsh
EndChar

StartChar: z
Encoding: 122 122 93
Width: 502
GlyphClass: 2
Flags: W
LayerCount: 2
Fore
SplineSet
-42 0 m 1,0,-1
 -11.525390625 132 l 1,1,-1
 184.18359375 304 l 1,2,-1
 241.803710938 350 l 1,3,-1
 168.341796875 348 l 1,4,-1
 38.341796875 348 l 1,5,-1
 73.4345703125 500 l 1,6,-1
 530.434570312 500 l 1,7,-1
 499.959960938 368 l 1,8,-1
 307.711914062 198 l 1,9,-1
 247.629882812 150 l 1,10,-1
 330.091796875 152 l 1,11,-1
 460.091796875 152 l 1,12,-1
 425 0 l 1,13,-1
 -42 0 l 1,0,-1
EndSplineSet
Substitution2: "'smcp' Lowercase to Small Capitals lookup 12 subtable" z.sc
Substitution2: "'aalt' Access All Alternates lookup 0 subtable" z.sc
EndChar

StartChar: braceleft
Encoding: 123 123 94
Width: 466
GlyphClass: 2
Flags: W
LayerCount: 2
Fore
SplineSet
363.653320312 384 m 2,0,1
 343.336914062 296 343.336914062 296 249.641601562 267 c 1,2,3
 329.485351562 236 329.485351562 236 309.399414062 149 c 2,4,-1
 285.388671875 45 l 2,5,6
 272.921875 -9 272.921875 -9 294.497070312 -32.5 c 128,-1,7
 316.071289062 -56 316.071289062 -56 376.071289062 -56 c 1,8,-1
 344.442382812 -193 l 1,9,10
 184.442382812 -193 184.442382812 -193 129.100585938 -149 c 128,-1,11
 73.7587890625 -105 73.7587890625 -105 99.8466796875 8 c 2,12,-1
 119.701171875 94 l 2,13,14
 132.629882812 150 132.629882812 150 112.670898438 174 c 128,-1,15
 92.7119140625 198 92.7119140625 198 31.7119140625 198 c 1,16,-1
 63.3408203125 335 l 1,17,18
 124.340820312 335 124.340820312 335 155.381835938 359 c 128,-1,19
 186.422851562 383 186.422851562 383 199.3515625 439 c 2,20,-1
 219.436523438 526 l 2,21,22
 245.293945312 638 245.293945312 638 320.952148438 682 c 128,-1,23
 396.610351562 726 396.610351562 726 556.610351562 726 c 1,24,-1
 524.981445312 589 l 1,25,26
 464.981445312 589 464.981445312 589 432.555664062 565.5 c 128,-1,27
 400.130859375 542 400.130859375 542 387.89453125 489 c 2,28,-1
 363.653320312 384 l 2,0,1
EndSplineSet
Substitution2: "'case' Case-Sensitive Forms lookup 29 subtable" braceleft.case
Substitution2: "'aalt' Access All Alternates lookup 0 subtable" braceleft.case
EndChar

StartChar: bar
Encoding: 124 124 95
Width: 372
GlyphClass: 2
Flags: W
LayerCount: 2
Fore
SplineSet
385.838867188 701 m 1,0,-1
 185.213867188 -168 l 1,1,-1
 -18.7861328125 -168 l 1,2,-1
 181.838867188 701 l 1,3,-1
 385.838867188 701 l 1,0,-1
EndSplineSet
Substitution2: "'case' Case-Sensitive Forms lookup 29 subtable" bar.case
Substitution2: "'aalt' Access All Alternates lookup 0 subtable" bar.case
EndChar

StartChar: braceright
Encoding: 125 125 96
Width: 466
GlyphClass: 2
Flags: W
LayerCount: 2
Fore
SplineSet
341.3515625 439 m 2,0,1
 328.422851562 383 328.422851562 383 348.381835938 359 c 128,-1,2
 368.340820312 335 368.340820312 335 429.340820312 335 c 1,3,-1
 397.711914062 198 l 1,4,5
 336.711914062 198 336.711914062 198 305.670898438 174 c 128,-1,6
 274.629882812 150 274.629882812 150 261.701171875 94 c 2,7,-1
 241.846679688 8 l 2,8,9
 215.758789062 -105 215.758789062 -105 140.100585938 -149 c 128,-1,10
 64.4423828125 -193 64.4423828125 -193 -95.5576171875 -193 c 1,11,-1
 -63.9287109375 -56 l 1,12,13
 -3.9287109375 -56 -3.9287109375 -56 28.4970703125 -32.5 c 128,-1,14
 60.921875 -9 60.921875 -9 73.388671875 45 c 2,15,-1
 97.3994140625 149 l 2,16,17
 117.485351562 236 117.485351562 236 211.641601562 267 c 1,18,19
 131.336914062 296 131.336914062 296 151.653320312 384 c 2,20,-1
 175.89453125 489 l 2,21,22
 188.130859375 542 188.130859375 542 166.555664062 565.5 c 128,-1,23
 144.981445312 589 144.981445312 589 84.9814453125 589 c 1,24,-1
 116.610351562 726 l 1,25,26
 276.610351562 726 276.610351562 726 331.952148438 682 c 128,-1,27
 387.293945312 638 387.293945312 638 361.436523438 526 c 2,28,-1
 341.3515625 439 l 2,0,1
EndSplineSet
Substitution2: "'case' Case-Sensitive Forms lookup 29 subtable" braceright.case
Substitution2: "'aalt' Access All Alternates lookup 0 subtable" braceright.case
EndChar

StartChar: asciitilde
Encoding: 126 126 97
Width: 635
GlyphClass: 2
Flags: W
LayerCount: 2
Fore
SplineSet
632.352539062 452 m 1,0,1
 572.637695312 228 572.637695312 228 399.637695312 228 c 0,2,3
 367.637695312 228 367.637695312 228 342.715820312 237 c 128,-1,4
 317.793945312 246 317.793945312 246 305.717773438 256.5 c 128,-1,5
 293.641601562 267 293.641601562 267 279.719726562 276 c 128,-1,6
 265.797851562 285 265.797851562 285 252.797851562 285 c 0,7,8
 219.797851562 285 219.797851562 285 203.485351562 236 c 1,9,-1
 33.4853515625 236 l 1,10,11
 93.19921875 460 93.19921875 460 266.19921875 460 c 0,12,13
 298.19921875 460 298.19921875 460 323.12109375 451 c 128,-1,14
 348.043945312 442 348.043945312 442 360.119140625 431.5 c 128,-1,15
 372.1953125 421 372.1953125 421 386.118164062 412 c 128,-1,16
 400.040039062 403 400.040039062 403 413.040039062 403 c 0,17,18
 446.040039062 403 446.040039062 403 462.352539062 452 c 1,19,-1
 632.352539062 452 l 1,0,1
EndSplineSet
EndChar

StartChar: exclamdown
Encoding: 161 161 99
Width: 321
GlyphClass: 2
Flags: W
LayerCount: 2
Fore
SplineSet
169.723632812 315 m 128,-1,1
 113.723632812 315 113.723632812 315 88.9951171875 340 c 128,-1,2
 64.2666015625 365 64.2666015625 365 74.88671875 411 c 128,-1,3
 85.5068359375 457 85.5068359375 457 121.778320312 482 c 128,-1,4
 158.049804688 507 158.049804688 507 214.049804688 507 c 128,-1,5
 270.049804688 507 270.049804688 507 294.778320312 482 c 128,-1,6
 319.506835938 457 319.506835938 457 308.88671875 411 c 128,-1,7
 298.266601562 365 298.266601562 365 261.995117188 340 c 128,-1,0
 225.723632812 315 225.723632812 315 169.723632812 315 c 128,-1,1
-59.9384765625 -160 m 1,8,-1
 -22.076171875 4 l 1,9,-1
 65.6435546875 280 l 1,10,-1
 257.643554688 280 l 1,11,-1
 217.923828125 4 l 1,12,-1
 180.061523438 -160 l 1,13,-1
 -59.9384765625 -160 l 1,8,-1
EndSplineSet
Substitution2: "'case' Case-Sensitive Forms lookup 29 subtable" exclamdown.case
Substitution2: "'smcp' Lowercase to Small Capitals lookup 12 subtable" exclamdown.sc
Substitution2: "'c2sc' Capitals to Small Capitals lookup 11 subtable" exclamdown.sc
AlternateSubs2: "'aalt' Access All Alternates lookup 1 subtable" exclamdown.sc exclamdown.case
EndChar

StartChar: cent
Encoding: 162 162 100
Width: 604
GlyphClass: 2
Flags: W
LayerCount: 2
Fore
SplineSet
410.258789062 287 m 1,0,1
 422.650390625 358 422.650390625 358 365.114257812 373 c 1,2,-1
 308.08984375 126 l 1,3,4
 368.859375 138 368.859375 138 391.866210938 203 c 1,5,-1
 539.168945312 148 l 1,6,7
 528.700195312 81 528.700195312 81 458.7734375 38 c 128,-1,8
 388.845703125 -5 388.845703125 -5 276.69140625 -10 c 1,9,-1
 255.913085938 -100 l 1,10,-1
 197.913085938 -100 l 1,11,-1
 218.921875 -9 l 1,12,13
 96.76953125 -1 96.76953125 -1 47.6220703125 65.5 c 128,-1,14
 -1.525390625 132 -1.525390625 132 25.716796875 250 c 128,-1,15
 52.9599609375 368 52.9599609375 368 135.04296875 435.5 c 128,-1,16
 217.126953125 503 217.126953125 503 338.51171875 509 c 1,17,-1
 359.520507812 600 l 1,18,-1
 417.520507812 600 l 1,19,-1
 396.51171875 509 l 1,20,21
 516.126953125 503 516.126953125 503 559.66015625 455.5 c 128,-1,22
 603.194335938 408 603.194335938 408 584.495117188 340 c 1,23,-1
 410.258789062 287 l 1,0,1
223.024414062 247 m 0,24,25
 198.783203125 142 198.783203125 142 250.55078125 128 c 1,26,-1
 306.8828125 372 l 1,27,28
 276.036132812 364 276.036132812 364 256.456054688 335.5 c 128,-1,29
 236.876953125 307 236.876953125 307 223.024414062 247 c 0,24,25
EndSplineSet
Substitution2: "'tnum' Tabular Numbers lookup 26 subtable" cent.tf
Substitution2: "'aalt' Access All Alternates lookup 0 subtable" cent.tf
EndChar

StartChar: sterling
Encoding: 163 163 101
Width: 604
GlyphClass: 2
Flags: W
LayerCount: 2
Fore
SplineSet
550.095703125 191 m 1,0,1
 536.779296875 103 536.779296875 103 489.735351562 46.5 c 128,-1,2
 442.69140625 -10 442.69140625 -10 365.69140625 -10 c 0,3,4
 300.69140625 -10 300.69140625 -10 238.850585938 47 c 1,5,6
 168.69140625 -10 168.69140625 -10 88.69140625 -10 c 0,7,8
 31.69140625 -10 31.69140625 -10 0.462890625 15 c 128,-1,9
 -30.765625 40 -30.765625 40 -19.9140625 87 c 0,10,11
 -8.8330078125 135 -8.8330078125 135 35.8232421875 159.5 c 128,-1,12
 80.4794921875 184 80.4794921875 184 138.479492188 184 c 0,13,14
 164.479492188 184 164.479492188 184 176.249023438 183 c 1,15,16
 182.407226562 227 182.407226562 227 169.565429688 271 c 1,17,-1
 31.5654296875 271 l 1,18,-1
 48.6494140625 345 l 1,19,-1
 137.649414062 345 l 1,20,21
 105.272460938 417 105.272460938 417 119.5859375 479 c 0,22,23
 137.82421875 558 137.82421875 558 215.252929688 614 c 128,-1,24
 292.681640625 670 292.681640625 670 413.681640625 670 c 0,25,26
 520.681640625 670 520.681640625 670 566.29296875 625 c 128,-1,27
 611.903320312 580 611.903320312 580 609.740234375 484 c 1,28,-1
 414.733398438 419 l 1,29,30
 428.435546875 513 428.435546875 513 368.435546875 513 c 0,31,32
 322.435546875 513 322.435546875 513 310.661132812 462 c 0,33,34
 305.120117188 438 305.120117188 438 325.345703125 387 c 0,35,36
 337.34375 361 337.34375 361 341.649414062 345 c 1,37,-1
 525.649414062 345 l 1,38,-1
 508.565429688 271 l 1,39,-1
 350.565429688 271 l 1,40,41
 349.948242188 251 349.948242188 251 343.483398438 223 c 0,42,43
 334.479492188 184 334.479492188 184 314.475585938 145 c 1,44,45
 334.090820312 139 334.090820312 139 359.090820312 139 c 0,46,47
 413.090820312 139 413.090820312 139 423.712890625 211 c 1,48,-1
 550.095703125 191 l 1,0,1
107.083007812 61 m 0,49,50
 124.083007812 61 124.083007812 61 135.506835938 71.5 c 128,-1,51
 146.931640625 82 146.931640625 82 156.93359375 108 c 1,52,53
 141.549804688 115 141.549804688 115 119.549804688 115 c 0,54,55
 84.5498046875 115 84.5498046875 115 78.31640625 88 c 128,-1,56
 72.0830078125 61 72.0830078125 61 107.083007812 61 c 0,49,50
EndSplineSet
Substitution2: "'tnum' Tabular Numbers lookup 26 subtable" sterling.tf
Substitution2: "'aalt' Access All Alternates lookup 0 subtable" sterling.tf
EndChar

StartChar: currency
Encoding: 164 164 102
Width: 604
GlyphClass: 2
Flags: W
LayerCount: 2
Fore
SplineSet
529.186523438 330 m 128,-1,1
 518.797851562 285 518.797851562 285 493.100585938 243 c 1,2,-1
 577.015625 156 l 1,3,-1
 417.233398438 27 l 1,4,-1
 351.3984375 136 l 1,5,6
 313.396484375 123 313.396484375 123 267.396484375 123 c 0,7,8
 224.396484375 123 224.396484375 123 186.3984375 136 c 1,9,-1
 70.2333984375 27 l 1,10,-1
 -28.984375 156 l 1,11,-1
 95.1005859375 243 l 1,12,13
 88.7978515625 285 88.7978515625 285 99.1865234375 330 c 0,14,15
 109.344726562 374 109.344726562 374 135.041015625 416 c 1,16,-1
 51.126953125 503 l 1,17,-1
 209.909179688 632 l 1,18,-1
 275.744140625 523 l 1,19,20
 319.745117188 536 319.745117188 536 362.745117188 536 c 0,21,22
 408.745117188 536 408.745117188 536 440.744140625 523 c 1,23,-1
 556.909179688 632 l 1,24,-1
 657.126953125 503 l 1,25,-1
 532.810546875 415 l 1,26,0
 539.575195312 375 539.575195312 375 529.186523438 330 c 128,-1,1
302.719726562 276 m 0,27,28
 326.719726562 276 326.719726562 276 343.567382812 290.5 c 128,-1,29
 360.415039062 305 360.415039062 305 366.186523438 330 c 128,-1,30
 371.958007812 355 371.958007812 355 361.805664062 369.5 c 128,-1,31
 351.653320312 384 351.653320312 384 327.653320312 384 c 0,32,33
 302.653320312 384 302.653320312 384 285.305664062 369.5 c 128,-1,34
 267.958007812 355 267.958007812 355 262.186523438 330 c 128,-1,35
 256.415039062 305 256.415039062 305 267.067382812 290.5 c 128,-1,36
 277.719726562 276 277.719726562 276 302.719726562 276 c 0,27,28
EndSplineSet
Substitution2: "'tnum' Tabular Numbers lookup 26 subtable" currency.tf
Substitution2: "'aalt' Access All Alternates lookup 0 subtable" currency.tf
EndChar

StartChar: yen
Encoding: 165 165 103
Width: 604
GlyphClass: 2
Flags: W
LayerCount: 2
Fore
SplineSet
434.569335938 310 m 1,0,-1
 574.569335938 310 l 1,1,-1
 560.948242188 251 l 1,2,-1
 404.948242188 251 l 1,3,-1
 390.865234375 190 l 1,4,-1
 546.865234375 190 l 1,5,-1
 533.244140625 131 l 1,6,-1
 377.244140625 131 l 1,7,-1
 347 0 l 1,8,-1
 129 0 l 1,9,-1
 159.244140625 131 l 1,10,-1
 3.244140625 131 l 1,11,-1
 16.865234375 190 l 1,12,-1
 172.865234375 190 l 1,13,-1
 186.948242188 251 l 1,14,-1
 30.9482421875 251 l 1,15,-1
 44.5693359375 310 l 1,16,-1
 184.569335938 310 l 1,17,-1
 100.373046875 660 l 1,18,-1
 305.373046875 660 l 1,19,-1
 321.431640625 474 l 1,20,-1
 321.959960938 368 l 1,21,-1
 323.959960938 368 l 1,22,-1
 373.431640625 474 l 1,23,-1
 475.373046875 660 l 1,24,-1
 680.373046875 660 l 1,25,-1
 434.569335938 310 l 1,0,-1
EndSplineSet
Substitution2: "'tnum' Tabular Numbers lookup 26 subtable" yen.tf
Substitution2: "'aalt' Access All Alternates lookup 0 subtable" yen.tf
EndChar

StartChar: brokenbar
Encoding: 166 166 104
Width: 284
GlyphClass: 2
Flags: W
LayerCount: 2
Fore
SplineSet
341.838867188 701 m 1,0,-1
 251.569335938 310 l 1,1,-1
 47.5693359375 310 l 1,2,-1
 137.838867188 701 l 1,3,-1
 341.838867188 701 l 1,0,-1
231.483398438 223 m 1,4,-1
 141.213867188 -168 l 1,5,-1
 -62.7861328125 -168 l 1,6,-1
 27.4833984375 223 l 1,7,-1
 231.483398438 223 l 1,4,-1
EndSplineSet
EndChar

StartChar: section
Encoding: 167 167 105
Width: 639
GlyphClass: 2
Flags: W
LayerCount: 2
Fore
SplineSet
621.104492188 282 m 0,0,1
 598.7109375 185 598.7109375 185 519.244140625 131 c 1,2,3
 522.471679688 106 522.471679688 106 515.083984375 74 c 0,4,5
 494.305664062 -16 494.305664062 -16 418.455078125 -63 c 128,-1,6
 342.604492188 -110 342.604492188 -110 224.604492188 -110 c 0,7,8
 131.604492188 -110 131.604492188 -110 82.68359375 -88 c 128,-1,9
 33.7626953125 -66 33.7626953125 -66 1.0751953125 -17 c 1,10,-1
 131.854492188 86 l 1,11,12
 151.466796875 54 151.466796875 54 177.965820312 41 c 128,-1,13
 204.463867188 28 204.463867188 28 254.463867188 28 c 128,-1,14
 304.463867188 28 304.463867188 28 326.618164062 33 c 128,-1,15
 348.7734375 38 348.7734375 38 352.236328125 53 c 0,16,17
 358.700195312 81 358.700195312 81 250.546875 89 c 0,18,19
 109.85546875 99 109.85546875 99 53.3984375 142.5 c 128,-1,20
 -3.05859375 186 -3.05859375 186 14.94921875 264 c 0,21,22
 37.1123046875 360 37.1123046875 360 117.041015625 416 c 1,23,24
 114.043945312 442 114.043945312 442 120.969726562 472 c 0,25,26
 141.978515625 563 141.978515625 563 220.330078125 616.5 c 128,-1,27
 298.681640625 670 298.681640625 670 414.681640625 670 c 0,28,29
 507.681640625 670 507.681640625 670 556.602539062 648 c 128,-1,30
 605.5234375 626 605.5234375 626 638.2109375 577 c 1,31,-1
 507.431640625 474 l 1,32,33
 487.819335938 506 487.819335938 506 461.3203125 519 c 128,-1,34
 434.822265625 532 434.822265625 532 384.822265625 532 c 0,35,36
 340.822265625 532 340.822265625 532 314.282226562 521 c 128,-1,37
 287.743164062 510 287.743164062 510 283.818359375 493 c 0,38,39
 277.584960938 466 277.584960938 466 385.506835938 457 c 0,40,41
 525.966796875 446 525.966796875 446 582.540039062 403 c 128,-1,42
 639.112304688 360 639.112304688 360 621.104492188 282 c 0,0,1
286.640625 254 m 0,43,44
 388.5625 245 388.5625 245 442.791015625 220 c 1,45,46
 460.099609375 230 460.099609375 230 463.5625 245 c 0,47,48
 467.94921875 264 467.94921875 264 442.98828125 275 c 128,-1,49
 418.028320312 286 418.028320312 286 349.413085938 292 c 0,50,51
 247.491210938 301 247.491210938 301 193.262695312 326 c 1,52,53
 175.954101562 316 175.954101562 316 172.491210938 301 c 0,54,55
 168.104492188 282 168.104492188 282 193.065429688 271 c 128,-1,56
 218.025390625 260 218.025390625 260 286.640625 254 c 0,43,44
EndSplineSet
EndChar

StartChar: dieresis
Encoding: 168 168 106
Width: 500
GlyphClass: 2
Flags: W
LayerCount: 2
Fore
SplineSet
232.224609375 720 m 0,0,1
 282.224609375 720 282.224609375 720 304.299804688 696.5 c 128,-1,2
 326.374023438 673 326.374023438 673 316.215820312 629 c 128,-1,3
 306.057617188 585 306.057617188 585 273.1328125 561.5 c 128,-1,4
 240.20703125 538 240.20703125 538 190.20703125 538 c 0,5,6
 141.20703125 538 141.20703125 538 120.248046875 562 c 128,-1,7
 99.2890625 586 99.2890625 586 109.215820312 629 c 128,-1,8
 119.143554688 672 119.143554688 672 151.184570312 696 c 128,-1,9
 183.224609375 720 183.224609375 720 232.224609375 720 c 0,0,1
469.224609375 720 m 0,10,11
 519.224609375 720 519.224609375 720 541.299804688 696.5 c 128,-1,12
 563.374023438 673 563.374023438 673 553.215820312 629 c 128,-1,13
 543.057617188 585 543.057617188 585 510.1328125 561.5 c 128,-1,14
 477.20703125 538 477.20703125 538 427.20703125 538 c 0,15,16
 378.20703125 538 378.20703125 538 357.248046875 562 c 128,-1,17
 336.2890625 586 336.2890625 586 346.215820312 629 c 128,-1,18
 356.143554688 672 356.143554688 672 388.184570312 696 c 128,-1,19
 420.224609375 720 420.224609375 720 469.224609375 720 c 0,10,11
EndSplineSet
EndChar

StartChar: copyright
Encoding: 169 169 107
Width: 740
GlyphClass: 2
Flags: W
LayerCount: 2
Fore
SplineSet
460.681640625 670 m 128,-1,1
 617.681640625 670 617.681640625 670 690.7109375 577 c 128,-1,2
 763.740234375 484 763.740234375 484 728.186523438 330 c 128,-1,3
 692.6328125 176 692.6328125 176 576.662109375 83 c 128,-1,4
 460.69140625 -10 460.69140625 -10 303.69140625 -10 c 128,-1,5
 146.69140625 -10 146.69140625 -10 73.662109375 83 c 128,-1,6
 0.6328125 176 0.6328125 176 36.1865234375 330 c 128,-1,7
 71.740234375 484 71.740234375 484 187.7109375 577 c 128,-1,0
 303.681640625 670 303.681640625 670 460.681640625 670 c 128,-1,1
440.130859375 542 m 0,8,9
 339.130859375 542 339.130859375 542 267.970703125 485 c 128,-1,10
 196.811523438 428 196.811523438 428 174.6484375 332 c 128,-1,11
 152.485351562 236 152.485351562 236 197.325195312 179 c 128,-1,12
 242.166015625 122 242.166015625 122 343.166015625 122 c 0,13,14
 426.166015625 122 426.166015625 122 482.400390625 155.5 c 128,-1,15
 538.633789062 189 538.633789062 189 582.1796875 265 c 1,16,-1
 474.337890625 309 l 1,17,18
 455.719726562 276 455.719726562 276 433.833984375 263.5 c 128,-1,19
 411.948242188 251 411.948242188 251 379.948242188 251 c 0,20,21
 297.948242188 251 297.948242188 251 316.186523438 330 c 0,22,23
 325.190429688 369 325.190429688 369 351.0390625 390 c 128,-1,24
 376.88671875 411 376.88671875 411 416.88671875 411 c 0,25,26
 447.88671875 411 447.88671875 411 461.462890625 400.5 c 128,-1,27
 475.0390625 390 475.0390625 390 480.57421875 362 c 1,28,-1
 601.118164062 412 l 1,29,30
 594.130859375 542 594.130859375 542 440.130859375 542 c 0,8,9
EndSplineSet
EndChar

StartChar: ordfeminine
Encoding: 170 170 108
Width: 476
GlyphClass: 2
Flags: W
LayerCount: 2
Fore
SplineSet
215.356445312 491 m 2,0,-1
 290.049804688 507 l 1,1,-1
 292.8203125 519 l 2,2,3
 300.901367188 554 300.901367188 554 268.901367188 554 c 0,4,5
 231.901367188 554 231.901367188 554 220.743164062 510 c 1,6,-1
 88.5908203125 531 l 1,7,8
 107.673828125 592 107.673828125 592 162.0234375 626 c 128,-1,9
 216.373046875 660 216.373046875 660 302.373046875 660 c 0,10,11
 398.373046875 660 398.373046875 660 435.446289062 623.5 c 128,-1,12
 472.51953125 587 472.51953125 587 455.435546875 513 c 2,13,-1
 433.041015625 416 l 2,14,15
 426.115234375 386 426.115234375 386 451.115234375 386 c 0,16,17
 463.115234375 386 463.115234375 386 469.807617188 389 c 1,18,-1
 437.645507812 306 l 1,19,20
 408.413085938 292 408.413085938 292 368.413085938 292 c 0,21,22
 287.413085938 292 287.413085938 292 281.03515625 351 c 1,23,24
 231.413085938 292 231.413085938 292 139.413085938 292 c 0,25,26
 29.4130859375 292 29.4130859375 292 48.806640625 376 c 0,27,28
 59.1953125 421 59.1953125 421 97.4287109375 448 c 128,-1,29
 135.662109375 475 135.662109375 475 215.356445312 491 c 2,0,-1
229.9609375 381 m 0,30,31
 260.9609375 381 260.9609375 381 269.041015625 416 c 2,32,-1
 276.890625 450 l 1,33,-1
 251.274414062 443 l 2,34,35
 216.965820312 433 216.965820312 433 210.732421875 406 c 0,36,37
 204.9609375 381 204.9609375 381 229.9609375 381 c 0,30,31
2.01171875 117 m 1,38,-1
 28.099609375 230 l 1,39,-1
 424.099609375 230 l 1,40,-1
 398.01171875 117 l 1,41,-1
 2.01171875 117 l 1,38,-1
EndSplineSet
EndChar

StartChar: guillemotleft
Encoding: 171 171 109
Width: 647
GlyphClass: 2
Flags: W
LayerCount: 2
Fore
SplineSet
379.430664062 461 m 1,0,-1
 218.1796875 265 l 1,1,-1
 288.9296875 69 l 1,2,-1
 100.9296875 69 l 1,3,-1
 21.1796875 265 l 1,4,-1
 191.430664062 461 l 1,5,-1
 379.430664062 461 l 1,0,-1
665.430664062 461 m 1,6,-1
 504.1796875 265 l 1,7,-1
 574.9296875 69 l 1,8,-1
 386.9296875 69 l 1,9,-1
 307.1796875 265 l 1,10,-1
 477.430664062 461 l 1,11,-1
 665.430664062 461 l 1,6,-1
EndSplineSet
Substitution2: "'case' Case-Sensitive Forms lookup 29 subtable" guillemotleft.case
Substitution2: "'aalt' Access All Alternates lookup 0 subtable" guillemotleft.case
EndChar

StartChar: logicalnot
Encoding: 172 172 110
Width: 604
GlyphClass: 2
Flags: W
LayerCount: 2
Fore
SplineSet
89.962890625 407 m 1,0,-1
 573.962890625 407 l 1,1,-1
 497.315429688 75 l 1,2,-1
 322.315429688 75 l 1,3,-1
 363.640625 254 l 1,4,-1
 54.640625 254 l 1,5,-1
 89.962890625 407 l 1,0,-1
EndSplineSet
EndChar

StartChar: uni00AD
Encoding: 173 173 111
Width: 540
GlyphClass: 2
Flags: W
LayerCount: 2
Fore
SplineSet
483.881835938 359 m 1,0,-1
 443.479492188 184 l 1,1,-1
 53.4794921875 184 l 1,2,-1
 93.8818359375 359 l 1,3,-1
 483.881835938 359 l 1,0,-1
EndSplineSet
EndChar

StartChar: registered
Encoding: 174 174 112
Width: 740
GlyphClass: 2
Flags: W
LayerCount: 2
Fore
SplineSet
460.681640625 670 m 128,-1,1
 617.681640625 670 617.681640625 670 690.7109375 577 c 128,-1,2
 763.740234375 484 763.740234375 484 728.186523438 330 c 128,-1,3
 692.6328125 176 692.6328125 176 576.662109375 83 c 128,-1,4
 460.69140625 -10 460.69140625 -10 303.69140625 -10 c 128,-1,5
 146.69140625 -10 146.69140625 -10 73.662109375 83 c 128,-1,6
 0.6328125 176 0.6328125 176 36.1865234375 330 c 128,-1,7
 71.740234375 484 71.740234375 484 187.7109375 577 c 128,-1,0
 303.681640625 670 303.681640625 670 460.681640625 670 c 128,-1,1
486.744140625 523 m 2,8,-1
 265.744140625 523 l 1,9,-1
 182.631835938 163 l 1,10,-1
 316.631835938 163 l 1,11,-1
 343.874023438 281 l 1,12,-1
 363.874023438 281 l 1,13,-1
 387.631835938 163 l 1,14,-1
 547.631835938 163 l 1,15,-1
 486.64453125 293 l 1,16,17
 565.108398438 321 565.108398438 321 583.80859375 402 c 0,18,19
 595.583007812 453 595.583007812 453 567.1640625 488 c 128,-1,20
 538.744140625 523 538.744140625 523 486.744140625 523 c 2,8,-1
425.581054688 427 m 2,21,22
 462.581054688 427 462.581054688 427 454.0390625 390 c 128,-1,23
 445.49609375 353 445.49609375 353 408.49609375 353 c 2,24,-1
 360.49609375 353 l 1,25,-1
 377.581054688 427 l 1,26,-1
 425.581054688 427 l 2,21,22
EndSplineSet
Substitution2: "'ordn' Ordinals lookup 22 subtable" registeredsuperior
Substitution2: "'sups' Superscript lookup 15 subtable" registeredsuperior
Substitution2: "'aalt' Access All Alternates lookup 0 subtable" registeredsuperior
EndChar

StartChar: macron
Encoding: 175 175 113
Width: 500
GlyphClass: 2
Flags: W
LayerCount: 2
Fore
SplineSet
537.221679688 681 m 1,0,-1
 507.208007812 551 l 1,1,-1
 119.208007812 551 l 1,2,-1
 149.221679688 681 l 1,3,-1
 537.221679688 681 l 1,0,-1
EndSplineSet
EndChar

StartChar: degree
Encoding: 176 176 114
Width: 519
GlyphClass: 2
Flags: W
LayerCount: 2
Fore
SplineSet
258.333984375 270 m 0,0,1
 153.333984375 270 153.333984375 270 106.0703125 323 c 128,-1,2
 58.806640625 376 58.806640625 376 80.5078125 470 c 0,3,4
 101.978515625 563 101.978515625 563 173.830078125 616.5 c 128,-1,5
 245.681640625 670 245.681640625 670 350.681640625 670 c 0,6,7
 454.681640625 670 454.681640625 670 501.830078125 616.5 c 128,-1,8
 548.978515625 563 548.978515625 563 527.5078125 470 c 0,9,10
 505.806640625 376 505.806640625 376 434.0703125 323 c 128,-1,11
 362.333984375 270 362.333984375 270 258.333984375 270 c 0,0,1
290.194335938 408 m 128,-1,13
 319.194335938 408 319.194335938 408 340.734375 425.5 c 128,-1,14
 362.274414062 443 362.274414062 443 368.739257812 471 c 128,-1,15
 375.203125 499 375.203125 499 361.627929688 516 c 128,-1,16
 348.052734375 533 348.052734375 533 319.052734375 533 c 128,-1,17
 290.052734375 533 290.052734375 533 268.127929688 516 c 128,-1,18
 246.203125 499 246.203125 499 239.739257812 471 c 128,-1,19
 233.274414062 443 233.274414062 443 247.234375 425.5 c 128,-1,12
 261.194335938 408 261.194335938 408 290.194335938 408 c 128,-1,13
EndSplineSet
EndChar

StartChar: plusminus
Encoding: 177 177 115
Width: 604
GlyphClass: 2
Flags: W
LayerCount: 2
Fore
SplineSet
432.819335938 506 m 1,0,-1
 611.819335938 506 l 1,1,-1
 578.112304688 360 l 1,2,-1
 399.112304688 360 l 1,3,-1
 363.55859375 206 l 1,4,-1
 208.55859375 206 l 1,5,-1
 244.112304688 360 l 1,6,-1
 64.1123046875 360 l 1,7,-1
 97.8193359375 506 l 1,8,-1
 277.819335938 506 l 1,9,-1
 313.373046875 660 l 1,10,-1
 468.373046875 660 l 1,11,-1
 432.819335938 506 l 1,0,-1
-18.76953125 1 m 1,12,-1
 13.552734375 141 l 1,13,-1
 527.552734375 141 l 1,14,-1
 495.23046875 1 l 1,15,-1
 -18.76953125 1 l 1,12,-1
EndSplineSet
EndChar

StartChar: uni00B2
Encoding: 178 178 116
Width: 410
GlyphClass: 2
Flags: W
LayerCount: 2
Fore
SplineSet
34.87890625 333 m 1,0,-1
 57.2734375 430 l 1,1,2
 112.12109375 451 112.12109375 451 153.969726562 472 c 0,3,4
 281.9765625 537 281.9765625 537 293.981445312 589 c 0,5,6
 300.21484375 616 300.21484375 616 274.21484375 616 c 0,7,8
 238.21484375 616 238.21484375 616 226.208007812 551 c 1,9,-1
 78.9814453125 589 l 1,10,11
 95.142578125 659 95.142578125 659 154.915039062 697 c 128,-1,12
 214.688476562 735 214.688476562 735 303.688476562 735 c 0,13,14
 403.688476562 735 403.688476562 735 440.684570312 696 c 128,-1,15
 477.680664062 657 477.680664062 657 465.213867188 603 c 0,16,17
 449.9765625 537 449.9765625 537 375.279296875 495 c 0,18,19
 331.5078125 470 331.5078125 470 271.814453125 454 c 1,20,-1
 271.352539062 452 l 1,21,22
 317.506835938 457 317.506835938 457 382.506835938 457 c 2,23,-1
 433.506835938 457 l 1,24,-1
 404.87890625 333 l 1,25,-1
 34.87890625 333 l 1,0,-1
EndSplineSet
EndChar

StartChar: uni00B3
Encoding: 179 179 117
Width: 391
GlyphClass: 2
Flags: W
LayerCount: 2
Fore
SplineSet
297.688476562 735 m 0,0,1
 471.688476562 735 471.688476562 735 444.907226562 619 c 0,2,3
 426.4375 539 426.4375 539 338.052734375 533 c 1,4,-1
 336.8984375 528 l 1,5,6
 430.8984375 528 430.8984375 528 412.66015625 449 c 0,7,8
 399.5 392 399.5 392 346.997070312 359.5 c 128,-1,9
 294.494140625 327 294.494140625 327 213.494140625 327 c 0,10,11
 129.494140625 327 129.494140625 327 85.53515625 351 c 128,-1,12
 41.5751953125 375 41.5751953125 375 34.50390625 431 c 1,13,-1
 193.278320312 482 l 1,14,15
 181.889648438 437 181.889648438 437 223.889648438 437 c 0,16,17
 254.889648438 437 254.889648438 437 261.353515625 465 c 0,18,19
 266.6640625 488 266.6640625 488 235.6640625 488 c 2,20,-1
 213.6640625 488 l 1,21,-1
 230.748046875 562 l 1,22,-1
 248.748046875 562 l 2,23,24
 278.748046875 562 278.748046875 562 285.211914062 590 c 0,25,26
 291.4453125 617 291.4453125 617 264.4453125 617 c 0,27,28
 227.4453125 617 227.4453125 617 215.826171875 571 c 1,29,-1
 85.21484375 616 l 1,30,31
 107.297851562 677 107.297851562 677 164.493164062 706 c 128,-1,32
 221.688476562 735 221.688476562 735 297.688476562 735 c 0,0,1
EndSplineSet
EndChar

StartChar: acute
Encoding: 180 180 118
Width: 500
GlyphClass: 2
Flags: W
LayerCount: 2
Fore
SplineSet
331.534179688 730 m 1,0,-1
 536.534179688 730 l 1,1,-1
 392.669921875 553 l 1,2,-1
 230.669921875 553 l 1,3,-1
 331.534179688 730 l 1,0,-1
EndSplineSet
EndChar

StartChar: uni00B5
Encoding: 181 181 119
Width: 621
GlyphClass: 2
Flags: W
LayerCount: 2
Fore
SplineSet
403.434570312 500 m 1,0,-1
 633.434570312 500 l 1,1,-1
 518 0 l 1,2,-1
 311 0 l 1,3,-1
 328.39453125 97 l 1,4,5
 278.078125 9 278.078125 9 203.615234375 -6 c 1,6,-1
 156.517578125 -210 l 1,7,-1
 -73.482421875 -210 l 1,8,-1
 90.4345703125 500 l 1,9,-1
 320.434570312 500 l 1,10,-1
 255.560546875 219 l 2,11,12
 247.94140625 186 247.94140625 186 253.440429688 173 c 128,-1,13
 258.938476562 160 258.938476562 160 278.938476562 160 c 0,14,15
 324.938476562 160 324.938476562 160 343.177734375 239 c 2,16,-1
 403.434570312 500 l 1,0,-1
EndSplineSet
EndChar

StartChar: paragraph
Encoding: 182 182 120
Width: 809
GlyphClass: 2
Flags: W
LayerCount: 2
Fore
SplineSet
847.373046875 660 m 1,0,-1
 671.913085938 -100 l 1,1,-1
 488.913085938 -100 l 1,2,-1
 624.6640625 488 l 1,3,-1
 530.6640625 488 l 1,4,-1
 394.913085938 -100 l 1,5,-1
 211.913085938 -100 l 1,6,-1
 286.71484375 224 l 1,7,8
 151.9453125 225 151.9453125 225 97.06640625 277.5 c 128,-1,9
 42.1865234375 330 42.1865234375 330 67.8125 441 c 0,10,11
 93.669921875 553 93.669921875 553 176.521484375 606.5 c 128,-1,12
 259.373046875 660 259.373046875 660 408.373046875 660 c 2,13,-1
 847.373046875 660 l 1,0,-1
EndSplineSet
Substitution2: "'ornm' Ornaments lookup 40 subtable" uni2761
Substitution2: "'aalt' Access All Alternates lookup 0 subtable" uni2761
EndChar

StartChar: periodcentered
Encoding: 183 183 121
Width: 306
GlyphClass: 2
Flags: W
LayerCount: 2
Fore
SplineSet
194.96875 459 m 128,-1,1
 253.96875 459 253.96875 459 279.50390625 431 c 128,-1,2
 305.040039062 403 305.040039062 403 293.265625 352 c 128,-1,3
 281.491210938 301 281.491210938 301 243.02734375 273 c 128,-1,4
 204.5625 245 204.5625 245 145.5625 245 c 128,-1,5
 86.5625 245 86.5625 245 61.02734375 273 c 128,-1,6
 35.4912109375 301 35.4912109375 301 47.265625 352 c 128,-1,7
 59.0400390625 403 59.0400390625 403 97.50390625 431 c 128,-1,0
 135.96875 459 135.96875 459 194.96875 459 c 128,-1,1
EndSplineSet
Substitution2: "Single Substitution lookup 55 subtable" periodcentered.loclCAT.sc
Substitution2: "Single Substitution lookup 54 subtable" periodcentered.loclCAT.case
Substitution2: "Single Substitution lookup 53 subtable" periodcentered.loclCAT
Substitution2: "'case' Case-Sensitive Forms lookup 29 subtable" periodcentered.case
Substitution2: "'smcp' Lowercase to Small Capitals lookup 12 subtable" periodcentered.sc
Substitution2: "'c2sc' Capitals to Small Capitals lookup 11 subtable" periodcentered.sc
AlternateSubs2: "'aalt' Access All Alternates lookup 1 subtable" periodcentered.sc periodcentered.case
Position2: "Single Positioning lookup 6 subtable" dx=0 dy=0 dh=-30 dv=0
EndChar

StartChar: cedilla
Encoding: 184 184 122
Width: 500
GlyphClass: 2
Flags: W
LayerCount: 2
Fore
SplineSet
104.461914062 2 m 1,0,-1
 153.696289062 42 l 1,1,2
 246.311523438 36 246.311523438 36 289.115234375 0.5 c 128,-1,3
 331.919921875 -35 331.919921875 -35 319.221679688 -90 c 0,4,5
 290.36328125 -215 290.36328125 -215 129.36328125 -215 c 0,6,7
 41.36328125 -215 41.36328125 -215 5.521484375 -171 c 1,8,-1
 72.4541015625 -76 l 1,9,10
 93.9892578125 -104 93.9892578125 -104 139.989257812 -104 c 0,11,12
 164.989257812 -104 164.989257812 -104 182.14453125 -92.5 c 128,-1,13
 199.299804688 -81 199.299804688 -81 204.147460938 -60 c 0,14,15
 215.229492188 -12 215.229492188 -12 104.461914062 2 c 1,0,-1
EndSplineSet
EndChar

StartChar: uni00B9
Encoding: 185 185 123
Width: 335
GlyphClass: 2
Flags: W
LayerCount: 2
Fore
SplineSet
272.534179688 730 m 1,0,-1
 405.534179688 730 l 1,1,-1
 313.87890625 333 l 1,2,-1
 155.87890625 333 l 1,3,-1
 200.436523438 526 l 2,4,5
 205.977539062 550 205.977539062 550 217.51953125 587 c 1,6,7
 146.592773438 544 146.592773438 544 86.361328125 543 c 1,8,-1
 116.143554688 672 l 1,9,10
 152.8359375 675 152.8359375 675 202.107421875 693.5 c 128,-1,11
 251.377929688 712 251.377929688 712 272.534179688 730 c 1,0,-1
EndSplineSet
EndChar

StartChar: ordmasculine
Encoding: 186 186 124
Width: 464
GlyphClass: 2
Flags: W
LayerCount: 2
Fore
SplineSet
235.413085938 292 m 128,-1,1
 143.413085938 292 143.413085938 292 101.610351562 340.5 c 128,-1,2
 59.8076171875 389 59.8076171875 389 79.8935546875 476 c 128,-1,3
 99.978515625 563 99.978515625 563 164.17578125 611.5 c 128,-1,4
 228.373046875 660 228.373046875 660 320.373046875 660 c 128,-1,5
 412.373046875 660 412.373046875 660 454.17578125 611.5 c 128,-1,6
 495.978515625 563 495.978515625 563 475.893554688 476 c 128,-1,7
 455.807617188 389 455.807617188 389 391.610351562 340.5 c 128,-1,0
 327.413085938 292 327.413085938 292 235.413085938 292 c 128,-1,1
258.5 392 m 128,-1,9
 277.5 392 277.5 392 289.15625 410 c 128,-1,10
 300.811523438 428 300.811523438 428 311.893554688 476 c 128,-1,11
 322.974609375 524 322.974609375 524 319.630859375 542 c 128,-1,12
 316.286132812 560 316.286132812 560 297.286132812 560 c 128,-1,13
 278.286132812 560 278.286132812 560 266.514648438 541.5 c 128,-1,14
 254.744140625 523 254.744140625 523 243.893554688 476 c 128,-1,15
 233.041992188 429 233.041992188 429 236.271484375 410.5 c 128,-1,8
 239.5 392 239.5 392 258.5 392 c 128,-1,9
-0.98828125 117 m 1,16,-1
 25.099609375 230 l 1,17,-1
 417.099609375 230 l 1,18,-1
 391.01171875 117 l 1,19,-1
 -0.98828125 117 l 1,16,-1
EndSplineSet
EndChar

StartChar: guillemotright
Encoding: 187 187 125
Width: 647
GlyphClass: 2
Flags: W
LayerCount: 2
Fore
SplineSet
66.4306640625 461 m 1,0,-1
 254.430664062 461 l 1,1,-1
 334.1796875 265 l 1,2,-1
 163.9296875 69 l 1,3,-1
 -24.0703125 69 l 1,4,-1
 137.1796875 265 l 1,5,-1
 66.4306640625 461 l 1,0,-1
352.430664062 461 m 1,6,-1
 540.430664062 461 l 1,7,-1
 620.1796875 265 l 1,8,-1
 449.9296875 69 l 1,9,-1
 261.9296875 69 l 1,10,-1
 423.1796875 265 l 1,11,-1
 352.430664062 461 l 1,6,-1
EndSplineSet
Substitution2: "'case' Case-Sensitive Forms lookup 29 subtable" guillemotright.case
Substitution2: "'aalt' Access All Alternates lookup 0 subtable" guillemotright.case
EndChar

StartChar: onequarter
Encoding: 188 188 126
Width: 949
GlyphClass: 2
Flags: W
LayerCount: 2
Fore
SplineSet
140.873046875 268 m 1,0,-1
 185.430664062 461 l 2,1,2
 190.740234375 484 190.740234375 484 202.513671875 522 c 1,3,4
 131.5859375 479 131.5859375 479 71.35546875 478 c 1,5,-1
 101.13671875 607 l 1,6,7
 137.830078125 610 137.830078125 610 187.100585938 628.5 c 128,-1,8
 236.372070312 647 236.372070312 647 257.52734375 665 c 1,9,-1
 390.52734375 665 l 1,10,-1
 298.873046875 268 l 1,11,-1
 140.873046875 268 l 1,0,-1
724.603515625 661 m 1,12,-1
 871.603515625 661 l 1,13,-1
 243 0 l 1,14,-1
 96 0 l 1,15,-1
 724.603515625 661 l 1,12,-1
859.170898438 174 m 1,16,-1
 912.170898438 174 l 1,17,-1
 888.391601562 71 l 1,18,-1
 835.391601562 71 l 1,19,-1
 818.076171875 -4 l 1,20,-1
 678.076171875 -4 l 1,21,-1
 695.391601562 71 l 1,22,-1
 493.391601562 71 l 1,23,-1
 509.552734375 141 l 1,24,-1
 715.961914062 394 l 1,25,-1
 909.961914062 394 l 1,26,-1
 859.170898438 174 l 1,16,-1
731.407226562 227 m 2,27,28
 733.946289062 238 733.946289062 238 753.569335938 310 c 1,29,-1
 750.569335938 310 l 1,30,31
 733.874023438 281 733.874023438 281 707.024414062 247 c 2,32,-1
 649.170898438 174 l 1,33,-1
 719.170898438 174 l 1,34,-1
 731.407226562 227 l 2,27,28
EndSplineSet
EndChar

StartChar: onehalf
Encoding: 189 189 127
Width: 1018
GlyphClass: 2
Flags: W
LayerCount: 2
Fore
SplineSet
140.873046875 268 m 1,0,-1
 185.430664062 461 l 2,1,2
 190.740234375 484 190.740234375 484 202.513671875 522 c 1,3,4
 131.5859375 479 131.5859375 479 71.35546875 478 c 1,5,-1
 101.13671875 607 l 1,6,7
 137.830078125 610 137.830078125 610 187.100585938 628.5 c 128,-1,8
 236.372070312 647 236.372070312 647 257.52734375 665 c 1,9,-1
 390.52734375 665 l 1,10,-1
 298.873046875 268 l 1,11,-1
 140.873046875 268 l 1,0,-1
724.603515625 661 m 1,12,-1
 871.603515625 661 l 1,13,-1
 243 0 l 1,14,-1
 96 0 l 1,15,-1
 724.603515625 661 l 1,12,-1
912.704101562 120 m 2,16,-1
 963.704101562 120 l 1,17,-1
 935.076171875 -4 l 1,18,-1
 565.076171875 -4 l 1,19,-1
 587.470703125 93 l 1,20,21
 642.319335938 114 642.319335938 114 684.166992188 135 c 0,22,23
 812.173828125 200 812.173828125 200 824.178710938 252 c 0,24,25
 830.412109375 279 830.412109375 279 804.412109375 279 c 0,26,27
 768.412109375 279 768.412109375 279 756.40625 214 c 1,28,-1
 609.178710938 252 l 1,29,30
 625.33984375 322 625.33984375 322 685.112304688 360 c 128,-1,31
 744.885742188 398 744.885742188 398 833.885742188 398 c 0,32,33
 933.885742188 398 933.885742188 398 970.881835938 359 c 128,-1,34
 1007.87792969 320 1007.87792969 320 995.411132812 266 c 0,35,36
 980.173828125 200 980.173828125 200 905.477539062 158 c 0,37,38
 861.705078125 133 861.705078125 133 802.01171875 117 c 1,39,-1
 801.549804688 115 l 1,40,41
 847.704101562 120 847.704101562 120 912.704101562 120 c 2,16,-1
EndSplineSet
EndChar

StartChar: threequarters
Encoding: 190 190 128
Width: 1005
GlyphClass: 2
Flags: W
LayerCount: 2
Fore
SplineSet
282.681640625 670 m 0,0,1
 456.681640625 670 456.681640625 670 429.901367188 554 c 0,2,3
 411.431640625 474 411.431640625 474 323.045898438 468 c 1,4,-1
 321.891601562 463 l 1,5,6
 415.891601562 463 415.891601562 463 397.653320312 384 c 0,7,8
 384.494140625 327 384.494140625 327 331.990234375 294.5 c 128,-1,9
 279.487304688 262 279.487304688 262 198.487304688 262 c 0,10,11
 114.487304688 262 114.487304688 262 70.5283203125 286 c 128,-1,12
 26.5693359375 310 26.5693359375 310 19.498046875 366 c 1,13,-1
 178.272460938 417 l 1,14,15
 166.8828125 372 166.8828125 372 208.8828125 372 c 0,16,17
 239.8828125 372 239.8828125 372 246.34765625 400 c 0,18,19
 251.657226562 423 251.657226562 423 220.657226562 423 c 2,20,-1
 198.657226562 423 l 1,21,-1
 215.741210938 497 l 1,22,-1
 233.741210938 497 l 2,23,24
 263.741210938 497 263.741210938 497 270.206054688 525 c 0,25,26
 276.439453125 552 276.439453125 552 249.439453125 552 c 0,27,28
 212.439453125 552 212.439453125 552 200.819335938 506 c 1,29,-1
 70.2080078125 551 l 1,30,31
 92.291015625 612 92.291015625 612 149.486328125 641 c 128,-1,32
 206.681640625 670 206.681640625 670 282.681640625 670 c 0,0,1
152 0 m 1,33,-1
 780.603515625 661 l 1,34,-1
 927.603515625 661 l 1,35,-1
 299 0 l 1,36,-1
 152 0 l 1,33,-1
968.170898438 174 m 1,37,-1
 944.391601562 71 l 1,38,-1
 891.391601562 71 l 1,39,-1
 874.076171875 -4 l 1,40,-1
 734.076171875 -4 l 1,41,-1
 751.391601562 71 l 1,42,-1
 549.391601562 71 l 1,43,-1
 565.552734375 141 l 1,44,-1
 771.961914062 394 l 1,45,-1
 965.961914062 394 l 1,46,-1
 915.170898438 174 l 1,47,-1
 968.170898438 174 l 1,37,-1
705.170898438 174 m 1,48,-1
 775.170898438 174 l 1,49,-1
 787.407226562 227 l 2,50,51
 789.946289062 238 789.946289062 238 809.569335938 310 c 1,52,-1
 806.569335938 310 l 1,53,54
 789.874023438 281 789.874023438 281 763.024414062 247 c 2,55,-1
 705.170898438 174 l 1,48,-1
EndSplineSet
EndChar

StartChar: questiondown
Encoding: 191 191 129
Width: 651
GlyphClass: 2
Flags: W
LayerCount: 2
Fore
SplineSet
346.954101562 316 m 128,-1,1
 290.954101562 316 290.954101562 316 266.225585938 341 c 128,-1,2
 241.498046875 366 241.498046875 366 252.118164062 412 c 128,-1,3
 262.737304688 458 262.737304688 458 299.009765625 483 c 128,-1,4
 335.28125 508 335.28125 508 391.28125 508 c 128,-1,5
 447.28125 508 447.28125 508 472.009765625 483 c 128,-1,6
 496.737304688 458 496.737304688 458 486.118164062 412 c 128,-1,7
 475.498046875 366 475.498046875 366 439.225585938 341 c 128,-1,0
 402.954101562 316 402.954101562 316 346.954101562 316 c 128,-1,1
216.983398438 -169 m 0,8,9
 -66.0166015625 -169 -66.0166015625 -169 -22.3828125 20 c 0,10,11
 -0.6806640625 114 -0.6806640625 114 59.861328125 157.5 c 128,-1,12
 120.404296875 201 120.404296875 201 213.712890625 211 c 1,13,-1
 247.3359375 283 l 1,14,-1
 434.3359375 283 l 1,15,-1
 414.782226562 129 l 1,16,17
 251.858398438 125 251.858398438 125 235.928710938 56 c 0,18,19
 225.5390625 11 225.5390625 11 273.5390625 11 c 0,20,21
 334.5390625 11 334.5390625 11 353.31640625 88 c 1,22,-1
 561.5390625 11 l 1,23,24
 535.838867188 -70 535.838867188 -70 452.411132812 -119.5 c 128,-1,25
 368.983398438 -169 368.983398438 -169 216.983398438 -169 c 0,8,9
EndSplineSet
Substitution2: "'case' Case-Sensitive Forms lookup 29 subtable" questiondown.case
Substitution2: "'smcp' Lowercase to Small Capitals lookup 12 subtable" questiondown.sc
Substitution2: "'c2sc' Capitals to Small Capitals lookup 11 subtable" questiondown.sc
AlternateSubs2: "'aalt' Access All Alternates lookup 1 subtable" questiondown.sc questiondown.case
EndChar

StartChar: Agrave
Encoding: 192 192 130
Width: 689
GlyphClass: 2
Flags: W
LayerCount: 2
Fore
SplineSet
514.685546875 709 m 1,0,-1
 351.685546875 709 l 1,1,-1
 294.240234375 876 l 1,2,-1
 500.240234375 876 l 1,3,-1
 514.685546875 709 l 1,0,-1
397 0 m 1,4,-1
 396.08984375 126 l 1,5,-1
 218.08984375 126 l 1,6,-1
 158 0 l 1,7,-1
 -74 0 l 1,8,-1
 292.373046875 660 l 1,9,-1
 572.373046875 660 l 1,10,-1
 635 0 l 1,11,-1
 397 0 l 1,4,-1
286.565429688 271 m 1,12,-1
 395.565429688 271 l 1,13,-1
 393.356445312 491 l 1,14,-1
 390.356445312 491 l 1,15,-1
 338.499023438 379 l 1,16,-1
 286.565429688 271 l 1,12,-1
EndSplineSet
Substitution2: "Single Substitution lookup 56 subtable" Agrave.swsh
Substitution2: "'swsh' Swash lookup 32 subtable" Agrave.swsh
Substitution2: "'c2sc' Capitals to Small Capitals lookup 11 subtable" agrave.sc
AlternateSubs2: "'aalt' Access All Alternates lookup 1 subtable" agrave.sc Agrave.swsh
EndChar

StartChar: Aacute
Encoding: 193 193 131
Width: 689
GlyphClass: 2
Flags: W
LayerCount: 2
Fore
SplineSet
650.240234375 876 m 1,0,-1
 515.685546875 709 l 1,1,-1
 352.685546875 709 l 1,2,-1
 444.240234375 876 l 1,3,-1
 650.240234375 876 l 1,0,-1
397 0 m 1,4,-1
 396.08984375 126 l 1,5,-1
 218.08984375 126 l 1,6,-1
 158 0 l 1,7,-1
 -74 0 l 1,8,-1
 292.373046875 660 l 1,9,-1
 572.373046875 660 l 1,10,-1
 635 0 l 1,11,-1
 397 0 l 1,4,-1
286.565429688 271 m 1,12,-1
 395.565429688 271 l 1,13,-1
 393.356445312 491 l 1,14,-1
 390.356445312 491 l 1,15,-1
 338.499023438 379 l 1,16,-1
 286.565429688 271 l 1,12,-1
EndSplineSet
Substitution2: "Single Substitution lookup 56 subtable" Aacute.swsh
Substitution2: "'swsh' Swash lookup 32 subtable" Aacute.swsh
Substitution2: "'c2sc' Capitals to Small Capitals lookup 11 subtable" aacute.sc
AlternateSubs2: "'aalt' Access All Alternates lookup 1 subtable" aacute.sc Aacute.swsh
EndChar

StartChar: Acircumflex
Encoding: 194 194 132
Width: 689
GlyphClass: 2
Flags: W
LayerCount: 2
Fore
SplineSet
459.615234375 778 m 1,0,-1
 389.685546875 709 l 1,1,-1
 228.685546875 709 l 1,2,-1
 375.240234375 876 l 1,3,-1
 589.240234375 876 l 1,4,-1
 658.685546875 709 l 1,5,-1
 497.685546875 709 l 1,6,-1
 459.615234375 778 l 1,0,-1
397 0 m 1,7,-1
 396.08984375 126 l 1,8,-1
 218.08984375 126 l 1,9,-1
 158 0 l 1,10,-1
 -74 0 l 1,11,-1
 292.373046875 660 l 1,12,-1
 572.373046875 660 l 1,13,-1
 635 0 l 1,14,-1
 397 0 l 1,7,-1
286.565429688 271 m 1,15,-1
 395.565429688 271 l 1,16,-1
 393.356445312 491 l 1,17,-1
 390.356445312 491 l 1,18,-1
 338.499023438 379 l 1,19,-1
 286.565429688 271 l 1,15,-1
EndSplineSet
Substitution2: "Single Substitution lookup 56 subtable" Acircumflex.swsh
Substitution2: "'swsh' Swash lookup 32 subtable" Acircumflex.swsh
Substitution2: "'c2sc' Capitals to Small Capitals lookup 11 subtable" acircumflex.sc
AlternateSubs2: "'aalt' Access All Alternates lookup 1 subtable" acircumflex.sc Acircumflex.swsh
EndChar

StartChar: Atilde
Encoding: 195 195 133
Width: 689
GlyphClass: 2
Flags: W
LayerCount: 2
Fore
SplineSet
391.84375 753 m 0,0,1
 365.84375 753 365.84375 753 350.76171875 705 c 1,2,-1
 232.76171875 705 l 1,3,4
 277.39453125 881 277.39453125 881 419.39453125 881 c 0,5,6
 453.39453125 881 453.39453125 881 474.008789062 868.5 c 128,-1,7
 494.623046875 856 494.623046875 856 507.237304688 843.5 c 128,-1,8
 519.8515625 831 519.8515625 831 533.8515625 831 c 0,9,10
 559.8515625 831 559.8515625 831 574.93359375 879 c 1,11,-1
 692.93359375 879 l 1,12,13
 648.30078125 703 648.30078125 703 506.30078125 703 c 0,14,15
 472.30078125 703 472.30078125 703 451.686523438 715.5 c 128,-1,16
 431.072265625 728 431.072265625 728 418.458007812 740.5 c 128,-1,17
 405.84375 753 405.84375 753 391.84375 753 c 0,0,1
397 0 m 1,18,-1
 396.08984375 126 l 1,19,-1
 218.08984375 126 l 1,20,-1
 158 0 l 1,21,-1
 -74 0 l 1,22,-1
 292.373046875 660 l 1,23,-1
 572.373046875 660 l 1,24,-1
 635 0 l 1,25,-1
 397 0 l 1,18,-1
286.565429688 271 m 1,26,-1
 395.565429688 271 l 1,27,-1
 393.356445312 491 l 1,28,-1
 390.356445312 491 l 1,29,-1
 338.499023438 379 l 1,30,-1
 286.565429688 271 l 1,26,-1
EndSplineSet
Substitution2: "Single Substitution lookup 56 subtable" Atilde.swsh
Substitution2: "'swsh' Swash lookup 32 subtable" Atilde.swsh
Substitution2: "'c2sc' Capitals to Small Capitals lookup 11 subtable" atilde.sc
AlternateSubs2: "'aalt' Access All Alternates lookup 1 subtable" atilde.sc Atilde.swsh
EndChar

StartChar: Adieresis
Encoding: 196 196 134
Width: 689
GlyphClass: 2
Flags: W
LayerCount: 2
Fore
SplineSet
321.146484375 698 m 0,0,1
 272.146484375 698 272.146484375 698 251.186523438 722 c 128,-1,2
 230.227539062 746 230.227539062 746 240.155273438 789 c 128,-1,3
 250.08203125 832 250.08203125 832 282.123046875 856 c 128,-1,4
 314.1640625 880 314.1640625 880 363.1640625 880 c 0,5,6
 413.1640625 880 413.1640625 880 435.23828125 856.5 c 128,-1,7
 457.313476562 833 457.313476562 833 447.155273438 789 c 128,-1,8
 436.997070312 745 436.997070312 745 404.071289062 721.5 c 128,-1,9
 371.146484375 698 371.146484375 698 321.146484375 698 c 0,0,1
558.146484375 698 m 0,10,11
 509.146484375 698 509.146484375 698 488.186523438 722 c 128,-1,12
 467.227539062 746 467.227539062 746 477.155273438 789 c 128,-1,13
 487.08203125 832 487.08203125 832 519.123046875 856 c 128,-1,14
 551.1640625 880 551.1640625 880 600.1640625 880 c 0,15,16
 650.1640625 880 650.1640625 880 672.23828125 856.5 c 128,-1,17
 694.313476562 833 694.313476562 833 684.155273438 789 c 128,-1,18
 673.997070312 745 673.997070312 745 641.071289062 721.5 c 128,-1,19
 608.146484375 698 608.146484375 698 558.146484375 698 c 0,10,11
397 0 m 1,20,-1
 396.08984375 126 l 1,21,-1
 218.08984375 126 l 1,22,-1
 158 0 l 1,23,-1
 -74 0 l 1,24,-1
 292.373046875 660 l 1,25,-1
 572.373046875 660 l 1,26,-1
 635 0 l 1,27,-1
 397 0 l 1,20,-1
286.565429688 271 m 1,28,-1
 395.565429688 271 l 1,29,-1
 393.356445312 491 l 1,30,-1
 390.356445312 491 l 1,31,-1
 338.499023438 379 l 1,32,-1
 286.565429688 271 l 1,28,-1
EndSplineSet
Substitution2: "Single Substitution lookup 56 subtable" Adieresis.swsh
Substitution2: "'titl' Titling lookup 41 subtable" Adieresis.titl
Substitution2: "'swsh' Swash lookup 32 subtable" Adieresis.swsh
Substitution2: "'c2sc' Capitals to Small Capitals lookup 11 subtable" adieresis.sc
AlternateSubs2: "'aalt' Access All Alternates lookup 1 subtable" adieresis.sc Adieresis.swsh Adieresis.titl
EndChar

StartChar: Aring
Encoding: 197 197 135
Width: 689
GlyphClass: 2
Flags: W
LayerCount: 2
Fore
SplineSet
397 0 m 1,0,-1
 396.08984375 126 l 1,1,-1
 218.08984375 126 l 1,2,-1
 158 0 l 1,3,-1
 -74 0 l 1,4,-1
 295.602539062 648 l 1,5,6
 271.759765625 679 271.759765625 679 283.534179688 730 c 0,7,8
 298.078125 793 298.078125 793 350.620117188 830 c 128,-1,9
 403.163085938 867 403.163085938 867 481.163085938 867 c 128,-1,10
 559.163085938 867 559.163085938 867 594.620117188 830 c 128,-1,11
 630.078125 793 630.078125 793 615.534179688 730 c 0,12,13
 603.759765625 679 603.759765625 679 563.602539062 648 c 1,14,-1
 635 0 l 1,15,-1
 397 0 l 1,0,-1
458.306640625 768 m 128,-1,17
 408.306640625 768 408.306640625 768 397.456054688 721 c 128,-1,18
 386.60546875 674 386.60546875 674 436.60546875 674 c 128,-1,19
 486.60546875 674 486.60546875 674 497.456054688 721 c 128,-1,16
 508.306640625 768 508.306640625 768 458.306640625 768 c 128,-1,17
286.565429688 271 m 1,20,-1
 395.565429688 271 l 1,21,-1
 394.499023438 379 l 1,22,-1
 394.356445312 491 l 1,23,-1
 389.356445312 491 l 1,24,-1
 338.499023438 379 l 1,25,-1
 286.565429688 271 l 1,20,-1
EndSplineSet
Substitution2: "'c2sc' Capitals to Small Capitals lookup 11 subtable" aring.sc
Substitution2: "'aalt' Access All Alternates lookup 0 subtable" aring.sc
EndChar

StartChar: AE
Encoding: 198 198 136
Width: 904
GlyphClass: 2
Flags: W
LayerCount: 2
Fore
SplineSet
588.169921875 161 m 1,0,-1
 861.169921875 161 l 1,1,-1
 824 0 l 1,2,-1
 337 0 l 1,3,-1
 379.7109375 185 l 1,4,-1
 244.7109375 185 l 1,5,-1
 156 0 l 1,6,-1
 -74 0 l 1,7,-1
 292.373046875 660 l 1,8,-1
 964.373046875 660 l 1,9,-1
 927.203125 499 l 1,10,-1
 666.203125 499 l 1,11,-1
 644.040039062 403 l 1,12,-1
 844.040039062 403 l 1,13,-1
 809.640625 254 l 1,14,-1
 609.640625 254 l 1,15,-1
 588.169921875 161 l 1,0,-1
309.108398438 321 m 1,16,-1
 411.108398438 321 l 1,17,-1
 454.049804688 507 l 1,18,-1
 398.049804688 507 l 1,19,-1
 309.108398438 321 l 1,16,-1
EndSplineSet
Substitution2: "'c2sc' Capitals to Small Capitals lookup 11 subtable" ae.sc
Substitution2: "'aalt' Access All Alternates lookup 0 subtable" ae.sc
EndChar

StartChar: Ccedilla
Encoding: 199 199 137
Width: 677
GlyphClass: 2
Flags: W
LayerCount: 2
Fore
SplineSet
652.635742188 202 m 1,0,1
 573.618164062 33 573.618164062 33 395.76953125 -1 c 1,2,3
 435.919921875 -35 435.919921875 -35 423.221679688 -90 c 0,4,5
 394.36328125 -215 394.36328125 -215 233.36328125 -215 c 0,6,7
 145.36328125 -215 145.36328125 -215 109.521484375 -171 c 1,8,-1
 176.454101562 -76 l 1,9,10
 197.989257812 -104 197.989257812 -104 243.989257812 -104 c 0,11,12
 268.989257812 -104 268.989257812 -104 286.14453125 -92.5 c 128,-1,13
 303.299804688 -81 303.299804688 -81 308.147460938 -60 c 0,14,15
 316.228515625 -25 316.228515625 -25 263.921875 -9 c 1,16,17
 124.461914062 2 124.461914062 2 65.3935546875 90.5 c 128,-1,18
 6.3251953125 179 6.3251953125 179 41.1865234375 330 c 0,19,20
 78.3564453125 491 78.3564453125 491 188.018554688 580.5 c 128,-1,21
 297.681640625 670 297.681640625 670 455.681640625 670 c 0,22,23
 571.681640625 670 571.681640625 670 642.25390625 620.5 c 128,-1,24
 712.826171875 571 712.826171875 571 709.5078125 470 c 1,25,-1
 491.5 392 l 1,26,27
 497.583007812 453 497.583007812 453 481.431640625 474 c 128,-1,28
 465.279296875 495 465.279296875 495 421.279296875 495 c 0,29,30
 317.279296875 495 317.279296875 495 279.186523438 330 c 0,31,32
 259.5625 245 259.5625 245 275.328125 205 c 128,-1,33
 291.092773438 165 291.092773438 165 343.092773438 165 c 0,34,35
 390.092773438 165 390.092773438 165 415.94140625 186 c 128,-1,36
 441.790039062 207 441.790039062 207 458.87109375 255 c 1,37,-1
 652.635742188 202 l 1,0,1
EndSplineSet
Substitution2: "'c2sc' Capitals to Small Capitals lookup 11 subtable" ccedilla.sc
Substitution2: "'aalt' Access All Alternates lookup 0 subtable" ccedilla.sc
EndChar

StartChar: Egrave
Encoding: 200 200 138
Width: 626
GlyphClass: 2
Flags: W
AnchorPoint: "Anchor-0" 265 0 basechar 0
LayerCount: 2
Fore
SplineSet
513.685546875 709 m 1,0,-1
 350.685546875 709 l 1,1,-1
 293.240234375 876 l 1,2,-1
 499.240234375 876 l 1,3,-1
 513.685546875 709 l 1,0,-1
258.478515625 171 m 1,4,-1
 585.478515625 171 l 1,5,-1
 546 0 l 1,6,-1
 -14 0 l 1,7,-1
 138.373046875 660 l 1,8,-1
 686.373046875 660 l 1,9,-1
 646.89453125 489 l 1,10,-1
 331.89453125 489 l 1,11,-1
 312.962890625 407 l 1,12,-1
 566.962890625 407 l 1,13,-1
 530.486328125 249 l 1,14,-1
 276.486328125 249 l 1,15,-1
 258.478515625 171 l 1,4,-1
EndSplineSet
Substitution2: "Single Substitution lookup 57 subtable" Egrave.swsh.001
Substitution2: "Single Substitution lookup 56 subtable" Egrave.swsh
AlternateSubs2: "'swsh' Swash lookup 33 subtable" Egrave.swsh Egrave.swsh.001
Substitution2: "'c2sc' Capitals to Small Capitals lookup 11 subtable" egrave.sc
AlternateSubs2: "'aalt' Access All Alternates lookup 1 subtable" egrave.sc Egrave.swsh Egrave.swsh.001
EndChar

StartChar: Eacute
Encoding: 201 201 139
Width: 626
GlyphClass: 2
Flags: W
AnchorPoint: "Anchor-0" 265 0 basechar 0
LayerCount: 2
Fore
SplineSet
625.240234375 876 m 1,0,-1
 490.685546875 709 l 1,1,-1
 327.685546875 709 l 1,2,-1
 419.240234375 876 l 1,3,-1
 625.240234375 876 l 1,0,-1
258.478515625 171 m 1,4,-1
 585.478515625 171 l 1,5,-1
 546 0 l 1,6,-1
 -14 0 l 1,7,-1
 138.373046875 660 l 1,8,-1
 686.373046875 660 l 1,9,-1
 646.89453125 489 l 1,10,-1
 331.89453125 489 l 1,11,-1
 312.962890625 407 l 1,12,-1
 566.962890625 407 l 1,13,-1
 530.486328125 249 l 1,14,-1
 276.486328125 249 l 1,15,-1
 258.478515625 171 l 1,4,-1
EndSplineSet
Substitution2: "Single Substitution lookup 57 subtable" Eacute.swsh.001
Substitution2: "Single Substitution lookup 56 subtable" Eacute.swsh
AlternateSubs2: "'swsh' Swash lookup 33 subtable" Eacute.swsh Eacute.swsh.001
Substitution2: "'c2sc' Capitals to Small Capitals lookup 11 subtable" eacute.sc
AlternateSubs2: "'aalt' Access All Alternates lookup 1 subtable" eacute.sc Eacute.swsh Eacute.swsh.001
EndChar

StartChar: Ecircumflex
Encoding: 202 202 140
Width: 626
GlyphClass: 2
Flags: W
AnchorPoint: "Anchor-0" 265 0 basechar 0
LayerCount: 2
Fore
SplineSet
428.615234375 778 m 1,0,-1
 358.685546875 709 l 1,1,-1
 197.685546875 709 l 1,2,-1
 344.240234375 876 l 1,3,-1
 558.240234375 876 l 1,4,-1
 627.685546875 709 l 1,5,-1
 466.685546875 709 l 1,6,-1
 428.615234375 778 l 1,0,-1
258.478515625 171 m 1,7,-1
 585.478515625 171 l 1,8,-1
 546 0 l 1,9,-1
 -14 0 l 1,10,-1
 138.373046875 660 l 1,11,-1
 686.373046875 660 l 1,12,-1
 646.89453125 489 l 1,13,-1
 331.89453125 489 l 1,14,-1
 312.962890625 407 l 1,15,-1
 566.962890625 407 l 1,16,-1
 530.486328125 249 l 1,17,-1
 276.486328125 249 l 1,18,-1
 258.478515625 171 l 1,7,-1
EndSplineSet
Substitution2: "Single Substitution lookup 57 subtable" Ecircumflex.swsh.001
Substitution2: "Single Substitution lookup 56 subtable" Ecircumflex.swsh
AlternateSubs2: "'swsh' Swash lookup 33 subtable" Ecircumflex.swsh Ecircumflex.swsh.001
Substitution2: "'c2sc' Capitals to Small Capitals lookup 11 subtable" ecircumflex.sc
AlternateSubs2: "'aalt' Access All Alternates lookup 1 subtable" ecircumflex.sc Ecircumflex.swsh Ecircumflex.swsh.001
EndChar

StartChar: Edieresis
Encoding: 203 203 141
Width: 626
GlyphClass: 2
Flags: W
AnchorPoint: "Anchor-0" 265 0 basechar 0
LayerCount: 2
Fore
SplineSet
290.146484375 698 m 0,0,1
 241.146484375 698 241.146484375 698 220.186523438 722 c 128,-1,2
 199.227539062 746 199.227539062 746 209.155273438 789 c 128,-1,3
 219.08203125 832 219.08203125 832 251.123046875 856 c 128,-1,4
 283.1640625 880 283.1640625 880 332.1640625 880 c 0,5,6
 382.1640625 880 382.1640625 880 404.23828125 856.5 c 128,-1,7
 426.313476562 833 426.313476562 833 416.155273438 789 c 128,-1,8
 405.997070312 745 405.997070312 745 373.071289062 721.5 c 128,-1,9
 340.146484375 698 340.146484375 698 290.146484375 698 c 0,0,1
527.146484375 698 m 0,10,11
 478.146484375 698 478.146484375 698 457.186523438 722 c 128,-1,12
 436.227539062 746 436.227539062 746 446.155273438 789 c 128,-1,13
 456.08203125 832 456.08203125 832 488.123046875 856 c 128,-1,14
 520.1640625 880 520.1640625 880 569.1640625 880 c 0,15,16
 619.1640625 880 619.1640625 880 641.23828125 856.5 c 128,-1,17
 663.313476562 833 663.313476562 833 653.155273438 789 c 128,-1,18
 642.997070312 745 642.997070312 745 610.071289062 721.5 c 128,-1,19
 577.146484375 698 577.146484375 698 527.146484375 698 c 0,10,11
258.478515625 171 m 1,20,-1
 585.478515625 171 l 1,21,-1
 546 0 l 1,22,-1
 -14 0 l 1,23,-1
 138.373046875 660 l 1,24,-1
 686.373046875 660 l 1,25,-1
 646.89453125 489 l 1,26,-1
 331.89453125 489 l 1,27,-1
 312.962890625 407 l 1,28,-1
 566.962890625 407 l 1,29,-1
 530.486328125 249 l 1,30,-1
 276.486328125 249 l 1,31,-1
 258.478515625 171 l 1,20,-1
EndSplineSet
Substitution2: "Single Substitution lookup 57 subtable" Edieresis.swsh.001
Substitution2: "Single Substitution lookup 56 subtable" Edieresis.swsh
AlternateSubs2: "'swsh' Swash lookup 33 subtable" Edieresis.swsh Edieresis.swsh.001
Substitution2: "'c2sc' Capitals to Small Capitals lookup 11 subtable" edieresis.sc
AlternateSubs2: "'aalt' Access All Alternates lookup 1 subtable" edieresis.sc Edieresis.swsh Edieresis.swsh.001
EndChar

StartChar: Igrave
Encoding: 204 204 142
Width: 333
GlyphClass: 2
Flags: W
LayerCount: 2
Fore
SplineSet
322.240234375 876 m 1,0,-1
 336.685546875 709 l 1,1,-1
 173.685546875 709 l 1,2,-1
 116.240234375 876 l 1,3,-1
 322.240234375 876 l 1,0,-1
371.373046875 660 m 1,4,-1
 219 0 l 1,5,-1
 -14 0 l 1,6,-1
 138.373046875 660 l 1,7,-1
 371.373046875 660 l 1,4,-1
EndSplineSet
Substitution2: "'c2sc' Capitals to Small Capitals lookup 11 subtable" igrave.sc
Substitution2: "'aalt' Access All Alternates lookup 0 subtable" igrave.sc
EndChar

StartChar: Iacute
Encoding: 205 205 143
Width: 333
GlyphClass: 2
Flags: W
LayerCount: 2
Fore
SplineSet
266.240234375 876 m 1,0,-1
 472.240234375 876 l 1,1,-1
 337.685546875 709 l 1,2,-1
 174.685546875 709 l 1,3,-1
 266.240234375 876 l 1,0,-1
371.373046875 660 m 1,4,-1
 219 0 l 1,5,-1
 -14 0 l 1,6,-1
 138.373046875 660 l 1,7,-1
 371.373046875 660 l 1,4,-1
EndSplineSet
Substitution2: "'c2sc' Capitals to Small Capitals lookup 11 subtable" iacute.sc
Substitution2: "'aalt' Access All Alternates lookup 0 subtable" iacute.sc
EndChar

StartChar: Icircumflex
Encoding: 206 206 144
Width: 333
GlyphClass: 2
Flags: W
LayerCount: 2
Fore
SplineSet
480.685546875 709 m 1,0,-1
 319.685546875 709 l 1,1,-1
 281.615234375 778 l 1,2,-1
 211.685546875 709 l 1,3,-1
 50.685546875 709 l 1,4,-1
 197.240234375 876 l 1,5,-1
 411.240234375 876 l 1,6,-1
 480.685546875 709 l 1,0,-1
371.373046875 660 m 1,7,-1
 219 0 l 1,8,-1
 -14 0 l 1,9,-1
 138.373046875 660 l 1,10,-1
 371.373046875 660 l 1,7,-1
EndSplineSet
Substitution2: "'c2sc' Capitals to Small Capitals lookup 11 subtable" icircumflex.sc
Substitution2: "'aalt' Access All Alternates lookup 0 subtable" icircumflex.sc
EndChar

StartChar: Idieresis
Encoding: 207 207 145
Width: 333
GlyphClass: 2
Flags: W
LayerCount: 2
Fore
SplineSet
191.1640625 880 m 0,0,1
 239.1640625 880 239.1640625 880 260.623046875 856 c 128,-1,2
 282.08203125 832 282.08203125 832 272.155273438 789 c 128,-1,3
 262.227539062 746 262.227539062 746 229.686523438 722 c 128,-1,4
 197.146484375 698 197.146484375 698 149.146484375 698 c 0,5,6
 102.146484375 698 102.146484375 698 82.1865234375 722 c 128,-1,7
 62.2275390625 746 62.2275390625 746 72.1552734375 789 c 128,-1,8
 82.08203125 832 82.08203125 832 113.123046875 856 c 128,-1,9
 144.1640625 880 144.1640625 880 191.1640625 880 c 0,0,1
416.1640625 880 m 0,10,11
 464.1640625 880 464.1640625 880 485.623046875 856 c 128,-1,12
 507.08203125 832 507.08203125 832 497.155273438 789 c 128,-1,13
 487.227539062 746 487.227539062 746 454.686523438 722 c 128,-1,14
 422.146484375 698 422.146484375 698 374.146484375 698 c 0,15,16
 327.146484375 698 327.146484375 698 307.186523438 722 c 128,-1,17
 287.227539062 746 287.227539062 746 297.155273438 789 c 128,-1,18
 307.08203125 832 307.08203125 832 338.123046875 856 c 128,-1,19
 369.1640625 880 369.1640625 880 416.1640625 880 c 0,10,11
371.373046875 660 m 1,20,-1
 219 0 l 1,21,-1
 -14 0 l 1,22,-1
 138.373046875 660 l 1,23,-1
 371.373046875 660 l 1,20,-1
EndSplineSet
Substitution2: "'c2sc' Capitals to Small Capitals lookup 11 subtable" idieresis.sc
Substitution2: "'aalt' Access All Alternates lookup 0 subtable" idieresis.sc
EndChar

StartChar: Eth
Encoding: 208 208 146
Width: 746
GlyphClass: 2
Flags: W
LayerCount: 2
Fore
SplineSet
492.373046875 660 m 2,0,1
 646.373046875 660 646.373046875 660 706.133789062 574.5 c 128,-1,2
 765.89453125 489 765.89453125 489 729.186523438 330 c 128,-1,3
 692.478515625 171 692.478515625 171 593.239257812 85.5 c 128,-1,4
 494 0 494 0 340 0 c 2,5,-1
 16 0 l 1,6,-1
 80.412109375 279 l 1,7,-1
 6.412109375 279 l 1,8,-1
 28.5751953125 375 l 1,9,-1
 102.575195312 375 l 1,10,-1
 168.373046875 660 l 1,11,-1
 492.373046875 660 l 2,0,1
345.32421875 166 m 2,12,13
 407.32421875 166 407.32421875 166 439.096679688 204 c 128,-1,14
 470.870117188 242 470.870117188 242 491.186523438 330 c 128,-1,15
 511.502929688 418 511.502929688 418 497.276367188 456 c 128,-1,16
 483.048828125 494 483.048828125 494 421.048828125 494 c 2,17,-1
 363.048828125 494 l 1,18,-1
 335.575195312 375 l 1,19,-1
 421.575195312 375 l 1,20,-1
 399.412109375 279 l 1,21,-1
 313.412109375 279 l 1,22,-1
 287.32421875 166 l 1,23,-1
 345.32421875 166 l 2,12,13
EndSplineSet
Substitution2: "'c2sc' Capitals to Small Capitals lookup 11 subtable" eth.sc
Substitution2: "'aalt' Access All Alternates lookup 0 subtable" eth.sc
EndChar

StartChar: Ntilde
Encoding: 209 209 147
Width: 746
GlyphClass: 2
Flags: W
AnchorPoint: "Anchor-0" 310 0 basechar 0
LayerCount: 2
Fore
SplineSet
721.93359375 879 m 1,0,1
 677.30078125 703 677.30078125 703 535.30078125 703 c 0,2,3
 501.30078125 703 501.30078125 703 480.686523438 715.5 c 128,-1,4
 460.072265625 728 460.072265625 728 447.458007812 740.5 c 128,-1,5
 434.84375 753 434.84375 753 420.84375 753 c 0,6,7
 394.84375 753 394.84375 753 379.76171875 705 c 1,8,-1
 261.76171875 705 l 1,9,10
 306.39453125 881 306.39453125 881 448.39453125 881 c 0,11,12
 482.39453125 881 482.39453125 881 503.008789062 868.5 c 128,-1,13
 523.623046875 856 523.623046875 856 536.237304688 843.5 c 128,-1,14
 548.8515625 831 548.8515625 831 562.8515625 831 c 0,15,16
 588.8515625 831 588.8515625 831 603.93359375 879 c 1,17,-1
 721.93359375 879 l 1,0,1
784.373046875 660 m 1,18,-1
 632 0 l 1,19,-1
 380 0 l 1,20,-1
 291.260742188 300 l 1,21,-1
 273.9609375 381 l 1,22,-1
 271.9609375 381 l 1,23,-1
 244.5625 245 l 1,24,-1
 188 0 l 1,25,-1
 -14 0 l 1,26,-1
 138.373046875 660 l 1,27,-1
 390.373046875 660 l 1,28,-1
 478.881835938 359 l 1,29,-1
 496.412109375 279 l 1,30,-1
 498.412109375 279 l 1,31,-1
 525.810546875 415 l 1,32,-1
 582.373046875 660 l 1,33,-1
 784.373046875 660 l 1,18,-1
EndSplineSet
Substitution2: "Single Substitution lookup 57 subtable" Ntilde.swsh
Substitution2: "'swsh' Swash lookup 36 subtable" Ntilde.swsh
Substitution2: "'c2sc' Capitals to Small Capitals lookup 11 subtable" ntilde.sc
AlternateSubs2: "'aalt' Access All Alternates lookup 1 subtable" ntilde.sc Ntilde.swsh
EndChar

StartChar: Ograve
Encoding: 210 210 148
Width: 729
GlyphClass: 2
Flags: W
LayerCount: 2
Fore
SplineSet
521.240234375 876 m 1,0,-1
 535.685546875 709 l 1,1,-1
 372.685546875 709 l 1,2,-1
 315.240234375 876 l 1,3,-1
 521.240234375 876 l 1,0,-1
455.681640625 670 m 128,-1,5
 613.681640625 670 613.681640625 670 681.518554688 580.5 c 128,-1,6
 749.356445312 491 749.356445312 491 712.186523438 330 c 128,-1,7
 675.016601562 169 675.016601562 169 565.854492188 79.5 c 128,-1,8
 456.69140625 -10 456.69140625 -10 298.69140625 -10 c 128,-1,9
 140.69140625 -10 140.69140625 -10 72.3544921875 79.5 c 128,-1,10
 4.0166015625 169 4.0166015625 169 41.1865234375 330 c 128,-1,11
 78.3564453125 491 78.3564453125 491 188.018554688 580.5 c 128,-1,4
 297.681640625 670 297.681640625 670 455.681640625 670 c 128,-1,5
415.279296875 495 m 128,-1,13
 364.279296875 495 364.279296875 495 331.66015625 455.5 c 128,-1,14
 299.041015625 416 299.041015625 416 279.186523438 330 c 128,-1,15
 259.33203125 244 259.33203125 244 273.712890625 204.5 c 128,-1,16
 288.092773438 165 288.092773438 165 339.092773438 165 c 128,-1,17
 390.092773438 165 390.092773438 165 422.212890625 204.5 c 128,-1,18
 454.33203125 244 454.33203125 244 474.186523438 330 c 128,-1,19
 494.041015625 416 494.041015625 416 480.16015625 455.5 c 128,-1,12
 466.279296875 495 466.279296875 495 415.279296875 495 c 128,-1,13
EndSplineSet
Substitution2: "'c2sc' Capitals to Small Capitals lookup 11 subtable" ograve.sc
Substitution2: "'aalt' Access All Alternates lookup 0 subtable" ograve.sc
EndChar

StartChar: Oacute
Encoding: 211 211 149
Width: 729
GlyphClass: 2
Flags: W
LayerCount: 2
Fore
SplineSet
465.240234375 876 m 1,0,-1
 671.240234375 876 l 1,1,-1
 536.685546875 709 l 1,2,-1
 373.685546875 709 l 1,3,-1
 465.240234375 876 l 1,0,-1
455.681640625 670 m 128,-1,5
 613.681640625 670 613.681640625 670 681.518554688 580.5 c 128,-1,6
 749.356445312 491 749.356445312 491 712.186523438 330 c 128,-1,7
 675.016601562 169 675.016601562 169 565.854492188 79.5 c 128,-1,8
 456.69140625 -10 456.69140625 -10 298.69140625 -10 c 128,-1,9
 140.69140625 -10 140.69140625 -10 72.3544921875 79.5 c 128,-1,10
 4.0166015625 169 4.0166015625 169 41.1865234375 330 c 128,-1,11
 78.3564453125 491 78.3564453125 491 188.018554688 580.5 c 128,-1,4
 297.681640625 670 297.681640625 670 455.681640625 670 c 128,-1,5
415.279296875 495 m 128,-1,13
 364.279296875 495 364.279296875 495 331.66015625 455.5 c 128,-1,14
 299.041015625 416 299.041015625 416 279.186523438 330 c 128,-1,15
 259.33203125 244 259.33203125 244 273.712890625 204.5 c 128,-1,16
 288.092773438 165 288.092773438 165 339.092773438 165 c 128,-1,17
 390.092773438 165 390.092773438 165 422.212890625 204.5 c 128,-1,18
 454.33203125 244 454.33203125 244 474.186523438 330 c 128,-1,19
 494.041015625 416 494.041015625 416 480.16015625 455.5 c 128,-1,12
 466.279296875 495 466.279296875 495 415.279296875 495 c 128,-1,13
EndSplineSet
Substitution2: "'c2sc' Capitals to Small Capitals lookup 11 subtable" oacute.sc
Substitution2: "'aalt' Access All Alternates lookup 0 subtable" oacute.sc
EndChar

StartChar: Ocircumflex
Encoding: 212 212 150
Width: 729
GlyphClass: 2
Flags: W
LayerCount: 2
Fore
SplineSet
679.685546875 709 m 1,0,-1
 518.685546875 709 l 1,1,-1
 480.615234375 778 l 1,2,-1
 410.685546875 709 l 1,3,-1
 249.685546875 709 l 1,4,-1
 396.240234375 876 l 1,5,-1
 610.240234375 876 l 1,6,-1
 679.685546875 709 l 1,0,-1
455.681640625 670 m 128,-1,8
 613.681640625 670 613.681640625 670 681.518554688 580.5 c 128,-1,9
 749.356445312 491 749.356445312 491 712.186523438 330 c 128,-1,10
 675.016601562 169 675.016601562 169 565.854492188 79.5 c 128,-1,11
 456.69140625 -10 456.69140625 -10 298.69140625 -10 c 128,-1,12
 140.69140625 -10 140.69140625 -10 72.3544921875 79.5 c 128,-1,13
 4.0166015625 169 4.0166015625 169 41.1865234375 330 c 128,-1,14
 78.3564453125 491 78.3564453125 491 188.018554688 580.5 c 128,-1,7
 297.681640625 670 297.681640625 670 455.681640625 670 c 128,-1,8
415.279296875 495 m 128,-1,16
 364.279296875 495 364.279296875 495 331.66015625 455.5 c 128,-1,17
 299.041015625 416 299.041015625 416 279.186523438 330 c 128,-1,18
 259.33203125 244 259.33203125 244 273.712890625 204.5 c 128,-1,19
 288.092773438 165 288.092773438 165 339.092773438 165 c 128,-1,20
 390.092773438 165 390.092773438 165 422.212890625 204.5 c 128,-1,21
 454.33203125 244 454.33203125 244 474.186523438 330 c 128,-1,22
 494.041015625 416 494.041015625 416 480.16015625 455.5 c 128,-1,15
 466.279296875 495 466.279296875 495 415.279296875 495 c 128,-1,16
EndSplineSet
Substitution2: "'c2sc' Capitals to Small Capitals lookup 11 subtable" ocircumflex.sc
Substitution2: "'aalt' Access All Alternates lookup 0 subtable" ocircumflex.sc
EndChar

StartChar: Otilde
Encoding: 213 213 151
Width: 729
GlyphClass: 2
Flags: W
LayerCount: 2
Fore
SplineSet
713.93359375 879 m 1,0,1
 669.30078125 703 669.30078125 703 527.30078125 703 c 0,2,3
 493.30078125 703 493.30078125 703 472.686523438 715.5 c 128,-1,4
 452.072265625 728 452.072265625 728 439.458007812 740.5 c 128,-1,5
 426.84375 753 426.84375 753 412.84375 753 c 0,6,7
 386.84375 753 386.84375 753 371.76171875 705 c 1,8,-1
 253.76171875 705 l 1,9,10
 298.39453125 881 298.39453125 881 440.39453125 881 c 0,11,12
 474.39453125 881 474.39453125 881 495.008789062 868.5 c 128,-1,13
 515.623046875 856 515.623046875 856 528.237304688 843.5 c 128,-1,14
 540.8515625 831 540.8515625 831 554.8515625 831 c 0,15,16
 580.8515625 831 580.8515625 831 595.93359375 879 c 1,17,-1
 713.93359375 879 l 1,0,1
455.681640625 670 m 128,-1,19
 613.681640625 670 613.681640625 670 681.518554688 580.5 c 128,-1,20
 749.356445312 491 749.356445312 491 712.186523438 330 c 128,-1,21
 675.016601562 169 675.016601562 169 565.854492188 79.5 c 128,-1,22
 456.69140625 -10 456.69140625 -10 298.69140625 -10 c 128,-1,23
 140.69140625 -10 140.69140625 -10 72.3544921875 79.5 c 128,-1,24
 4.0166015625 169 4.0166015625 169 41.1865234375 330 c 128,-1,25
 78.3564453125 491 78.3564453125 491 188.018554688 580.5 c 128,-1,18
 297.681640625 670 297.681640625 670 455.681640625 670 c 128,-1,19
415.279296875 495 m 128,-1,27
 364.279296875 495 364.279296875 495 331.66015625 455.5 c 128,-1,28
 299.041015625 416 299.041015625 416 279.186523438 330 c 128,-1,29
 259.33203125 244 259.33203125 244 273.712890625 204.5 c 128,-1,30
 288.092773438 165 288.092773438 165 339.092773438 165 c 128,-1,31
 390.092773438 165 390.092773438 165 422.212890625 204.5 c 128,-1,32
 454.33203125 244 454.33203125 244 474.186523438 330 c 128,-1,33
 494.041015625 416 494.041015625 416 480.16015625 455.5 c 128,-1,26
 466.279296875 495 466.279296875 495 415.279296875 495 c 128,-1,27
EndSplineSet
Substitution2: "'c2sc' Capitals to Small Capitals lookup 11 subtable" otilde.sc
Substitution2: "'aalt' Access All Alternates lookup 0 subtable" otilde.sc
EndChar

StartChar: Odieresis
Encoding: 214 214 152
Width: 729
GlyphClass: 2
Flags: W
LayerCount: 2
Fore
SplineSet
384.1640625 880 m 0,0,1
 434.1640625 880 434.1640625 880 456.23828125 856.5 c 128,-1,2
 478.313476562 833 478.313476562 833 468.155273438 789 c 128,-1,3
 457.997070312 745 457.997070312 745 425.071289062 721.5 c 128,-1,4
 392.146484375 698 392.146484375 698 342.146484375 698 c 0,5,6
 293.146484375 698 293.146484375 698 272.186523438 722 c 128,-1,7
 251.227539062 746 251.227539062 746 261.155273438 789 c 128,-1,8
 271.08203125 832 271.08203125 832 303.123046875 856 c 128,-1,9
 335.1640625 880 335.1640625 880 384.1640625 880 c 0,0,1
621.1640625 880 m 0,10,11
 671.1640625 880 671.1640625 880 693.23828125 856.5 c 128,-1,12
 715.313476562 833 715.313476562 833 705.155273438 789 c 128,-1,13
 694.997070312 745 694.997070312 745 662.071289062 721.5 c 128,-1,14
 629.146484375 698 629.146484375 698 579.146484375 698 c 0,15,16
 530.146484375 698 530.146484375 698 509.186523438 722 c 128,-1,17
 488.227539062 746 488.227539062 746 498.155273438 789 c 128,-1,18
 508.08203125 832 508.08203125 832 540.123046875 856 c 128,-1,19
 572.1640625 880 572.1640625 880 621.1640625 880 c 0,10,11
455.681640625 670 m 128,-1,21
 613.681640625 670 613.681640625 670 681.518554688 580.5 c 128,-1,22
 749.356445312 491 749.356445312 491 712.186523438 330 c 128,-1,23
 675.016601562 169 675.016601562 169 565.854492188 79.5 c 128,-1,24
 456.69140625 -10 456.69140625 -10 298.69140625 -10 c 128,-1,25
 140.69140625 -10 140.69140625 -10 72.3544921875 79.5 c 128,-1,26
 4.0166015625 169 4.0166015625 169 41.1865234375 330 c 128,-1,27
 78.3564453125 491 78.3564453125 491 188.018554688 580.5 c 128,-1,20
 297.681640625 670 297.681640625 670 455.681640625 670 c 128,-1,21
415.279296875 495 m 128,-1,29
 364.279296875 495 364.279296875 495 331.66015625 455.5 c 128,-1,30
 299.041015625 416 299.041015625 416 279.186523438 330 c 128,-1,31
 259.33203125 244 259.33203125 244 273.712890625 204.5 c 128,-1,32
 288.092773438 165 288.092773438 165 339.092773438 165 c 128,-1,33
 390.092773438 165 390.092773438 165 422.212890625 204.5 c 128,-1,34
 454.33203125 244 454.33203125 244 474.186523438 330 c 128,-1,35
 494.041015625 416 494.041015625 416 480.16015625 455.5 c 128,-1,28
 466.279296875 495 466.279296875 495 415.279296875 495 c 128,-1,29
EndSplineSet
Substitution2: "'titl' Titling lookup 41 subtable" Odieresis.titl
Substitution2: "'c2sc' Capitals to Small Capitals lookup 11 subtable" odieresis.sc
AlternateSubs2: "'aalt' Access All Alternates lookup 1 subtable" odieresis.sc Odieresis.titl
EndChar

StartChar: multiply
Encoding: 215 215 153
Width: 604
GlyphClass: 2
Flags: W
LayerCount: 2
Fore
SplineSet
614.81640625 480 m 1,0,-1
 432.6484375 332 l 1,1,-1
 546.479492188 184 l 1,2,-1
 401.237304688 66 l 1,3,-1
 287.40625 214 l 1,4,-1
 105.237304688 66 l 1,5,-1
 14.4794921875 184 l 1,6,-1
 196.6484375 332 l 1,7,-1
 82.81640625 480 l 1,8,-1
 228.059570312 598 l 1,9,-1
 341.890625 450 l 1,10,-1
 524.059570312 598 l 1,11,-1
 614.81640625 480 l 1,0,-1
EndSplineSet
EndChar

StartChar: Oslash
Encoding: 216 216 154
Width: 729
GlyphClass: 2
Flags: W
LayerCount: 2
Fore
SplineSet
678.827148438 584 m 1,0,1
 750.279296875 495 750.279296875 495 712.186523438 330 c 0,2,3
 675.016601562 169 675.016601562 169 565.854492188 79.5 c 128,-1,4
 456.69140625 -10 456.69140625 -10 298.69140625 -10 c 0,5,6
 191.69140625 -10 191.69140625 -10 125.387695312 32 c 1,7,-1
 75.1513671875 -21 l 1,8,-1
 -20.8486328125 -21 l 1,9,-1
 73.7763671875 77 l 1,10,11
 3.32421875 166 3.32421875 166 41.1865234375 330 c 0,12,13
 78.3564453125 491 78.3564453125 491 188.018554688 580.5 c 128,-1,14
 297.681640625 670 297.681640625 670 455.681640625 670 c 0,15,16
 561.681640625 670 561.681640625 670 628.215820312 629 c 1,17,-1
 676.990234375 680 l 1,18,-1
 771.990234375 680 l 1,19,-1
 678.827148438 584 l 1,0,1
415.279296875 495 m 0,20,21
 364.279296875 495 364.279296875 495 331.66015625 455.5 c 128,-1,22
 299.041015625 416 299.041015625 416 279.186523438 330 c 0,23,24
 269.490234375 288 269.490234375 288 267.71875 263 c 1,25,-1
 468.893554688 476 l 1,26,27
 451.279296875 495 451.279296875 495 415.279296875 495 c 0,20,21
339.092773438 165 m 0,28,29
 390.092773438 165 390.092773438 165 422.212890625 204.5 c 128,-1,30
 454.33203125 244 454.33203125 244 474.186523438 330 c 0,31,32
 482.036132812 364 482.036132812 364 484.807617188 389 c 1,33,-1
 287.787109375 181 l 1,34,35
 306.092773438 165 306.092773438 165 339.092773438 165 c 0,28,29
EndSplineSet
Substitution2: "'c2sc' Capitals to Small Capitals lookup 11 subtable" oslash.sc
Substitution2: "'aalt' Access All Alternates lookup 0 subtable" oslash.sc
EndChar

StartChar: Ugrave
Encoding: 217 217 155
Width: 708
GlyphClass: 2
Flags: W
LayerCount: 2
Fore
SplineSet
510.240234375 876 m 1,0,-1
 524.685546875 709 l 1,1,-1
 361.685546875 709 l 1,2,-1
 304.240234375 876 l 1,3,-1
 510.240234375 876 l 1,0,-1
761.373046875 660 m 1,4,-1
 674.56640625 284 l 2,5,6
 606.69140625 -10 606.69140625 -10 287.69140625 -10 c 128,-1,7
 -31.30859375 -10 -31.30859375 -10 36.56640625 284 c 2,8,-1
 123.373046875 660 l 1,9,-1
 357.373046875 660 l 1,10,-1
 266.411132812 266 l 2,11,12
 243.092773438 165 243.092773438 165 328.092773438 165 c 0,13,14
 414.092773438 165 414.092773438 165 437.411132812 266 c 2,15,-1
 528.373046875 660 l 1,16,-1
 761.373046875 660 l 1,4,-1
EndSplineSet
Substitution2: "'c2sc' Capitals to Small Capitals lookup 11 subtable" ugrave.sc
Substitution2: "'aalt' Access All Alternates lookup 0 subtable" ugrave.sc
EndChar

StartChar: Uacute
Encoding: 218 218 156
Width: 708
GlyphClass: 2
Flags: W
LayerCount: 2
Fore
SplineSet
454.240234375 876 m 1,0,-1
 660.240234375 876 l 1,1,-1
 525.685546875 709 l 1,2,-1
 362.685546875 709 l 1,3,-1
 454.240234375 876 l 1,0,-1
761.373046875 660 m 1,4,-1
 674.56640625 284 l 2,5,6
 606.69140625 -10 606.69140625 -10 287.69140625 -10 c 128,-1,7
 -31.30859375 -10 -31.30859375 -10 36.56640625 284 c 2,8,-1
 123.373046875 660 l 1,9,-1
 357.373046875 660 l 1,10,-1
 266.411132812 266 l 2,11,12
 243.092773438 165 243.092773438 165 328.092773438 165 c 0,13,14
 414.092773438 165 414.092773438 165 437.411132812 266 c 2,15,-1
 528.373046875 660 l 1,16,-1
 761.373046875 660 l 1,4,-1
EndSplineSet
Substitution2: "'c2sc' Capitals to Small Capitals lookup 11 subtable" uacute.sc
Substitution2: "'aalt' Access All Alternates lookup 0 subtable" uacute.sc
EndChar

StartChar: Ucircumflex
Encoding: 219 219 157
Width: 708
GlyphClass: 2
Flags: W
LayerCount: 2
Fore
SplineSet
668.685546875 709 m 1,0,-1
 507.685546875 709 l 1,1,-1
 469.615234375 778 l 1,2,-1
 399.685546875 709 l 1,3,-1
 238.685546875 709 l 1,4,-1
 385.240234375 876 l 1,5,-1
 599.240234375 876 l 1,6,-1
 668.685546875 709 l 1,0,-1
761.373046875 660 m 1,7,-1
 674.56640625 284 l 2,8,9
 606.69140625 -10 606.69140625 -10 287.69140625 -10 c 128,-1,10
 -31.30859375 -10 -31.30859375 -10 36.56640625 284 c 2,11,-1
 123.373046875 660 l 1,12,-1
 357.373046875 660 l 1,13,-1
 266.411132812 266 l 2,14,15
 243.092773438 165 243.092773438 165 328.092773438 165 c 0,16,17
 414.092773438 165 414.092773438 165 437.411132812 266 c 2,18,-1
 528.373046875 660 l 1,19,-1
 761.373046875 660 l 1,7,-1
EndSplineSet
Substitution2: "'c2sc' Capitals to Small Capitals lookup 11 subtable" ucircumflex.sc
Substitution2: "'aalt' Access All Alternates lookup 0 subtable" ucircumflex.sc
EndChar

StartChar: Udieresis
Encoding: 220 220 158
Width: 708
GlyphClass: 2
Flags: W
LayerCount: 2
Fore
SplineSet
373.1640625 880 m 0,0,1
 423.1640625 880 423.1640625 880 445.23828125 856.5 c 128,-1,2
 467.313476562 833 467.313476562 833 457.155273438 789 c 128,-1,3
 446.997070312 745 446.997070312 745 414.071289062 721.5 c 128,-1,4
 381.146484375 698 381.146484375 698 331.146484375 698 c 0,5,6
 282.146484375 698 282.146484375 698 261.186523438 722 c 128,-1,7
 240.227539062 746 240.227539062 746 250.155273438 789 c 128,-1,8
 260.08203125 832 260.08203125 832 292.123046875 856 c 128,-1,9
 324.1640625 880 324.1640625 880 373.1640625 880 c 0,0,1
610.1640625 880 m 0,10,11
 660.1640625 880 660.1640625 880 682.23828125 856.5 c 128,-1,12
 704.313476562 833 704.313476562 833 694.155273438 789 c 128,-1,13
 683.997070312 745 683.997070312 745 651.071289062 721.5 c 128,-1,14
 618.146484375 698 618.146484375 698 568.146484375 698 c 0,15,16
 519.146484375 698 519.146484375 698 498.186523438 722 c 128,-1,17
 477.227539062 746 477.227539062 746 487.155273438 789 c 128,-1,18
 497.08203125 832 497.08203125 832 529.123046875 856 c 128,-1,19
 561.1640625 880 561.1640625 880 610.1640625 880 c 0,10,11
761.373046875 660 m 1,20,-1
 674.56640625 284 l 2,21,22
 606.69140625 -10 606.69140625 -10 287.69140625 -10 c 128,-1,23
 -31.30859375 -10 -31.30859375 -10 36.56640625 284 c 2,24,-1
 123.373046875 660 l 1,25,-1
 357.373046875 660 l 1,26,-1
 266.411132812 266 l 2,27,28
 243.092773438 165 243.092773438 165 328.092773438 165 c 0,29,30
 414.092773438 165 414.092773438 165 437.411132812 266 c 2,31,-1
 528.373046875 660 l 1,32,-1
 761.373046875 660 l 1,20,-1
EndSplineSet
Substitution2: "'titl' Titling lookup 41 subtable" Udieresis.titl
Substitution2: "'c2sc' Capitals to Small Capitals lookup 11 subtable" udieresis.sc
AlternateSubs2: "'aalt' Access All Alternates lookup 1 subtable" udieresis.sc Udieresis.titl
EndChar

StartChar: Yacute
Encoding: 221 221 159
Width: 713
GlyphClass: 2
Flags: W
LayerCount: 2
Fore
SplineSet
456.240234375 876 m 1,0,-1
 662.240234375 876 l 1,1,-1
 527.685546875 709 l 1,2,-1
 364.685546875 709 l 1,3,-1
 456.240234375 876 l 1,0,-1
792.373046875 660 m 1,4,-1
 461.869140625 229 l 1,5,-1
 409 0 l 1,6,-1
 176 0 l 1,7,-1
 228.869140625 229 l 1,8,-1
 97.373046875 660 l 1,9,-1
 329.373046875 660 l 1,10,-1
 364.51171875 509 l 1,11,-1
 383.807617188 389 l 1,12,-1
 458.51171875 509 l 1,13,-1
 563.373046875 660 l 1,14,-1
 792.373046875 660 l 1,4,-1
EndSplineSet
Substitution2: "'c2sc' Capitals to Small Capitals lookup 11 subtable" yacute.sc
Substitution2: "'aalt' Access All Alternates lookup 0 subtable" yacute.sc
EndChar

StartChar: Thorn
Encoding: 222 222 160
Width: 692
GlyphClass: 2
Flags: W
LayerCount: 2
Fore
SplineSet
459.826171875 571 m 2,0,1
 589.826171875 571 589.826171875 571 647.088867188 511.5 c 128,-1,2
 704.352539062 452 704.352539062 452 676.802734375 337 c 0,3,4
 651.252929688 222 651.252929688 222 566.515625 162.5 c 128,-1,5
 481.779296875 103 481.779296875 103 351.779296875 103 c 2,6,-1
 242.779296875 103 l 1,7,-1
 219 0 l 1,8,-1
 -14 0 l 1,9,-1
 138.373046875 660 l 1,10,-1
 371.373046875 660 l 1,11,-1
 350.826171875 571 l 1,12,-1
 459.826171875 571 l 2,0,1
351.641601562 267 m 2,13,14
 388.641601562 267 388.641601562 267 412.56640625 284 c 128,-1,15
 436.491210938 301 436.491210938 301 443.802734375 337 c 0,16,17
 452.8828125 372 452.8828125 372 436.807617188 389 c 128,-1,18
 420.732421875 406 420.732421875 406 383.732421875 406 c 2,19,-1
 312.732421875 406 l 1,20,-1
 280.641601562 267 l 1,21,-1
 351.641601562 267 l 2,13,14
EndSplineSet
Substitution2: "'c2sc' Capitals to Small Capitals lookup 11 subtable" thorn.sc
Substitution2: "'aalt' Access All Alternates lookup 0 subtable" thorn.sc
EndChar

StartChar: germandbls
Encoding: 223 223 161
Width: 666
GlyphClass: 2
Flags: W
LayerCount: 2
Fore
SplineSet
488.649414062 345 m 1,0,1
 566.649414062 345 566.649414062 345 605.145507812 299.5 c 128,-1,2
 643.640625 254 643.640625 254 625.40234375 175 c 128,-1,3
 607.163085938 96 607.163085938 96 539.427734375 43 c 128,-1,4
 471.69140625 -10 471.69140625 -10 362.69140625 -10 c 0,5,6
 275.69140625 -10 275.69140625 -10 234.079101562 22 c 1,7,-1
 297.5546875 167 l 1,8,9
 313.475585938 145 313.475585938 145 345.475585938 145 c 0,10,11
 369.475585938 145 369.475585938 145 387.28515625 161.5 c 128,-1,12
 405.094726562 178 405.094726562 178 412.020507812 208 c 0,13,14
 425.1796875 265 425.1796875 265 362.1796875 265 c 2,15,-1
 307.1796875 265 l 1,16,-1
 370.272460938 417 l 1,17,-1
 396.272460938 417 l 2,18,19
 449.733398438 419 449.733398438 419 465.202148438 486 c 0,20,21
 472.127929688 516 472.127929688 516 458.552734375 533 c 128,-1,22
 444.977539062 550 444.977539062 550 417.977539062 550 c 0,23,24
 370.977539062 550 370.977539062 550 345.244140625 523 c 128,-1,25
 319.510742188 496 319.510742188 496 304.50390625 431 c 2,26,-1
 205 0 l 1,27,-1
 -25 0 l 1,28,-1
 75.8896484375 437 l 2,29,30
 106.594726562 570 106.594726562 570 197.678710938 637.5 c 128,-1,31
 288.76171875 705 288.76171875 705 454.76171875 705 c 0,32,33
 588.76171875 705 588.76171875 705 650.526367188 652 c 128,-1,34
 712.290039062 599 712.290039062 599 691.049804688 507 c 0,35,36
 675.58203125 440 675.58203125 440 619.346679688 393.5 c 128,-1,37
 563.111328125 347 563.111328125 347 489.111328125 347 c 1,38,-1
 488.649414062 345 l 1,0,1
EndSplineSet
Substitution2: "Single Substitution lookup 57 subtable" germandbls.calt
Substitution2: "'smcp' Lowercase to Small Capitals lookup 12 subtable" germandbls.sc
AlternateSubs2: "'aalt' Access All Alternates lookup 1 subtable" germandbls.sc germandbls.calt
EndChar

StartChar: agrave
Encoding: 224 224 162
Width: 588
GlyphClass: 2
Flags: W
LayerCount: 2
Fore
SplineSet
423.669921875 553 m 1,0,-1
 261.669921875 553 l 1,1,-1
 199.534179688 730 l 1,2,-1
 404.534179688 730 l 1,3,-1
 423.669921875 553 l 1,0,-1
536.396484375 123 m 0,4,5
 553.396484375 123 553.396484375 123 562.3203125 127 c 1,6,-1
 517.30859375 10 l 1,7,8
 478.69140625 -10 478.69140625 -10 438.69140625 -10 c 0,9,10
 310.69140625 -10 310.69140625 -10 301.083984375 74 c 1,11,12
 231.69140625 -10 231.69140625 -10 103.69140625 -10 c 0,13,14
 -50.30859375 -10 -50.30859375 -10 -22.8349609375 109 c 0,15,16
 -8.291015625 172 -8.291015625 172 45.3671875 209.5 c 128,-1,17
 99.0244140625 247 99.0244140625 247 209.333984375 270 c 2,18,-1
 313.413085938 292 l 1,19,-1
 318.03125 312 l 2,20,21
 329.34375 361 329.34375 361 284.34375 361 c 0,22,23
 233.34375 361 233.34375 361 217.260742188 300 c 1,24,-1
 33.9560546875 329 l 1,25,26
 61.810546875 415 61.810546875 415 136.776367188 462.5 c 128,-1,27
 211.743164062 510 211.743164062 510 331.743164062 510 c 0,28,29
 464.743164062 510 464.743164062 510 516.46875 459 c 128,-1,30
 568.194335938 408 568.194335938 408 544.18359375 304 c 2,31,-1
 511.862304688 164 l 2,32,33
 502.396484375 123 502.396484375 123 536.396484375 123 c 0,4,5
229.549804688 115 m 0,34,35
 248.549804688 115 248.549804688 115 263.435546875 127.5 c 128,-1,36
 278.321289062 140 278.321289062 140 283.862304688 164 c 2,37,-1
 294.944335938 212 l 1,38,-1
 259.635742188 202 l 2,39,40
 211.633789062 189 211.633789062 189 202.629882812 150 c 0,41,42
 198.705078125 133 198.705078125 133 206.627929688 124 c 128,-1,43
 214.549804688 115 214.549804688 115 229.549804688 115 c 0,34,35
EndSplineSet
Substitution2: "'smcp' Lowercase to Small Capitals lookup 12 subtable" agrave.sc
Substitution2: "'aalt' Access All Alternates lookup 0 subtable" agrave.sc
EndChar

StartChar: aacute
Encoding: 225 225 163
Width: 588
GlyphClass: 2
Flags: W
LayerCount: 2
Fore
SplineSet
551.534179688 730 m 1,0,-1
 407.669921875 553 l 1,1,-1
 245.669921875 553 l 1,2,-1
 346.534179688 730 l 1,3,-1
 551.534179688 730 l 1,0,-1
536.396484375 123 m 0,4,5
 553.396484375 123 553.396484375 123 562.3203125 127 c 1,6,-1
 517.30859375 10 l 1,7,8
 478.69140625 -10 478.69140625 -10 438.69140625 -10 c 0,9,10
 310.69140625 -10 310.69140625 -10 301.083984375 74 c 1,11,12
 231.69140625 -10 231.69140625 -10 103.69140625 -10 c 0,13,14
 -50.30859375 -10 -50.30859375 -10 -22.8349609375 109 c 0,15,16
 -8.291015625 172 -8.291015625 172 45.3671875 209.5 c 128,-1,17
 99.0244140625 247 99.0244140625 247 209.333984375 270 c 2,18,-1
 313.413085938 292 l 1,19,-1
 318.03125 312 l 2,20,21
 329.34375 361 329.34375 361 284.34375 361 c 0,22,23
 233.34375 361 233.34375 361 217.260742188 300 c 1,24,-1
 33.9560546875 329 l 1,25,26
 61.810546875 415 61.810546875 415 136.776367188 462.5 c 128,-1,27
 211.743164062 510 211.743164062 510 331.743164062 510 c 0,28,29
 464.743164062 510 464.743164062 510 516.46875 459 c 128,-1,30
 568.194335938 408 568.194335938 408 544.18359375 304 c 2,31,-1
 511.862304688 164 l 2,32,33
 502.396484375 123 502.396484375 123 536.396484375 123 c 0,4,5
229.549804688 115 m 0,34,35
 248.549804688 115 248.549804688 115 263.435546875 127.5 c 128,-1,36
 278.321289062 140 278.321289062 140 283.862304688 164 c 2,37,-1
 294.944335938 212 l 1,38,-1
 259.635742188 202 l 2,39,40
 211.633789062 189 211.633789062 189 202.629882812 150 c 0,41,42
 198.705078125 133 198.705078125 133 206.627929688 124 c 128,-1,43
 214.549804688 115 214.549804688 115 229.549804688 115 c 0,34,35
EndSplineSet
Substitution2: "'smcp' Lowercase to Small Capitals lookup 12 subtable" aacute.sc
Substitution2: "'aalt' Access All Alternates lookup 0 subtable" aacute.sc
EndChar

StartChar: acircumflex
Encoding: 226 226 164
Width: 588
GlyphClass: 2
Flags: W
LayerCount: 2
Fore
SplineSet
355.676757812 618 m 1,0,-1
 282.28515625 547 l 1,1,-1
 126.28515625 547 l 1,2,-1
 273.1484375 724 l 1,3,-1
 487.1484375 724 l 1,4,-1
 552.28515625 547 l 1,5,-1
 396.28515625 547 l 1,6,-1
 355.676757812 618 l 1,0,-1
536.396484375 123 m 0,7,8
 553.396484375 123 553.396484375 123 562.3203125 127 c 1,9,-1
 517.30859375 10 l 1,10,11
 478.69140625 -10 478.69140625 -10 438.69140625 -10 c 0,12,13
 310.69140625 -10 310.69140625 -10 301.083984375 74 c 1,14,15
 231.69140625 -10 231.69140625 -10 103.69140625 -10 c 0,16,17
 -50.30859375 -10 -50.30859375 -10 -22.8349609375 109 c 0,18,19
 -8.291015625 172 -8.291015625 172 45.3671875 209.5 c 128,-1,20
 99.0244140625 247 99.0244140625 247 209.333984375 270 c 2,21,-1
 313.413085938 292 l 1,22,-1
 318.03125 312 l 2,23,24
 329.34375 361 329.34375 361 284.34375 361 c 0,25,26
 233.34375 361 233.34375 361 217.260742188 300 c 1,27,-1
 33.9560546875 329 l 1,28,29
 61.810546875 415 61.810546875 415 136.776367188 462.5 c 128,-1,30
 211.743164062 510 211.743164062 510 331.743164062 510 c 0,31,32
 464.743164062 510 464.743164062 510 516.46875 459 c 128,-1,33
 568.194335938 408 568.194335938 408 544.18359375 304 c 2,34,-1
 511.862304688 164 l 2,35,36
 502.396484375 123 502.396484375 123 536.396484375 123 c 0,7,8
229.549804688 115 m 0,37,38
 248.549804688 115 248.549804688 115 263.435546875 127.5 c 128,-1,39
 278.321289062 140 278.321289062 140 283.862304688 164 c 2,40,-1
 294.944335938 212 l 1,41,-1
 259.635742188 202 l 2,42,43
 211.633789062 189 211.633789062 189 202.629882812 150 c 0,44,45
 198.705078125 133 198.705078125 133 206.627929688 124 c 128,-1,46
 214.549804688 115 214.549804688 115 229.549804688 115 c 0,37,38
EndSplineSet
Substitution2: "'smcp' Lowercase to Small Capitals lookup 12 subtable" acircumflex.sc
Substitution2: "'aalt' Access All Alternates lookup 0 subtable" acircumflex.sc
EndChar

StartChar: atilde
Encoding: 227 227 165
Width: 588
GlyphClass: 2
Flags: W
LayerCount: 2
Fore
SplineSet
287.905273438 593 m 0,0,1
 261.905273438 593 261.905273438 593 246.823242188 545 c 1,2,-1
 128.823242188 545 l 1,3,4
 173.456054688 721 173.456054688 721 315.456054688 721 c 0,5,6
 349.456054688 721 349.456054688 721 370.0703125 708.5 c 128,-1,7
 390.684570312 696 390.684570312 696 403.298828125 683.5 c 128,-1,8
 415.912109375 671 415.912109375 671 429.912109375 671 c 0,9,10
 455.912109375 671 455.912109375 671 470.994140625 719 c 1,11,-1
 588.994140625 719 l 1,12,13
 544.361328125 543 544.361328125 543 402.361328125 543 c 0,14,15
 368.361328125 543 368.361328125 543 347.747070312 555.5 c 128,-1,16
 327.1328125 568 327.1328125 568 314.518554688 580.5 c 128,-1,17
 301.905273438 593 301.905273438 593 287.905273438 593 c 0,0,1
536.396484375 123 m 0,18,19
 553.396484375 123 553.396484375 123 562.3203125 127 c 1,20,-1
 517.30859375 10 l 1,21,22
 478.69140625 -10 478.69140625 -10 438.69140625 -10 c 0,23,24
 310.69140625 -10 310.69140625 -10 301.083984375 74 c 1,25,26
 231.69140625 -10 231.69140625 -10 103.69140625 -10 c 0,27,28
 -50.30859375 -10 -50.30859375 -10 -22.8349609375 109 c 0,29,30
 -8.291015625 172 -8.291015625 172 45.3671875 209.5 c 128,-1,31
 99.0244140625 247 99.0244140625 247 209.333984375 270 c 2,32,-1
 313.413085938 292 l 1,33,-1
 318.03125 312 l 2,34,35
 329.34375 361 329.34375 361 284.34375 361 c 0,36,37
 233.34375 361 233.34375 361 217.260742188 300 c 1,38,-1
 33.9560546875 329 l 1,39,40
 61.810546875 415 61.810546875 415 136.776367188 462.5 c 128,-1,41
 211.743164062 510 211.743164062 510 331.743164062 510 c 0,42,43
 464.743164062 510 464.743164062 510 516.46875 459 c 128,-1,44
 568.194335938 408 568.194335938 408 544.18359375 304 c 2,45,-1
 511.862304688 164 l 2,46,47
 502.396484375 123 502.396484375 123 536.396484375 123 c 0,18,19
229.549804688 115 m 0,48,49
 248.549804688 115 248.549804688 115 263.435546875 127.5 c 128,-1,50
 278.321289062 140 278.321289062 140 283.862304688 164 c 2,51,-1
 294.944335938 212 l 1,52,-1
 259.635742188 202 l 2,53,54
 211.633789062 189 211.633789062 189 202.629882812 150 c 0,55,56
 198.705078125 133 198.705078125 133 206.627929688 124 c 128,-1,57
 214.549804688 115 214.549804688 115 229.549804688 115 c 0,48,49
EndSplineSet
Substitution2: "'smcp' Lowercase to Small Capitals lookup 12 subtable" atilde.sc
Substitution2: "'aalt' Access All Alternates lookup 0 subtable" atilde.sc
EndChar

StartChar: adieresis
Encoding: 228 228 166
Width: 588
GlyphClass: 2
Flags: W
LayerCount: 2
Fore
SplineSet
217.20703125 538 m 0,0,1
 168.20703125 538 168.20703125 538 147.248046875 562 c 128,-1,2
 126.2890625 586 126.2890625 586 136.215820312 629 c 128,-1,3
 146.143554688 672 146.143554688 672 178.184570312 696 c 128,-1,4
 210.224609375 720 210.224609375 720 259.224609375 720 c 0,5,6
 309.224609375 720 309.224609375 720 331.299804688 696.5 c 128,-1,7
 353.374023438 673 353.374023438 673 343.215820312 629 c 128,-1,8
 333.057617188 585 333.057617188 585 300.1328125 561.5 c 128,-1,9
 267.20703125 538 267.20703125 538 217.20703125 538 c 0,0,1
454.20703125 538 m 0,10,11
 405.20703125 538 405.20703125 538 384.248046875 562 c 128,-1,12
 363.2890625 586 363.2890625 586 373.215820312 629 c 128,-1,13
 383.143554688 672 383.143554688 672 415.184570312 696 c 128,-1,14
 447.224609375 720 447.224609375 720 496.224609375 720 c 0,15,16
 546.224609375 720 546.224609375 720 568.299804688 696.5 c 128,-1,17
 590.374023438 673 590.374023438 673 580.215820312 629 c 128,-1,18
 570.057617188 585 570.057617188 585 537.1328125 561.5 c 128,-1,19
 504.20703125 538 504.20703125 538 454.20703125 538 c 0,10,11
536.396484375 123 m 0,20,21
 553.396484375 123 553.396484375 123 562.3203125 127 c 1,22,-1
 517.30859375 10 l 1,23,24
 478.69140625 -10 478.69140625 -10 438.69140625 -10 c 0,25,26
 310.69140625 -10 310.69140625 -10 301.083984375 74 c 1,27,28
 231.69140625 -10 231.69140625 -10 103.69140625 -10 c 0,29,30
 -50.30859375 -10 -50.30859375 -10 -22.8349609375 109 c 0,31,32
 -8.291015625 172 -8.291015625 172 45.3671875 209.5 c 128,-1,33
 99.0244140625 247 99.0244140625 247 209.333984375 270 c 2,34,-1
 313.413085938 292 l 1,35,-1
 318.03125 312 l 2,36,37
 329.34375 361 329.34375 361 284.34375 361 c 0,38,39
 233.34375 361 233.34375 361 217.260742188 300 c 1,40,-1
 33.9560546875 329 l 1,41,42
 61.810546875 415 61.810546875 415 136.776367188 462.5 c 128,-1,43
 211.743164062 510 211.743164062 510 331.743164062 510 c 0,44,45
 464.743164062 510 464.743164062 510 516.46875 459 c 128,-1,46
 568.194335938 408 568.194335938 408 544.18359375 304 c 2,47,-1
 511.862304688 164 l 2,48,49
 502.396484375 123 502.396484375 123 536.396484375 123 c 0,20,21
229.549804688 115 m 0,50,51
 248.549804688 115 248.549804688 115 263.435546875 127.5 c 128,-1,52
 278.321289062 140 278.321289062 140 283.862304688 164 c 2,53,-1
 294.944335938 212 l 1,54,-1
 259.635742188 202 l 2,55,56
 211.633789062 189 211.633789062 189 202.629882812 150 c 0,57,58
 198.705078125 133 198.705078125 133 206.627929688 124 c 128,-1,59
 214.549804688 115 214.549804688 115 229.549804688 115 c 0,50,51
EndSplineSet
Substitution2: "'smcp' Lowercase to Small Capitals lookup 12 subtable" adieresis.sc
Substitution2: "'aalt' Access All Alternates lookup 0 subtable" adieresis.sc
EndChar

StartChar: aring
Encoding: 229 229 167
Width: 588
GlyphClass: 2
Flags: W
LayerCount: 2
Fore
SplineSet
339.514648438 535 m 128,-1,1
 272.514648438 535 272.514648438 535 242.90234375 567 c 128,-1,2
 213.290039062 599 213.290039062 599 226.911132812 658 c 128,-1,3
 240.532226562 717 240.532226562 717 284.919921875 749 c 128,-1,4
 329.307617188 781 329.307617188 781 396.307617188 781 c 128,-1,5
 463.307617188 781 463.307617188 781 492.919921875 749 c 128,-1,6
 522.532226562 717 522.532226562 717 508.911132812 658 c 128,-1,7
 495.290039062 599 495.290039062 599 450.90234375 567 c 128,-1,0
 406.514648438 535 406.514648438 535 339.514648438 535 c 128,-1,1
376.915039062 697 m 128,-1,9
 336.915039062 697 336.915039062 697 327.911132812 658 c 128,-1,10
 318.907226562 619 318.907226562 619 358.907226562 619 c 128,-1,11
 398.907226562 619 398.907226562 619 407.911132812 658 c 128,-1,8
 416.915039062 697 416.915039062 697 376.915039062 697 c 128,-1,9
536.396484375 123 m 0,12,13
 553.396484375 123 553.396484375 123 562.3203125 127 c 1,14,-1
 517.30859375 10 l 1,15,16
 478.69140625 -10 478.69140625 -10 438.69140625 -10 c 0,17,18
 310.69140625 -10 310.69140625 -10 301.083984375 74 c 1,19,20
 231.69140625 -10 231.69140625 -10 103.69140625 -10 c 0,21,22
 -50.30859375 -10 -50.30859375 -10 -22.8349609375 109 c 0,23,24
 -8.291015625 172 -8.291015625 172 45.3671875 209.5 c 128,-1,25
 99.0244140625 247 99.0244140625 247 209.333984375 270 c 2,26,-1
 313.413085938 292 l 1,27,-1
 318.03125 312 l 2,28,29
 329.34375 361 329.34375 361 284.34375 361 c 0,30,31
 233.34375 361 233.34375 361 217.260742188 300 c 1,32,-1
 33.9560546875 329 l 1,33,34
 61.810546875 415 61.810546875 415 136.776367188 462.5 c 128,-1,35
 211.743164062 510 211.743164062 510 331.743164062 510 c 0,36,37
 464.743164062 510 464.743164062 510 516.46875 459 c 128,-1,38
 568.194335938 408 568.194335938 408 544.18359375 304 c 2,39,-1
 511.862304688 164 l 2,40,41
 502.396484375 123 502.396484375 123 536.396484375 123 c 0,12,13
229.549804688 115 m 0,42,43
 248.549804688 115 248.549804688 115 263.435546875 127.5 c 128,-1,44
 278.321289062 140 278.321289062 140 283.862304688 164 c 2,45,-1
 294.944335938 212 l 1,46,-1
 259.635742188 202 l 2,47,48
 211.633789062 189 211.633789062 189 202.629882812 150 c 0,49,50
 198.705078125 133 198.705078125 133 206.627929688 124 c 128,-1,51
 214.549804688 115 214.549804688 115 229.549804688 115 c 0,42,43
EndSplineSet
Substitution2: "'smcp' Lowercase to Small Capitals lookup 12 subtable" aring.sc
Substitution2: "'aalt' Access All Alternates lookup 0 subtable" aring.sc
EndChar

